<?xml version="1.0" encoding="UTF-8" standalone="no"?><!DOCTYPE svg PUBLIC "-//W3C//DTD SVG 1.1//EN" "http://www.w3.org/Graphics/SVG/1.1/DTD/svg11.dtd"><svg viewBox="0 0 172 172" version="1.1" xmlns="http://www.w3.org/2000/svg" xmlns:xlink="http://www.w3.org/1999/xlink" xml:space="preserve" xmlns:serif="http://www.serif.com/" style="fill-rule:evenodd;clip-rule:evenodd;stroke-linejoin:round;stroke-miterlimit:2;"><g id="Слой3"><path d="M167.405,40.744c-0.025,-6.583 -5.374,-11.903 -11.958,-11.891c-28.023,0.05 -95.769,0.173 -95.769,0.173c0,-0 -0.036,-0.775 -0.091,-1.949c-0.297,-6.346 -5.525,-11.341 -11.879,-11.347c-9.675,-0.009 -22.027,-0.021 -22.027,-0.021l-11.344,0c-3.165,0 -6.201,1.258 -8.44,3.496c-2.238,2.239 -3.496,5.275 -3.496,8.44c0,26.517 0,90.07 0,116.586c0,3.166 1.258,6.202 3.496,8.441c2.239,2.238 5.275,3.496 8.44,3.496c30.49,-0 110.98,-0 141.518,-0c3.174,-0 6.216,-1.264 8.456,-3.512c2.24,-2.248 3.492,-5.296 3.48,-8.469c-0.09,-24.313 -0.295,-79.187 -0.386,-103.443Zm-43.866,76.977c0,-1.693 -0.672,-3.317 -1.87,-4.514c-1.197,-1.197 -2.82,-1.87 -4.513,-1.87c-7.215,0 -18.892,0 -26.107,0c-1.693,0 -3.317,0.673 -4.514,1.87c-1.197,1.197 -1.87,2.821 -1.87,4.514c0,-0 0,0 0,0c0,1.693 0.673,3.317 1.87,4.514c1.197,1.197 2.821,1.869 4.514,1.869c7.215,0 18.892,0 26.107,0c1.693,0 3.316,-0.672 4.513,-1.869c1.198,-1.197 1.87,-2.821 1.87,-4.514c0,0 0,-0 0,-0Zm-39.416,-29.695c-0.33,-0.854 -0.851,-1.651 -1.56,-2.324c-6.491,-6.156 -18.226,-17.286 -24.717,-23.442c-2.557,-2.426 -6.598,-2.319 -9.024,0.239c0,-0 0,-0 -0,0c-2.426,2.558 -2.319,6.598 0.239,9.024l20.686,19.62l-21.273,22.019c-2.449,2.535 -2.38,6.576 0.155,9.025c0.001,0 0.001,0.001 0.001,0.001c2.535,2.449 6.576,2.38 9.026,-0.156c6.595,-6.826 18.917,-19.58 25.512,-26.406c2.018,-2.089 2.327,-5.199 0.955,-7.6Z"/></g></svg>