<?xml version="1.0" encoding="UTF-8" standalone="no"?><!DOCTYPE svg PUBLIC "-//W3C//DTD SVG 1.1//EN" "http://www.w3.org/Graphics/SVG/1.1/DTD/svg11.dtd"><svg viewBox="0 0 172 172" version="1.1" xmlns="http://www.w3.org/2000/svg" xmlns:xlink="http://www.w3.org/1999/xlink" xml:space="preserve" xmlns:serif="http://www.serif.com/" style="fill-rule:evenodd;clip-rule:evenodd;stroke-linejoin:round;stroke-miterlimit:2;"><g id="Слой1"><path d="M57.642,49.114c0.222,-0.28 0.559,-0.443 0.915,-0.443c5.459,0 48.798,0 54.267,0c0.358,0 0.696,0.164 0.917,0.446c8.732,11.09 23.846,29.206 23.846,45.38c-0,34.466 -23.116,62.447 -51.587,62.447c-28.471,0 -51.587,-27.981 -51.587,-62.447c0,-16.288 14.428,-34.264 23.229,-45.383Z" style="fill:#171717;"/><g><path d="M56.215,40.52c7.45,-10.248 18.111,-16.604 29.925,-16.604c11.836,0 22.516,6.38 29.965,16.666l-27.864,-0.075l-32.026,0.013Z"/><path d="M92.4,26.572l4.001,0.74l5.961,2.242l-0.004,-14.271c-0.001,-2.75 -2.231,-4.979 -4.981,-4.978c-0,-0 -0.001,-0 -0.002,-0c-2.75,0 -4.979,2.23 -4.978,4.98l0.003,11.287Z"/><path d="M69.601,29.576l6.018,-2.264l3.938,-0.728l-0.021,-11.605c-0.004,-2.75 -2.238,-4.975 -4.988,-4.97c-0,-0 -0.001,-0 -0.002,-0c-2.75,0.004 -4.976,2.238 -4.971,4.988l0.026,14.579Z"/></g><g><path d="M58.637,48.421c0.087,-0.02 0.177,-0.029 0.266,-0.028c2.057,0.027 27.052,0.345 27.052,0.345l-0.148,22.976l-64.299,81.607c0,-0 -6.582,-5.093 -11.155,-13.356c-6.179,-11.161 -11.463,-38.339 10.761,-67.643c9.942,-13.109 23.768,-20.852 37.523,-23.901Z"/><g><path d="M26.212,147.61c-3.042,-2.389 -3.564,-6.81 -1.163,-9.868c2.401,-3.057 6.82,-3.599 9.862,-1.21" style="fill:#fff;"/><path d="M36.824,115.84c3.049,2.395 3.583,6.811 1.192,9.856c-2.391,3.046 -6.808,3.574 -9.857,1.18c-3.049,-2.394 -3.584,-6.811 -1.192,-9.856c2.391,-3.045 6.808,-3.574 9.857,-1.18Z" style="fill:#fff;"/><path d="M41.209,97.26c3.076,2.416 3.633,6.848 1.243,9.892c-2.39,3.044 -6.828,3.554 -9.904,1.138c-3.076,-2.415 -3.633,-6.847 -1.243,-9.891c2.39,-3.044 6.827,-3.554 9.904,-1.139Z" style="fill:#fff;"/><path d="M44.677,77.635c3.031,2.38 3.556,6.778 1.172,9.814c-2.384,3.037 -6.781,3.569 -9.812,1.189c-3.031,-2.38 -3.557,-6.778 -1.173,-9.814c2.385,-3.036 6.781,-3.569 9.813,-1.189Z" style="fill:#fff;"/><path d="M48.857,58.4c3.044,2.391 3.583,6.794 1.201,9.827c-2.381,3.033 -6.786,3.554 -9.831,1.163c-3.045,-2.39 -3.583,-6.794 -1.202,-9.827c2.381,-3.032 6.787,-3.554 9.832,-1.163Z" style="fill:#fff;"/></g></g><g><path d="M112.969,48.529c-0.085,-0.019 -0.173,-0.029 -0.26,-0.028c-2.014,0.002 -26.6,0.039 -26.6,0.039l-0.037,23.494l63.438,81.603c-0,0 6.61,-5.056 11.23,-13.292c6.241,-11.127 11.679,-38.274 -10.38,-67.703c-9.869,-13.166 -23.653,-20.986 -37.391,-24.113Z"/><g><path d="M136.098,136.775c3.062,-2.366 7.476,-1.789 9.853,1.287c2.377,3.076 1.821,7.493 -1.24,9.859" style="fill:#fff;"/><path d="M133.9,116.414c3.061,-2.365 7.469,-1.796 9.839,1.271c2.369,3.066 1.808,7.476 -1.253,9.841c-3.06,2.365 -7.469,1.796 -9.838,-1.271c-2.37,-3.066 -1.809,-7.476 1.252,-9.841Z" style="fill:#fff;"/><path d="M130.347,97.41c3.065,-2.369 7.473,-1.809 9.837,1.25c2.364,3.059 1.794,7.466 -1.272,9.835c-3.065,2.368 -7.473,1.808 -9.837,-1.251c-2.363,-3.059 -1.794,-7.465 1.272,-9.834Z" style="fill:#fff;"/><path d="M126.873,77.741c3.047,-2.355 7.439,-1.783 9.802,1.275c2.363,3.058 1.808,7.452 -1.239,9.806c-3.046,2.354 -7.438,1.783 -9.801,-1.275c-2.363,-3.058 -1.808,-7.452 1.238,-9.806Z" style="fill:#fff;"/><path d="M122.757,58.541c3.057,-2.363 7.454,-1.804 9.811,1.247c2.358,3.052 1.79,7.447 -1.268,9.81c-3.057,2.362 -7.454,1.803 -9.811,-1.248c-2.358,-3.051 -1.79,-7.447 1.268,-9.809Z" style="fill:#fff;"/></g></g></g></svg>