<?xml version="1.0" encoding="UTF-8" standalone="no"?><!DOCTYPE svg PUBLIC "-//W3C//DTD SVG 1.1//EN" "http://www.w3.org/Graphics/SVG/1.1/DTD/svg11.dtd"><svg viewBox="0 0 172 172" version="1.1" xmlns="http://www.w3.org/2000/svg" xmlns:xlink="http://www.w3.org/1999/xlink" xml:space="preserve" xmlns:serif="http://www.serif.com/" style="fill-rule:evenodd;clip-rule:evenodd;stroke-linecap:round;stroke-linejoin:round;stroke-miterlimit:1.5;"><g id="Слой1"><path d="M48.124,48.996c0.221,-0.293 0.567,-0.464 0.934,-0.463c6.603,0.021 67.459,0.222 74.05,0.244c0.366,0.001 0.71,0.173 0.93,0.466c8.461,11.338 13.549,26.533 13.549,43.199c-0,35.522 -23.116,64.362 -51.587,64.362c-28.471,-0 -51.587,-28.84 -51.587,-64.362c0,-16.782 5.159,-32.073 13.711,-43.446Z"/><g><path d="M56.215,40.52c7.45,-10.248 18.111,-16.604 29.925,-16.604c11.836,0 22.516,6.38 29.965,16.666l-27.864,-0.075l-32.026,0.013Z"/><path d="M92.4,26.572l4.001,0.74l5.961,2.242l-0.004,-14.271c-0.001,-2.75 -2.231,-4.979 -4.981,-4.978c-0,-0 -0.001,-0 -0.002,-0c-2.75,0 -4.979,2.23 -4.978,4.98l0.003,11.287Z"/><path d="M69.601,29.576l6.018,-2.264l3.938,-0.728l-0.021,-11.605c-0.004,-2.75 -2.238,-4.975 -4.988,-4.97c-0,-0 -0.001,-0 -0.002,-0c-2.75,0.004 -4.976,2.238 -4.971,4.988l0.026,14.579Z"/></g><path d="M29.74,124.112l-0.039,-0.12l-14.648,8.631c-2.369,1.396 -2.845,4.98 -1.062,8.006c0,0.001 0.001,0.001 0.001,0.002c1.783,3.025 5.148,4.346 7.518,2.95l13.679,-8.06l-5.449,-11.409Z"/><path d="M139.62,59.36l3.584,7.503l1.387,4.331l15.602,-9.194c2.37,-1.396 2.845,-4.98 1.063,-8.005c-0.001,-0.001 -0.001,-0.002 -0.002,-0.003c-1.782,-3.025 -5.148,-4.346 -7.517,-2.95l-14.117,8.318Z"/><path d="M146.605,120.371l-0.303,0.935l-5.217,10.905l14.72,8.565c2.377,1.383 5.768,-0.013 7.575,-3.117c0,-0.001 0.001,-0.002 0.001,-0.003c1.807,-3.104 1.344,-6.742 -1.033,-8.125l-15.743,-9.16Z"/><path d="M28.671,67.888l1.412,-4.352l3.697,-7.727l-13.169,-7.662c-2.377,-1.383 -5.768,0.012 -7.574,3.117c-0.001,0.001 -0.001,0.002 -0.002,0.003c-1.806,3.104 -1.344,6.742 1.033,8.125l14.603,8.496Z"/><path d="M147.081,87.495l0.126,2.109l-0.728,11.214l19.566,0.202c2.357,0.024 4.293,-2.512 4.326,-5.666c0.006,-0.632 0.013,-1.276 0.019,-1.909c0.033,-3.153 -1.851,-5.729 -4.207,-5.754l-19.102,-0.196Z"/><path d="M26.45,88.051l-19.421,-0.2c-1.345,-0.014 -2.643,0.688 -3.607,1.951c-0.965,1.263 -1.517,2.983 -1.535,4.783c-0.003,0.278 -0.006,0.556 -0.009,0.832c-0.032,3.152 1.852,5.728 4.208,5.752l20.72,0.214l-0.585,-9.804l0.229,-3.528Z"/><g><ellipse cx="86.151" cy="142.614" rx="7.009" ry="7.043" style="fill:#fff;"/><ellipse cx="75.443" cy="125.019" rx="7.024" ry="7.016" style="fill:#fff;"/><ellipse cx="96.71" cy="125.014" rx="7.008" ry="7.021" style="fill:#fff;"/><ellipse cx="66.7" cy="107.683" rx="7.086" ry="7.012" style="fill:#fff;"/><ellipse cx="105.518" cy="107.786" rx="7.019" ry="7.004" style="fill:#fff;"/><ellipse cx="57.307" cy="90.089" rx="6.983" ry="6.995" style="fill:#fff;"/><ellipse cx="114.797" cy="90.096" rx="6.976" ry="7.002" style="fill:#fff;"/><ellipse cx="48.715" cy="72.371" rx="7.014" ry="6.987" style="fill:#fff;"/><ellipse cx="123.279" cy="72.371" rx="7.001" ry="6.987" style="fill:#fff;"/></g><path d="M86.227,66.625c0,0 -0.171,90.195 0,89.896" style="fill:none;stroke:#fff;stroke-width:4px;"/></g></svg>