<?xml version="1.0" encoding="UTF-8" standalone="no"?><!DOCTYPE svg PUBLIC "-//W3C//DTD SVG 1.1//EN" "http://www.w3.org/Graphics/SVG/1.1/DTD/svg11.dtd"><svg viewBox="0 0 172 172" version="1.1" xmlns="http://www.w3.org/2000/svg" xmlns:xlink="http://www.w3.org/1999/xlink" xml:space="preserve" xmlns:serif="http://www.serif.com/" style="fill-rule:evenodd;clip-rule:evenodd;stroke-linejoin:round;stroke-miterlimit:2;"><g id="Слой1"></g><g id="Слой2"><path d="M79.477,29.332c-0.008,-7.071 -5.743,-12.8 -12.814,-12.8c-14.091,0 -36.612,0 -50.708,0c-7.077,0 -12.814,5.737 -12.814,12.814l0,102.695c0,7.065 5.717,12.798 12.781,12.818c18.278,0.052 49.701,0.142 49.701,0.142c-0,-0 4.45,-0.163 8.738,3.109c4.088,3.119 5.254,6.866 5.254,6.866c0,0 -0.1,-91.353 -0.138,-125.644Zm-44.388,75.914c-0,-2.3 -1.865,-4.165 -4.165,-4.165c-3.234,0 -7.698,0 -10.932,0c-2.3,0 -4.164,1.865 -4.164,4.165c-0,1.439 -0,3.052 -0,4.491c-0,2.3 1.864,4.164 4.164,4.164c3.234,0 7.698,0 10.932,0c2.3,0 4.165,-1.864 4.165,-4.164c-0,-1.439 -0,-3.052 -0,-4.491Zm31.934,-0.041c0,-2.3 -1.864,-4.164 -4.164,-4.164c-3.234,-0 -7.698,-0 -10.932,-0c-2.3,-0 -4.165,1.864 -4.165,4.164c0,1.44 0,3.052 0,4.492c0,2.299 1.865,4.164 4.165,4.164c3.234,-0 7.698,-0 10.932,-0c2.3,-0 4.164,-1.865 4.164,-4.164c0,-1.44 0,-3.052 0,-4.492Zm-31.934,-26.023c-0,-2.3 -1.865,-4.164 -4.165,-4.164c-3.234,-0 -7.698,-0 -10.932,-0c-2.3,-0 -4.164,1.864 -4.164,4.164c-0,1.44 -0,3.052 -0,4.492c-0,2.3 1.864,4.164 4.164,4.164c3.234,-0 7.698,-0 10.932,-0c2.3,-0 4.165,-1.864 4.165,-4.164c-0,-1.44 -0,-3.052 -0,-4.492Zm31.934,-0.04c0,-2.3 -1.864,-4.165 -4.164,-4.165c-3.234,0 -7.698,0 -10.932,0c-2.3,0 -4.165,1.865 -4.165,4.165c0,1.439 0,3.052 0,4.491c0,2.3 1.865,4.164 4.165,4.164c3.234,0 7.698,0 10.932,0c2.3,0 4.164,-1.864 4.164,-4.164c0,-1.439 0,-3.052 0,-4.491Zm-31.934,-25.942c-0,-2.3 -1.865,-4.165 -4.165,-4.165c-3.234,0 -7.698,0 -10.932,0c-2.3,0 -4.164,1.865 -4.164,4.165c-0,1.439 -0,3.052 -0,4.491c-0,2.3 1.864,4.165 4.164,4.165c3.234,-0 7.698,-0 10.932,-0c2.3,-0 4.165,-1.865 4.165,-4.165c-0,-1.439 -0,-3.052 -0,-4.491Zm31.934,-0.041c0,-2.3 -1.864,-4.164 -4.164,-4.164c-3.234,-0 -7.698,-0 -10.932,-0c-2.3,-0 -4.165,1.864 -4.165,4.164c0,1.44 0,3.052 0,4.492c0,2.3 1.865,4.164 4.165,4.164c3.234,0 7.698,0 10.932,0c2.3,0 4.164,-1.864 4.164,-4.164c0,-1.44 0,-3.052 0,-4.492Z"/><path d="M92.523,29.823c0.008,-7.071 5.743,-12.799 12.814,-12.799c14.091,-0 36.612,-0 50.708,-0c7.077,-0 12.814,5.737 12.814,12.813l-0,102.695c-0,7.065 -5.717,12.798 -12.781,12.818c-18.278,0.052 -49.701,0.142 -49.701,0.142c0,-0 -4.45,-0.163 -8.738,3.109c-4.088,3.119 -5.254,6.867 -5.254,6.867c-0,-0 0.1,-91.354 0.138,-125.645Zm44.388,75.914c0,-2.3 1.865,-4.164 4.165,-4.164c3.234,-0 7.698,-0 10.932,-0c2.3,-0 4.164,1.864 4.164,4.164c0,1.439 0,3.052 0,4.491c0,2.3 -1.864,4.165 -4.164,4.165c-3.234,-0 -7.698,-0 -10.932,-0c-2.3,-0 -4.165,-1.865 -4.165,-4.165c0,-1.439 0,-3.052 0,-4.491Zm-31.934,-0.041c-0,-2.3 1.864,-4.164 4.164,-4.164c3.234,-0 7.698,-0 10.932,-0c2.3,-0 4.165,1.864 4.165,4.164c-0,1.44 -0,3.052 -0,4.492c-0,2.3 -1.865,4.164 -4.165,4.164c-3.234,0 -7.698,0 -10.932,0c-2.3,0 -4.164,-1.864 -4.164,-4.164c-0,-1.44 -0,-3.052 -0,-4.492Zm31.934,-26.023c0,-2.3 1.865,-4.164 4.165,-4.164c3.234,0 7.698,0 10.932,0c2.3,0 4.164,1.864 4.164,4.164c0,1.44 0,3.052 0,4.492c0,2.3 -1.864,4.164 -4.164,4.164c-3.234,0 -7.698,0 -10.932,0c-2.3,0 -4.165,-1.864 -4.165,-4.164c0,-1.44 0,-3.052 0,-4.492Zm-31.934,-0.04c-0,-2.3 1.864,-4.165 4.164,-4.165c3.234,0 7.698,0 10.932,0c2.3,0 4.165,1.865 4.165,4.165c-0,1.439 -0,3.052 -0,4.491c-0,2.3 -1.865,4.165 -4.165,4.165c-3.234,-0 -7.698,-0 -10.932,-0c-2.3,-0 -4.164,-1.865 -4.164,-4.165c-0,-1.439 -0,-3.052 -0,-4.491Zm31.934,-25.942c0,-2.3 1.865,-4.164 4.165,-4.164c3.234,-0 7.698,-0 10.932,-0c2.3,-0 4.164,1.864 4.164,4.164c0,1.439 0,3.052 0,4.491c0,2.3 -1.864,4.165 -4.164,4.165c-3.234,-0 -7.698,-0 -10.932,-0c-2.3,-0 -4.165,-1.865 -4.165,-4.165c0,-1.439 0,-3.052 0,-4.491Zm-31.934,-0.041c-0,-2.299 1.864,-4.164 4.164,-4.164c3.234,0 7.698,0 10.932,0c2.3,0 4.165,1.865 4.165,4.164c-0,1.44 -0,3.052 -0,4.492c-0,2.3 -1.865,4.164 -4.165,4.164c-3.234,0 -7.698,0 -10.932,0c-2.3,0 -4.164,-1.864 -4.164,-4.164c-0,-1.44 -0,-3.052 -0,-4.492Z"/></g></svg>