<?xml version="1.0" encoding="UTF-8" standalone="no"?>
<!DOCTYPE svg PUBLIC "-//W3C//DTD SVG 1.1//EN" "http://www.w3.org/Graphics/SVG/1.1/DTD/svg11.dtd">
<svg width="100%" height="100%" viewBox="0 0 40 40" version="1.1" xmlns="http://www.w3.org/2000/svg" xmlns:xlink="http://www.w3.org/1999/xlink" xml:space="preserve" xmlns:serif="http://www.serif.com/" style="fill-rule:evenodd;clip-rule:evenodd;stroke-linejoin:round;stroke-miterlimit:2;">
    <g transform="matrix(1,0,0,1,0,-0.423184)">
        <g id="Слой1" transform="matrix(1.26967,0,0,1.26967,-4.77303,-8.36095)">
            <g transform="matrix(1.01228,0,0,1.13283,-0.433035,-5.04322)">
                <rect x="4.141" y="34.939" width="31.122" height="3.136" style="fill:rgb(182,220,254);"/>
                <path d="M35.263,34.939L4.141,34.939L4.141,38.075L35.263,38.075L35.263,34.939ZM34.485,35.634L34.485,37.38C34.485,37.38 4.919,37.38 4.919,37.38C4.919,37.38 4.919,35.634 4.919,35.634L34.485,35.634Z" style="fill:rgb(91,148,203);"/>
            </g>
            <path d="M8.007,32.348L16.63,6.918L22.406,6.918L30.914,32.348L26.158,32.348L24.252,26.247L14.767,26.247L12.824,32.348L8.007,32.348ZM14.767,23.128L24.252,23.128L20.284,10.279L18.771,10.279L14.767,23.128Z" style="fill:rgb(199,223,245);"/>
            <path d="M8.007,32.348L16.63,6.918L22.406,6.918L30.914,32.348L26.158,32.348L24.252,26.247L14.767,26.247L12.824,32.348L8.007,32.348ZM9.402,31.348L17.347,7.918C17.347,7.918 21.686,7.918 21.686,7.918C21.686,7.918 29.525,31.348 29.525,31.348C29.525,31.348 26.891,31.348 26.891,31.348C26.891,31.348 24.975,25.219 24.975,25.219L13.989,25.219L12.092,31.348L9.402,31.348Z" style="fill:rgb(91,148,203);"/>
            <path d="M14.767,23.128L24.252,23.128L20.284,10.279L18.771,10.279L14.767,23.128ZM15.838,22.341L19.351,11.067C19.351,11.067 19.703,11.067 19.703,11.067C19.703,11.067 23.185,22.341 23.185,22.341L15.838,22.341Z" style="fill:rgb(91,148,203);"/>
        </g>
    </g>
</svg>
