<?xml version="1.0" encoding="UTF-8" standalone="no"?>
<!DOCTYPE svg PUBLIC "-//W3C//DTD SVG 1.1//EN" "http://www.w3.org/Graphics/SVG/1.1/DTD/svg11.dtd">
<svg width="100%" height="100%" viewBox="0 0 40 40" version="1.1" xmlns="http://www.w3.org/2000/svg" xmlns:xlink="http://www.w3.org/1999/xlink" xml:space="preserve" xmlns:serif="http://www.serif.com/" style="fill-rule:evenodd;clip-rule:evenodd;stroke-linecap:round;stroke-miterlimit:1.5;">
    <g transform="matrix(1,0,0,1,-1.20308,0.29031)">
        <g transform="matrix(1.16327,0,0,1.16327,-4.41517,-2.89743)">
            <path d="M6.975,32.053L5.605,33.427L7.292,35.111L8.692,33.709C9.141,33.911 9.632,34.019 10.134,34.019C11.063,34.019 11.954,33.65 12.61,32.993C16.324,29.28 23.293,22.311 26.998,18.606C28.358,17.246 28.358,15.041 26.998,13.681C26.981,13.664 26.964,13.647 26.947,13.63C25.587,12.27 23.382,12.27 22.022,13.63C18.317,17.335 11.348,24.304 7.635,28.018C6.978,28.674 6.609,29.565 6.609,30.494C6.609,31.04 6.737,31.573 6.975,32.053Z" style="fill:white;stroke:rgb(91,148,203);stroke-width:0.86px;"/>
            <g transform="matrix(0.277333,-0.277333,0.597193,0.597193,12.6521,4.70556)">
                <path d="M39.075,18.861C39.075,16.904 35.658,15.317 31.443,15.317C25.196,15.317 16.399,15.317 10.139,15.317C5.9,15.317 2.464,16.913 2.464,18.882C2.464,19.28 2.464,19.686 2.464,20.085C2.464,22.053 5.9,23.649 10.139,23.649C16.399,23.649 25.196,23.649 31.443,23.649C35.658,23.649 39.075,22.062 39.075,20.105C39.075,19.693 39.075,19.273 39.075,18.861Z" style="fill:rgb(182,220,254);stroke:rgb(91,148,203);stroke-width:1.31px;"/>
            </g>
            <g transform="matrix(0.704841,-0.709365,0.799439,0.794341,2.0111,15.5033)">
                <path d="M19.289,9.952C19.289,9.75 19.199,9.557 19.038,9.415C18.878,9.272 18.66,9.192 18.433,9.192C17.784,9.192 16.896,9.192 16.246,9.192C16.019,9.192 15.802,9.272 15.641,9.415C15.481,9.557 15.391,9.75 15.391,9.952C15.391,11.909 15.391,17.114 15.391,19.115C15.391,19.557 15.794,19.914 16.291,19.914C16.921,19.914 17.759,19.914 18.388,19.914C18.886,19.914 19.289,19.557 19.289,19.115C19.289,17.114 19.289,11.909 19.289,9.952Z" style="fill:rgb(182,220,254);stroke:rgb(91,148,203);stroke-width:0.81px;"/>
            </g>
        </g>
    </g>
</svg>
