<?xml version="1.0" encoding="UTF-8" standalone="no"?>
<!DOCTYPE svg PUBLIC "-//W3C//DTD SVG 1.1//EN" "http://www.w3.org/Graphics/SVG/1.1/DTD/svg11.dtd">
<svg width="100%" height="100%" viewBox="0 0 40 40" version="1.1" xmlns="http://www.w3.org/2000/svg" xmlns:xlink="http://www.w3.org/1999/xlink" xml:space="preserve" xmlns:serif="http://www.serif.com/" style="fill-rule:evenodd;clip-rule:evenodd;stroke-miterlimit:4.90854;">
    <g>
        <g id="Слой1" transform="matrix(0.834535,0,0,0.834535,-0.918041,-1.57476)">
            <g transform="matrix(0.98909,0,0,0.995428,0.240443,0.022558)">
                <path d="M40.48,13.401L30.583,2.856L7.196,2.856L7.196,45.515L40.48,45.515L40.48,13.401Z" style="fill:white;"/>
                <path d="M40.48,13.401L30.583,2.856L7.196,2.856L7.196,45.515L40.48,45.515L40.48,13.401ZM39.269,13.875L39.269,44.311C39.269,44.311 8.407,44.311 8.407,44.311C8.407,44.311 8.407,4.06 8.407,4.06C8.407,4.06 30.056,4.06 30.056,4.06L39.269,13.875Z" style="fill:rgb(91,148,203);"/>
            </g>
            <path d="M29.503,2.866L30.568,2.866L40.279,13.362L40.279,14.338L29.503,14.356L29.503,2.866Z" style="fill:rgb(223,240,254);"/>
            <path d="M29.503,2.866L30.568,2.866L40.279,13.362L40.279,14.338L29.503,14.356L29.503,2.866ZM30.702,13.156L38.443,13.142L30.702,4.775L30.702,13.156Z" style="fill:rgb(91,148,203);"/>
            <g transform="matrix(1.09318,0,0,1.03652,5.93687,0.37713)">
                <path d="M12.985,32.959L9.632,32.959L14.472,24.938L9.962,17.009L13.628,17.015L16.354,23.201L19.574,17.009L22.779,17.009L18.235,24.938L23.083,32.959L19.482,32.959L16.354,26.679L12.985,32.959Z" style="fill:rgb(182,220,254);fill-rule:nonzero;"/>
            </g>
            <g transform="matrix(1.09318,0,0,1.03652,5.93687,0.37713)">
                <path d="M16.384,22.042L13.938,16.504L9.095,16.497L13.901,24.93C13.901,24.93 8.689,33.471 8.689,33.471L13.269,33.471L16.384,27.737L19.188,33.471L24.031,33.471L18.807,24.931C18.807,24.931 23.673,16.497 23.673,16.497L19.286,16.497L16.384,22.042ZM16.357,25.891L12.702,32.446L10.516,32.446C10.516,32.446 15.043,24.946 15.043,24.946L10.82,17.522C10.82,17.522 13.318,17.527 13.318,17.527L16.384,23.92L19.861,17.521C19.861,17.521 21.919,17.521 21.919,17.521C21.919,17.521 17.664,24.945 17.664,24.945L22.198,32.446C22.198,32.446 19.775,32.446 19.775,32.446C19.775,32.446 16.357,25.891 16.357,25.891Z" style="fill:rgb(91,148,203);"/>
            </g>
        </g>
        <g transform="matrix(0.0685741,0,0,0.0647889,-14.3177,-12.1279)">
            <path d="M676.233,704.089L716.757,704.089L649.449,791.97L581.467,704.089L620.846,704.089L620.942,632.011L676.267,632.011L676.233,704.089Z" style="fill:rgb(182,220,254);stroke:rgb(91,148,203);stroke-width:16.85px;"/>
        </g>
    </g>
</svg>
