<?xml version="1.0" encoding="UTF-8" standalone="no"?>
<!DOCTYPE svg PUBLIC "-//W3C//DTD SVG 1.1//EN" "http://www.w3.org/Graphics/SVG/1.1/DTD/svg11.dtd">
<svg viewBox="0 0 40 40" version="1.1" xmlns="http://www.w3.org/2000/svg" xmlns:xlink="http://www.w3.org/1999/xlink" xml:space="preserve" xmlns:serif="http://www.serif.com/" style="fill-rule:evenodd;clip-rule:evenodd;stroke-linejoin:round;stroke-miterlimit:2;">
    <g transform="matrix(0.22484,0,0,0.22484,0.656772,0.66379)">
        <g id="Page-1">
            <g id="surface4678447">
                <rect id="Shape" x="0" y="0" width="172" height="172" style="fill:none;"/>
                <path id="Shape1" serif:id="Shape" d="M150.066,45.544L107.166,2.921C105.929,1.692 104.253,1 102.5,1L33.2,1C25.904,1 20,6.866 20,14.115L20,158.375C20,165.624 25.904,171.49 33.2,171.49L138.8,171.49C146.096,171.49 152,165.624 152,158.375L152,50.18C152,48.438 151.304,46.773 150.066,45.544ZM119.057,125.589L53,125.589C49.352,125.589 46.4,122.656 46.4,119.032C46.4,115.407 49.352,112.474 53,112.474L119.057,112.474C122.705,112.474 125.657,115.407 125.657,119.032C125.657,122.656 122.705,125.589 119.057,125.589ZM119,99.36L53,99.36C49.352,99.36 46.4,96.427 46.4,92.802C46.4,89.178 49.352,86.245 53,86.245L119,86.245C122.648,86.245 125.6,89.178 125.6,92.802C125.6,96.427 122.648,99.36 119,99.36ZM105.8,53.458C102.152,53.458 99.2,50.526 99.2,46.901L99.2,13.487L139.432,53.458L105.8,53.458Z" style="fill:rgb(39,170,227);"/>
            </g>
        </g>
    </g>
</svg>
