<?xml version="1.0" encoding="UTF-8" standalone="no"?>
<!DOCTYPE svg PUBLIC "-//W3C//DTD SVG 1.1//EN" "http://www.w3.org/Graphics/SVG/1.1/DTD/svg11.dtd">
<svg width="100%" height="100%" viewBox="0 0 40 40" version="1.1" xmlns="http://www.w3.org/2000/svg" xmlns:xlink="http://www.w3.org/1999/xlink" xml:space="preserve" xmlns:serif="http://www.serif.com/" style="fill-rule:evenodd;clip-rule:evenodd;stroke-linejoin:round;stroke-miterlimit:2;">
    <g transform="matrix(1.16831,0,0,1.16831,-2.49749,-4.74326)">
        <path d="M35.914,4.06L35.999,29.965C35.999,33.561 33.079,36.48 29.482,36.48C25.886,36.48 22.966,33.561 22.966,29.965C22.966,26.369 25.886,23.45 29.482,23.45C30.504,23.45 31.471,23.685 32.331,24.105L32.278,13.838L15.547,16.505L15.547,31.782C15.547,35.378 12.627,38.298 9.031,38.298C5.434,38.298 2.514,35.378 2.514,31.782C2.514,28.186 5.434,25.267 9.031,25.267C10.064,25.267 11.042,25.508 11.911,25.937L11.911,17.084L11.904,17.086L11.904,7.887L35.914,4.06Z" style="fill:rgb(223,240,254);"/>
        <path d="M11.911,18.084L11.904,7.887L35.914,4.06L35.999,29.965C35.999,33.561 33.079,36.48 29.482,36.48C25.886,36.48 22.966,33.561 22.966,29.965C22.966,26.369 25.886,23.45 29.482,23.45C30.504,23.45 31.471,23.685 32.331,24.105L32.278,13.838L15.547,16.505L15.547,31.782C15.547,35.378 12.627,38.298 9.031,38.298C5.434,38.298 2.514,35.378 2.514,31.782C2.514,28.186 5.434,25.267 9.031,25.267C10.064,25.267 11.042,25.508 11.911,25.937L11.911,18.084L12.911,17.084L12.911,25.937L12.923,27.73L11.468,26.834C10.733,26.471 9.905,26.267 9.031,26.267C5.986,26.267 3.514,28.738 3.514,31.782C3.514,34.826 5.986,37.298 9.031,37.298C12.075,37.298 14.547,34.826 14.547,31.782L14.547,15.652L33.344,12.635L33.344,13.835L33.331,24.099L33.344,25.728L31.893,25.004C31.165,24.648 30.347,24.45 29.482,24.45C26.438,24.45 23.966,26.921 23.966,29.965C23.966,33.009 26.438,35.48 29.482,35.48C32.527,35.48 34.999,33.009 34.999,29.965L34.918,5.231C34.918,5.231 12.904,8.74 12.904,8.74L12.911,17.084L11.911,18.084Z" style="fill:rgb(91,148,203);"/>
    </g>
</svg>
