<?xml version="1.0" encoding="UTF-8" standalone="no"?>
<!DOCTYPE svg PUBLIC "-//W3C//DTD SVG 1.1//EN" "http://www.w3.org/Graphics/SVG/1.1/DTD/svg11.dtd">
<svg width="100%" height="100%" viewBox="0 0 40 40" version="1.1" xmlns="http://www.w3.org/2000/svg" xmlns:xlink="http://www.w3.org/1999/xlink" xml:space="preserve" xmlns:serif="http://www.serif.com/" style="fill-rule:evenodd;clip-rule:evenodd;stroke-miterlimit:1.5;">
    <g transform="matrix(3.50131,0,0,3.48547,-49.6415,-66.7068)">
        <g id="Слой1">
            <path d="M15.858,29.759C16.892,28.767 17.361,28.221 18.861,24.727C19.468,23.313 19.741,21.621 19.848,20.893C20.068,19.407 18.846,19.119 18.758,20.452C18.684,21.56 19.423,23.833 20.545,25.579C21.364,26.853 22.452,27.799 23.258,28.044C25.45,28.711 25.926,27.011 23.836,26.792C22.59,26.661 21.124,26.826 19.833,27.092C17.934,27.484 16.267,27.918 15.308,28.706C13.882,29.879 14.908,30.671 15.858,29.759Z" style="fill:none;stroke:rgb(91,148,203);stroke-width:0.62px;"/>
        </g>
    </g>
</svg>
