<?xml version="1.0" encoding="UTF-8" standalone="no"?>
<!DOCTYPE svg PUBLIC "-//W3C//DTD SVG 1.1//EN" "http://www.w3.org/Graphics/SVG/1.1/DTD/svg11.dtd">
<svg width="100%" height="100%" viewBox="0 0 32 40" version="1.1" xmlns="http://www.w3.org/2000/svg" xmlns:xlink="http://www.w3.org/1999/xlink" xml:space="preserve" xmlns:serif="http://www.serif.com/" style="fill-rule:evenodd;clip-rule:evenodd;stroke-miterlimit:1.5;">
    <g transform="matrix(1,0,0,1,-4.49402,4.44089e-16)">
        <g id="Слой1" transform="matrix(0.941996,0,0,0.941996,-2.43685,-2.69975)">
            <g transform="matrix(0.98909,0,0,0.995428,0.240443,0.022558)">
                <path d="M40.48,13.401L30.583,2.856L7.196,2.856L7.196,45.515L40.48,45.515L40.48,13.401Z" style="fill:white;"/>
                <path d="M40.48,13.401L30.583,2.856L7.196,2.856L7.196,45.515L40.48,45.515L40.48,13.401ZM39.407,13.821L39.407,44.448C39.407,44.448 8.269,44.448 8.269,44.448C8.269,44.448 8.269,3.923 8.269,3.923C8.269,3.923 30.116,3.923 30.116,3.923L39.407,13.821Z" style="fill:rgb(91,148,203);"/>
            </g>
            <path d="M29.503,2.866L30.568,2.866L40.279,13.362L40.279,14.338L29.503,14.356L29.503,2.866Z" style="fill:rgb(223,240,254);"/>
            <path d="M29.503,2.866L30.568,2.866L40.279,13.362L40.279,14.338L29.503,14.356L29.503,2.866ZM30.565,13.293L38.756,13.279L30.565,4.426L30.565,13.293Z" style="fill:rgb(91,148,203);"/>
            <g transform="matrix(1.57645,0,0,1.57645,-6.78527,-13.7252)">
                <path d="M15.858,29.759C16.892,28.767 17.361,28.221 18.861,24.727C19.468,23.313 19.741,21.621 19.848,20.893C20.068,19.407 18.846,19.119 18.758,20.452C18.684,21.56 19.423,23.833 20.545,25.579C21.364,26.853 22.452,27.799 23.258,28.044C25.45,28.711 25.926,27.011 23.836,26.792C22.59,26.661 21.124,26.826 19.833,27.092C17.934,27.484 16.267,27.918 15.308,28.706C13.882,29.879 14.908,30.671 15.858,29.759Z" style="fill:none;stroke:rgb(91,148,203);stroke-width:0.62px;"/>
            </g>
        </g>
    </g>
</svg>
