<?xml version="1.0" encoding="UTF-8" standalone="no"?>
<!DOCTYPE svg PUBLIC "-//W3C//DTD SVG 1.1//EN" "http://www.w3.org/Graphics/SVG/1.1/DTD/svg11.dtd">
<svg viewBox="0 0 40 40" version="1.1" xmlns="http://www.w3.org/2000/svg" xmlns:xlink="http://www.w3.org/1999/xlink" xml:space="preserve" xmlns:serif="http://www.serif.com/" style="fill-rule:evenodd;clip-rule:evenodd;stroke-linecap:round;stroke-linejoin:round;stroke-miterlimit:1.5;">
    <g transform="matrix(1.054,0,0,1.054,-1.06906,-1.091)">
        <g transform="matrix(1.02165,0,0,1.0066,-0.758284,-0.179145)">
            <path d="M37.937,4.493C37.937,3.88 37.697,3.293 37.271,2.86C36.844,2.427 36.265,2.183 35.662,2.183C29.294,2.183 11.343,2.183 4.975,2.183C4.372,2.183 3.793,2.427 3.366,2.86C2.94,3.293 2.7,3.88 2.7,4.493C2.7,10.95 2.7,29.143 2.7,35.601C2.7,36.213 2.94,36.801 3.366,37.234C3.793,37.667 4.372,37.91 4.975,37.91C11.343,37.91 29.294,37.91 35.662,37.91C36.265,37.91 36.844,37.667 37.271,37.234C37.697,36.801 37.937,36.213 37.937,35.601C37.937,29.143 37.937,10.95 37.937,4.493Z" style="fill:rgb(152,204,253);stroke:rgb(71,136,199);stroke-width:0.99px;"/>
        </g>
        <g transform="matrix(1.06815,0,0,1.06815,-2.69051,-3.07398)">
            <circle cx="21.243" cy="21.602" r="13.419" style="fill:none;stroke:white;stroke-width:1.43px;"/>
        </g>
        <path d="M22.444,18.853L11.033,18.853L11.033,21.786L24.031,21.786C23.84,21.484 23.669,21.206 23.538,20.975C23.237,20.44 22.859,19.699 22.444,18.853ZM24.871,18.853C25.101,19.268 25.3,19.64 25.458,19.954C25.688,20.414 25.973,21.098 26.287,21.786L28.963,21.786L28.963,18.853L24.871,18.853Z" style="fill:white;"/>
        <g>
            <path d="M11.899,24.005L14.229,25.35L14.166,25.458C14.166,25.458 12.541,26.798 11.702,27.491C11.625,27.554 11.518,27.563 11.431,27.513C11.345,27.464 11.299,27.366 11.315,27.268C11.493,26.193 11.837,24.113 11.837,24.113L11.899,24.005ZM18.712,17.6L14.412,25.033L12.083,23.688L16.376,16.251L18.712,17.6ZM18.895,17.283L16.559,15.934L17.472,14.353C17.493,14.318 17.514,14.284 17.537,14.251L19.865,15.595C19.847,15.634 19.827,15.672 19.805,15.71C19.837,15.666 19.777,15.759 19.805,15.71L18.895,17.283ZM17.791,13.975C18.528,13.409 18.896,13.2 19.563,13.606C20.216,14.002 20.05,14.658 19.977,15.237L17.791,13.975Z" style="fill:white;"/>
            <g transform="matrix(0.866025,0.5,-0.518654,0.898336,9.86793,-7.12257)">
                <path d="M20.222,14.304L20.212,25.129C20.212,25.152 20.208,25.175 20.2,25.196L19.104,28.025C19.037,28.198 18.865,28.314 18.672,28.314C18.48,28.314 18.307,28.199 18.24,28.026C17.85,27.028 17.136,25.197 17.136,25.197C17.127,25.175 17.123,25.152 17.123,25.129L17.123,14.263C17.126,13.788 17.607,13.29 17.969,12.791C18.233,12.427 18.274,12.342 18.763,12.343C19.208,12.343 19.203,12.411 19.438,12.783C19.744,13.268 20.215,13.761 20.222,14.235C20.224,14.25 20.225,14.267 20.224,14.284C20.224,14.291 20.223,14.297 20.222,14.304ZM19.822,14.273L19.812,25.094C19.812,25.094 18.729,27.89 18.729,27.89C18.72,27.913 18.697,27.928 18.672,27.928C18.646,27.928 18.623,27.913 18.614,27.89L17.523,25.094L17.523,14.265C17.526,13.851 17.655,13.225 17.969,12.791C18.157,12.532 18.414,12.342 18.763,12.343C19.064,12.343 19.279,12.531 19.438,12.783C19.715,13.222 19.822,13.854 19.822,14.273Z" style="fill:rgb(152,204,253);"/>
            </g>
        </g>
        <g>
            <path d="M26.867,22.966L25.247,23.827C26.279,25.789 26.528,26.995 26.808,27.311C27.513,28.108 28.226,27.652 28.296,27.611C28.356,27.577 29.148,27.239 28.883,26.208C28.777,25.799 27.916,24.919 26.867,22.966ZM25.71,20.49L23.841,21.483C24.209,22.078 24.693,22.816 25.078,23.512L26.7,22.649C26.338,21.942 25.997,21.127 25.71,20.49ZM23.656,21.177L25.56,20.165C25.525,20.09 25.491,20.02 25.458,19.954C24.25,17.549 20.602,11.69 19.58,10.057C19.429,9.815 19.113,9.734 18.861,9.867C18.61,10.001 18.504,10.307 18.62,10.568C19.402,12.328 22.219,18.629 23.538,20.975C23.574,21.039 23.614,21.106 23.656,21.177Z" style="fill:white;"/>
            <g transform="matrix(2.27278,-1.20846,1.20846,2.27278,-52.9849,5.05801)">
                <path d="M23.767,14.753C23.656,14.753 23.564,14.839 23.557,14.949C23.504,15.696 23.321,18.371 23.346,19.416C23.353,19.714 23.409,20.205 23.412,20.622C23.417,21.538 23.272,22.021 23.311,22.186C23.408,22.588 23.736,22.562 23.767,22.56C23.794,22.559 24.128,22.588 24.224,22.186C24.264,22.021 24.119,21.538 24.124,20.622C24.126,20.205 24.183,19.714 24.19,19.416C24.215,18.371 24.032,15.696 23.979,14.949C23.971,14.839 23.878,14.753 23.767,14.753Z" style="fill:none;stroke:rgb(152,204,253);stroke-width:0.16px;"/>
            </g>
        </g>
    </g>
</svg>
