<?xml version="1.0" encoding="UTF-8" standalone="no"?><!DOCTYPE svg PUBLIC "-//W3C//DTD SVG 1.1//EN" "http://www.w3.org/Graphics/SVG/1.1/DTD/svg11.dtd"><svg viewBox="0 0 834 834" version="1.1" xmlns="http://www.w3.org/2000/svg" xmlns:xlink="http://www.w3.org/1999/xlink" xml:space="preserve" xmlns:serif="http://www.serif.com/" style="fill-rule:evenodd;clip-rule:evenodd;stroke-linejoin:round;stroke-miterlimit:2;"><g><g id="Слой1"><rect x="0" y="0" width="833.333" height="833.333" style="fill:url(#_Linear1);"/></g><g><g><g><path d="M274.896,244.403l90.914,-22.312c0,0 -55.264,49.772 -90.914,22.312Z" style="fill:#95cb08;"/><path d="M365.612,211.234c0,-0 -130.686,-9.769 -130.714,-9.396c-0.027,0.373 18.921,26.632 52.203,26.461c35.74,-0.184 78.511,-17.065 78.511,-17.065Z" style="fill:#95cb08;"/><path d="M365.612,202.283l-157.894,-60.908c-0,-0 6.276,25.15 31.295,42.651c10.301,7.206 29.979,14.256 55.196,15.734c33.466,1.961 71.282,2.416 71.403,2.523Z" style="fill:#95cb08;"/><path d="M404.365,227.53l-23.193,-36.024c0,-0 -170.252,-109.282 -171.747,-109.15c-1.496,0.131 -6.143,41.655 37.382,62.775c0,0 93.782,38.174 119.522,52.036c2.896,1.559 6.124,3.846 9.414,6.484c12.31,9.868 28.622,23.879 28.622,23.879Z" style="fill:#95cb08;"/></g><g id="Layer-1" serif:id="Layer 1"><path d="M400.318,197.918c-0.017,0.077 1.655,-3.285 2.598,-4.467c6.287,-10.111 16.343,-11.782 19.372,-11.889c3.02,-0.118 6.393,0.261 9.812,1.157c1.713,0.431 3.446,0.966 5.178,1.601c0.87,0.301 1.732,0.649 2.6,0.998c0.446,0.171 0.839,0.353 1.254,0.531c0.414,0.176 0.825,0.357 1.223,0.553c3.246,1.504 6.259,3.393 9.149,5.718c2.882,2.325 6.596,6.068 6.596,6.068l-10.084,6.841l0.149,0.304l16.428,-4.184c1.478,-0.377 2.614,-1.692 2.54,-3.17c-0.021,-0.422 -0.124,-0.811 -0.291,-1.157l-0.632,-1.281c-1.956,-3.554 -4.014,-7.194 -6.615,-10.715c-2.575,-3.525 -5.693,-6.905 -9.194,-9.811c-0.431,-0.374 -0.875,-0.729 -1.322,-1.078c-0.443,-0.35 -0.897,-0.715 -1.333,-1.036c-0.878,-0.666 -1.757,-1.334 -2.678,-1.971c-1.818,-1.294 -3.733,-2.522 -5.753,-3.67c-4.022,-2.3 -8.511,-4.3 -13.597,-5.564c-5.064,-1.241 -10.843,-1.629 -16.676,-0.538c-5.811,1.089 -11.392,3.689 -16.572,6.829c-6.106,3.702 -11.213,10.311 -13.264,15.238c-0.054,0.131 21.112,14.693 21.112,14.693Z" style="fill:#fff;fill-rule:nonzero;"/><path d="M366.605,196.991c-0,0 10.833,8.872 14.919,13.065c3.563,3.657 8.663,8.009 12.136,10.686c4.824,3.719 11.469,8.848 16.764,12.304c5.303,3.435 10.908,6.833 17.321,9.679c3.191,1.41 6.56,2.703 10.022,3.682c3.448,0.987 6.945,1.782 10.344,2.313c28.861,3.08 52.781,22.279 61.237,46.591c3.748,8.934 6.649,18.368 8.801,28.123c1.092,4.877 1.97,9.835 2.74,14.86c0.197,1.256 0.37,2.516 0.529,3.78l0.492,3.805c0.306,2.544 0.574,5.102 0.86,7.681c0.391,-1.241 0.758,-2.489 1.117,-3.74c0.347,-1.254 0.681,-2.514 0.988,-3.778c0.636,-2.528 1.177,-5.079 1.648,-7.647c0.989,-5.137 1.633,-10.35 1.992,-15.614c0.724,-10.524 0.219,-21.267 -1.731,-31.947c-0.477,-2.673 -1.076,-5.331 -1.737,-7.986c-0.657,-2.659 -1.427,-5.3 -2.295,-7.922c-1.741,-5.241 -3.884,-10.406 -6.486,-15.401c-2.596,-4.997 -5.629,-9.835 -9.145,-14.408c-1.757,-2.288 -3.638,-4.509 -5.653,-6.646c-0.01,-0.011 -0.021,-0.022 -0.033,-0.035c-6.478,-6.799 -15.573,-10.903 -25.268,-11.381c-12.727,-0.624 -32.279,-2.954 -51.429,-10.629c-1.351,-0.542 -2.645,-1.205 -3.922,-1.888c-4.498,-2.407 -9.448,-4.466 -13.824,-7.272c-4.995,-3.216 -9.99,-6.54 -14.985,-9.86l-30.07,-20.04l-3.768,-2.505l-3.873,-2.522l-3.916,-2.477l-3.956,-2.426c-5.315,-3.176 -16.219,-9.614 -21.422,-12.995c-10.929,-7.102 -25.208,-15.084 -25.208,-15.084" style="fill:#fff;fill-rule:nonzero;"/><path d="M433.264,506.649c-1.269,3.929 -2.742,7.733 -4.461,11.236c-0.864,1.737 -1.792,3.406 -2.787,4.874c-0.491,0.751 -8.64,12.459 -13.731,20.907c0,0 -18.539,24.81 -19.674,27.011c-23.958,36.614 -21.48,88.939 -21.508,93.954c-0.034,5.015 0.108,10.026 0.423,15.02c0.163,2.498 0.337,4.99 0.553,7.479c0.239,2.488 0.501,4.972 0.797,7.448c1.211,9.905 3.006,19.715 5.461,29.336c0.593,2.406 1.289,4.795 1.961,7.177c0.722,2.374 1.441,4.742 2.246,7.087c0.017,0.046 0.033,0.094 0.048,0.14c1.124,3.301 5.755,2.608 5.908,-0.879c0.184,-4.152 0.43,-8.38 0.753,-11.46c0.903,-8.561 2.205,-17.026 3.892,-25.399c1.662,-8.376 3.697,-16.655 5.94,-24.867c2.297,-8.199 4.765,-16.336 7.284,-24.472c5.014,-16.271 10.444,-32.534 17.384,-48.122c1.738,-3.892 3.505,-7.773 5.329,-11.623c1.848,-3.839 3.715,-7.667 5.644,-11.463c3.88,-7.577 7.89,-15.081 12.032,-22.505c4.145,-7.423 8.352,-14.804 12.633,-22.14c4.238,-7.393 8.639,-14.507 12.925,-22.225c8.428,-15.29 15.104,-31.453 21.167,-47.75c5.975,-16.343 11.465,-32.836 15.952,-49.644c2.251,-8.399 4.294,-16.856 6.111,-25.366c1.788,-8.515 3.448,-17.063 4.67,-25.688c-1.192,4.166 -2.433,8.31 -3.695,12.445c-1.248,4.138 -2.546,8.256 -3.87,12.362c-2.612,8.223 -5.361,16.389 -8.17,24.517c-5.656,16.235 -11.53,32.37 -18.475,47.96c-3.429,7.813 -7.1,15.489 -10.951,23.035c-3.85,7.548 -7.853,14.98 -12.097,22.224c-2.105,3.645 -4.267,7.158 -6.515,10.885c-2.205,3.696 -4.404,7.398 -6.538,11.14c-4.268,7.486 -8.375,15.079 -12.305,22.774c-7.877,15.382 -15.426,30.609 -23.226,47.23c-9.072,20.312 -15.606,42.38 -25.109,69.871c-0.313,-5.965 -5.42,-49.663 12.608,-88.01c6.651,-18.682 32.838,-45.146 37.472,-57.27c2.172,-4.231 3.906,-8.531 5.396,-12.863c1.498,-4.331 2.736,-8.696 3.852,-13.074c1.126,-4.378 2.07,-8.774 2.935,-13.177c3.392,-17.617 6.679,-42.229 7.941,-59.945" style="fill:#fff;fill-rule:nonzero;"/><path d="M446.598,281.929c4.138,2.332 8.428,6.205 11.654,9.292c7.338,5.915 11.654,14.785 13.812,20.698c0.893,2.045 1.649,4.22 2.475,6.351c0.399,1.069 1.41,4.209 2.273,8.012c0.178,-1.175 0.521,-3.837 0.59,-5.022c0.006,-0.589 0.024,-1.183 0.016,-1.774c-0.009,-0.593 0.011,-1.191 -0.046,-1.779c-0.153,-2.364 -0.471,-4.737 -1.054,-7.059c-0.536,-2.336 -2.527,-9.712 -5.549,-13.935c-4.316,-7.181 -11.654,-10.983 -16.974,-13.115c-2.449,-0.825 -4.794,-1.442 -7.197,-1.669" style="fill:#fff;fill-rule:nonzero;"/><path d="M522.532,408.992c-0,0 12.094,21.085 15.364,27.013c3.278,5.919 15.027,30.393 17.735,36.746c7.338,15.535 15.55,42.071 16.986,57.48l0.135,2.49l0.064,2.47l-0.006,2.443l-0.093,2.6l-0.05,0.138c-0.641,1.775 -1.772,3.104 -3.111,3.657c-0.642,0.265 -1.179,0.488 -1.179,0.488c-2.581,1.024 -5.183,2.026 -7.823,2.952c-2.63,0.967 -5.297,1.861 -7.977,2.779l-8.098,2.748c-5.436,1.814 -10.919,3.755 -16.4,5.895c-5.482,2.133 -10.954,4.53 -16.349,7.299c-10.797,5.499 -21.24,12.595 -30.879,21.298c-9.684,8.608 -18.526,18.849 -26.629,29.956c9.266,-9.067 19.079,-15.899 29.13,-22.329c32.955,-17.628 73.458,-23.809 88.315,-28.794l2.125,-0.647l2.336,-0.763c0.901,-0.344 1.858,-0.754 2.922,-1.367c1.059,-0.614 2.225,-1.413 3.447,-2.626c1.209,-1.183 2.46,-2.83 3.437,-4.699c0.996,-1.866 1.694,-3.862 2.173,-5.661c0.475,-1.803 0.763,-3.453 0.962,-4.943c0.097,-0.741 0.179,-1.459 0.242,-2.144l0.085,-0.967l0.062,-0.802l0.24,-3.312l0.144,-3.475l0.044,-3.448l-0.051,-3.415c-0.261,-9.068 -1.393,-17.724 -2.955,-26.007c-0.777,-4.146 -1.691,-8.189 -2.696,-12.148c-1.002,-3.963 -2.088,-7.848 -3.241,-11.668c-2.328,-7.615 -4.882,-15.005 -7.673,-22.133c-2.777,-7.148 -5.738,-14.082 -8.826,-20.863c-3.104,-6.767 -6.347,-13.362 -9.692,-19.833c-3.359,-6.455 -6.843,-12.755 -10.424,-18.949c-1.791,-3.096 -3.611,-6.16 -5.463,-9.201c-0.932,-1.515 -1.875,-3.018 -2.831,-4.521l-1.447,-2.258l-7.545,-12.892l-4.51,41.413Z" style="fill:#fff;fill-rule:nonzero;"/></g></g></g></g><defs><linearGradient id="_Linear1" x1="0" y1="0" x2="1" y2="0" gradientUnits="userSpaceOnUse" gradientTransform="matrix(12.9885,833.333,-833.333,12.9885,171.795,-1.20792e-12)"><stop offset="0" style="stop-color:#107fb0;stop-opacity:1"/><stop offset="1" style="stop-color:#1e548d;stop-opacity:1"/></linearGradient></defs></svg>