<?xml version="1.0" encoding="UTF-8" standalone="no"?>
<!DOCTYPE svg PUBLIC "-//W3C//DTD SVG 1.1//EN" "http://www.w3.org/Graphics/SVG/1.1/DTD/svg11.dtd">
<svg width="100%" height="100%" viewBox="0 0 4167 4167" version="1.1" xmlns="http://www.w3.org/2000/svg" xmlns:xlink="http://www.w3.org/1999/xlink" xml:space="preserve" xmlns:serif="http://www.serif.com/" style="fill-rule:evenodd;clip-rule:evenodd;stroke-linejoin:round;stroke-miterlimit:2;">
    <g>
        <g>
            <g>
                <path d="M1364.06,1070.41L1899.93,938.902C1899.93,938.902 1574.19,1232.27 1364.06,1070.41Z" style="fill:rgb(149,203,8);"/>
                <path d="M1898.76,874.908C1898.76,874.908 1128.47,817.331 1128.31,819.529C1128.14,821.728 1239.83,976.5 1436,975.492C1646.66,974.41 1898.76,874.908 1898.76,874.908Z" style="fill:rgb(149,203,8);"/>
                <path d="M1898.76,822.148L968.099,463.145C968.099,463.145 1005.09,611.387 1152.56,714.543C1213.27,757.015 1329.26,798.566 1477.9,807.278C1675.15,818.84 1898.05,821.52 1898.76,822.148Z" style="fill:rgb(149,203,8);"/>
                <path d="M2127.18,970.962L1990.48,758.628C1990.48,758.628 986.976,114.502 978.156,115.275C969.341,116.047 941.949,360.8 1198.5,485.288C1198.5,485.288 1751.27,710.292 1902.98,791.994C1920.05,801.186 1939.08,814.665 1958.47,830.214C2031.03,888.377 2127.18,970.962 2127.18,970.962L2127.18,970.962Z" style="fill:rgb(149,203,8);"/>
            </g>
            <g id="Layer-1" serif:id="Layer 1">
                <path d="M2103.32,796.424C2103.22,796.875 2113.08,777.061 2118.63,770.094C2155.69,710.498 2214.96,700.649 2232.82,700.016C2250.62,699.321 2270.49,701.556 2290.65,706.834C2300.75,709.377 2310.96,712.531 2321.17,716.271C2326.3,718.046 2331.38,720.101 2336.5,722.155C2339.12,723.167 2341.44,724.235 2343.89,725.284C2346.33,726.321 2348.75,727.388 2351.1,728.545C2370.23,737.408 2387.99,748.543 2405.02,762.251C2422.01,775.953 2443.9,798.016 2443.9,798.016L2384.46,838.339L2385.34,840.129L2482.17,815.466C2490.88,813.246 2497.58,805.494 2497.14,796.782C2497.02,794.295 2496.41,792 2495.43,789.962L2491.7,782.413C2480.17,761.466 2468.04,740.008 2452.71,719.257C2437.54,698.481 2419.16,678.558 2398.52,661.427C2395.98,659.226 2393.37,657.133 2390.73,655.073C2388.11,653.01 2385.44,650.858 2382.87,648.965C2377.7,645.043 2372.51,641.102 2367.08,637.35C2356.37,629.72 2345.08,622.485 2333.18,615.719C2309.47,602.162 2283.01,590.374 2253.04,582.921C2223.19,575.606 2189.12,573.324 2154.74,579.753C2120.49,586.17 2087.59,601.494 2057.06,620.006C2021.07,641.826 1990.97,680.778 1978.88,709.819C1978.57,710.589 2103.32,796.424 2103.32,796.424Z" style="fill:rgb(57,135,169);fill-rule:nonzero;"/>
                <path d="M1904.61,790.962C1904.61,790.962 1968.46,843.252 1992.55,867.969C2013.55,889.522 2043.61,915.171 2064.08,930.954C2092.51,952.872 2131.68,983.104 2162.89,1003.48C2194.15,1023.72 2227.18,1043.75 2264.98,1060.52C2283.79,1068.84 2303.65,1076.46 2324.05,1082.23C2344.38,1088.04 2364.99,1092.73 2385.03,1095.86C2555.13,1114.01 2696.13,1227.18 2745.97,1370.48C2768.06,1423.13 2785.16,1478.74 2797.84,1536.24C2804.28,1564.99 2809.46,1594.21 2813.99,1623.83C2815.15,1631.23 2816.17,1638.66 2817.11,1646.11L2820.01,1668.54C2821.81,1683.53 2823.39,1698.61 2825.08,1713.81C2827.38,1706.49 2829.55,1699.14 2831.66,1691.76C2833.71,1684.37 2835.68,1676.95 2837.49,1669.49C2841.23,1654.6 2844.42,1639.56 2847.2,1624.42C2853.03,1594.14 2856.83,1563.41 2858.94,1532.39C2863.21,1470.36 2860.23,1407.04 2848.74,1344.09C2845.93,1328.34 2842.4,1312.67 2838.5,1297.02C2834.63,1281.35 2830.09,1265.78 2824.97,1250.32C2814.71,1219.43 2802.08,1188.99 2786.74,1159.55C2771.44,1130.09 2753.57,1101.58 2732.84,1074.62C2722.49,1061.14 2711.4,1048.05 2699.52,1035.45C2699.46,1035.39 2699.4,1035.32 2699.32,1035.24C2661.15,995.168 2607.54,970.977 2550.39,968.164C2475.38,964.483 2360.13,950.75 2247.26,905.511C2239.3,902.319 2231.67,898.411 2224.14,894.384C2197.63,880.197 2168.45,868.063 2142.66,851.524C2113.22,832.566 2083.78,812.973 2054.33,793.408L1877.1,675.285L1854.89,660.518L1832.06,645.655L1808.98,631.053L1785.66,616.755C1754.33,598.038 1690.06,560.091 1659.39,540.16C1594.98,498.302 1510.81,451.252 1510.81,451.252" style="fill:rgb(57,135,169);fill-rule:nonzero;"/>
                <path d="M2297.52,2616.15C2290.04,2639.31 2281.36,2661.73 2271.23,2682.38C2266.13,2692.61 2260.66,2702.45 2254.8,2711.1C2251.91,2715.53 2203.88,2784.54 2173.87,2834.34C2173.87,2834.34 2064.59,2980.57 2057.91,2993.54C1916.69,3209.35 1931.3,3517.77 1931.13,3547.33C1930.93,3576.88 1931.77,3606.42 1933.63,3635.86C1934.59,3650.58 1935.61,3665.27 1936.88,3679.94C1938.29,3694.6 1939.84,3709.25 1941.58,3723.84C1948.72,3782.22 1959.3,3840.04 1973.77,3896.75C1977.27,3910.93 1981.37,3925.02 1985.33,3939.06C1989.59,3953.05 1993.82,3967.01 1998.57,3980.83C1998.66,3981.1 1998.76,3981.38 1998.85,3981.65C2005.47,4001.11 2032.77,3997.02 2033.67,3976.47C2034.76,3952 2036.21,3927.08 2038.11,3908.92C2043.43,3858.47 2051.11,3808.57 2061.05,3759.22C2070.85,3709.85 2082.84,3661.05 2096.06,3612.65C2109.6,3564.32 2124.15,3516.36 2139,3468.41C2168.55,3372.5 2200.55,3276.64 2241.46,3184.76C2251.7,3161.83 2262.12,3138.95 2272.87,3116.25C2283.76,3093.62 2294.77,3071.06 2306.14,3048.69C2329.01,3004.03 2352.64,2959.8 2377.06,2916.04C2401.49,2872.29 2426.28,2828.78 2451.51,2785.55C2476.5,2741.97 2502.44,2700.03 2527.7,2654.54C2577.38,2564.42 2616.73,2469.15 2652.47,2373.09C2687.68,2276.77 2720.04,2179.55 2746.49,2080.48C2759.76,2030.98 2771.8,1981.13 2782.51,1930.97C2793.05,1880.78 2802.83,1830.4 2810.03,1779.56C2803.01,1804.12 2795.69,1828.54 2788.25,1852.92C2780.9,1877.3 2773.25,1901.58 2765.44,1925.78C2750.05,1974.25 2733.84,2022.38 2717.29,2070.28C2683.95,2165.98 2649.33,2261.08 2608.39,2352.97C2588.18,2399.02 2566.54,2444.27 2543.85,2488.75C2521.16,2533.24 2497.56,2577.04 2472.55,2619.74C2460.13,2641.22 2447.39,2661.93 2434.14,2683.9C2421.14,2705.68 2408.18,2727.5 2395.61,2749.56C2370.45,2793.68 2346.24,2838.43 2323.08,2883.79C2276.65,2974.46 2232.16,3064.21 2186.18,3162.18C2132.71,3281.9 2094.2,3411.97 2038.18,3574.01C2036.33,3538.85 2006.24,3281.29 2112.5,3055.26C2151.7,2945.14 2306.05,2789.16 2333.36,2717.7C2346.16,2692.76 2356.38,2667.41 2365.17,2641.88C2374,2616.35 2381.3,2590.63 2387.87,2564.82C2394.51,2539.01 2400.07,2513.11 2405.17,2487.16C2425.17,2383.32 2444.54,2238.25 2451.98,2133.83" style="fill:rgb(57,135,169);fill-rule:nonzero;"/>
                <path d="M2376.11,1291.6C2400.5,1305.35 2425.79,1328.18 2444.8,1346.37C2488.05,1381.23 2513.49,1433.52 2526.21,1468.37C2531.47,1480.42 2535.93,1493.24 2540.8,1505.8C2543.15,1512.1 2549.11,1530.61 2554.2,1553.03C2555.24,1546.1 2557.27,1530.41 2557.67,1523.43C2557.71,1519.95 2557.82,1516.46 2557.77,1512.97C2557.72,1509.48 2557.83,1505.95 2557.49,1502.48C2556.59,1488.55 2554.72,1474.57 2551.28,1460.88C2548.13,1447.11 2536.39,1403.63 2518.58,1378.74C2493.14,1336.41 2449.89,1314.01 2418.53,1301.44C2404.09,1296.58 2390.27,1292.94 2376.11,1291.6" style="fill:rgb(57,135,169);fill-rule:nonzero;"/>
                <path d="M2823.68,2040.54C2823.68,2040.54 2894.96,2164.82 2914.24,2199.76C2933.56,2234.64 3002.81,2378.9 3018.77,2416.35C3062.03,2507.91 3110.43,2664.32 3118.89,2755.14L3119.69,2769.82L3120.07,2784.38L3120.03,2798.78L3119.48,2814.1L3119.18,2814.92C3115.41,2825.38 3108.74,2833.21 3100.85,2836.47C3097.07,2838.03 3093.9,2839.35 3093.9,2839.35C3078.68,2845.38 3063.35,2851.29 3047.79,2856.75C3032.29,2862.45 3016.57,2867.72 3000.77,2873.13L2953.04,2889.33C2921,2900.02 2888.68,2911.46 2856.38,2924.07C2824.07,2936.64 2791.81,2950.77 2760.01,2967.1C2696.37,2999.5 2634.82,3041.33 2578.01,3092.63C2520.93,3143.37 2468.81,3203.73 2421.05,3269.19C2475.66,3215.76 2533.5,3175.48 2592.74,3137.58C2786.99,3033.68 3025.72,2997.25 3113.29,2967.87L3125.82,2964.05L3139.59,2959.55C3144.9,2957.53 3150.54,2955.11 3156.81,2951.5C3163.05,2947.88 3169.92,2943.17 3177.12,2936.02C3184.25,2929.05 3191.63,2919.34 3197.39,2908.32C3203.26,2897.33 3207.37,2885.56 3210.2,2874.96C3212.99,2864.33 3214.69,2854.61 3215.86,2845.82C3216.44,2841.45 3216.92,2837.22 3217.29,2833.18L3217.79,2827.48L3218.16,2822.76L3219.57,2803.24L3220.42,2782.76L3220.68,2762.43L3220.38,2742.3C3218.84,2688.85 3212.17,2637.83 3202.96,2589.01C3198.38,2564.57 3192.99,2540.74 3187.07,2517.41C3181.16,2494.05 3174.76,2471.15 3167.97,2448.63C3154.24,2403.75 3139.19,2360.19 3122.74,2318.18C3106.38,2276.05 3088.92,2235.18 3070.72,2195.21C3052.43,2155.32 3033.31,2116.45 3013.59,2078.31C2993.79,2040.26 2973.26,2003.13 2952.15,1966.62C2941.6,1948.37 2930.87,1930.31 2919.95,1912.39C2914.45,1903.46 2908.9,1894.6 2903.26,1885.74L2894.73,1872.43L2850.26,1796.44L2823.68,2040.54Z" style="fill:rgb(57,135,169);fill-rule:nonzero;"/>
            </g>
        </g>
    </g>
</svg>
