<?xml version="1.0" encoding="UTF-8" standalone="no"?>
<!DOCTYPE svg PUBLIC "-//W3C//DTD SVG 1.1//EN" "http://www.w3.org/Graphics/SVG/1.1/DTD/svg11.dtd">
<svg width="100%" height="100%" viewBox="0 0 48 48" version="1.1" xmlns="http://www.w3.org/2000/svg" xmlns:xlink="http://www.w3.org/1999/xlink" xml:space="preserve" style="fill-rule:evenodd;clip-rule:evenodd;stroke-linejoin:round;stroke-miterlimit:2;">
    <g id="Слой1">
        <g transform="matrix(1,0,0,1,-1.14095,-1.19803)">
            <path d="M23.827,6.59C23.827,5.91 23.557,5.258 23.076,4.778C22.596,4.297 21.944,4.027 21.264,4.027L6.417,4.027C5.738,4.027 5.086,4.297 4.605,4.778C4.124,5.258 3.854,5.91 3.854,6.59L3.854,21.437C3.854,22.116 4.124,22.768 4.605,23.249C5.086,23.73 5.738,24 6.417,24L21.264,24C21.944,24 22.596,23.73 23.076,23.249C23.557,22.768 23.827,22.116 23.827,21.437L23.827,6.59Z" style="fill:rgb(18,145,221);"/>
        </g>
        <g transform="matrix(1,0,0,1,-1.14095,21.3888)">
            <path d="M23.827,6.59C23.827,5.91 23.557,5.258 23.076,4.778C22.596,4.297 21.944,4.027 21.264,4.027L6.417,4.027C5.738,4.027 5.086,4.297 4.605,4.778C4.124,5.258 3.854,5.91 3.854,6.59L3.854,21.437C3.854,22.116 4.124,22.768 4.605,23.249C5.086,23.73 5.738,24 6.417,24L21.264,24C21.944,24 22.596,23.73 23.076,23.249C23.557,22.768 23.827,22.116 23.827,21.437L23.827,6.59Z" style="fill:rgb(161,52,210);"/>
        </g>
        <g transform="matrix(1,0,0,1,21.4597,-1.19803)">
            <path d="M23.827,6.59C23.827,5.91 23.557,5.258 23.076,4.778C22.596,4.297 21.944,4.027 21.264,4.027L6.417,4.027C5.738,4.027 5.086,4.297 4.605,4.778C4.124,5.258 3.854,5.91 3.854,6.59L3.854,21.437C3.854,22.116 4.124,22.768 4.605,23.249C5.086,23.73 5.738,24 6.417,24L21.264,24C21.944,24 22.596,23.73 23.076,23.249C23.557,22.768 23.827,22.116 23.827,21.437L23.827,6.59Z" style="fill:rgb(237,66,109);"/>
        </g>
        <g transform="matrix(1,0,0,1,21.4597,21.3888)">
            <path d="M23.827,6.59C23.827,5.91 23.557,5.258 23.076,4.778C22.596,4.297 21.944,4.027 21.264,4.027L6.417,4.027C5.738,4.027 5.086,4.297 4.605,4.778C4.124,5.258 3.854,5.91 3.854,6.59L3.854,21.437C3.854,22.116 4.124,22.768 4.605,23.249C5.086,23.73 5.738,24 6.417,24L21.264,24C21.944,24 22.596,23.73 23.076,23.249C23.557,22.768 23.827,22.116 23.827,21.437L23.827,6.59Z" style="fill:rgb(25,159,89);"/>
        </g>
        <g transform="matrix(1.14678,0,0,1.22383,-12.3524,-3.37976)">
            <path d="M40.88,8.514C41.031,8.246 41.327,8.079 41.65,8.079C41.973,8.079 42.27,8.246 42.421,8.514C43.674,10.731 46.132,15.081 47.322,17.188C47.465,17.441 47.456,17.746 47.299,17.992C47.141,18.237 46.857,18.387 46.552,18.387C44.108,18.387 39.193,18.387 36.749,18.387C36.443,18.387 36.159,18.237 36.002,17.992C35.844,17.746 35.835,17.441 35.978,17.188C37.168,15.081 39.627,10.731 40.88,8.514Z" style="fill:rgb(254,190,9);"/>
        </g>
        <g transform="matrix(1.15662,0,0,1,5.35531,-1.35302)">
            <path d="M5.932,7.416C6.192,7.25 6.508,7.25 6.768,7.416C7.78,8.063 10.36,9.709 11.402,10.374C11.678,10.55 11.849,10.885 11.849,11.249C11.849,12.573 11.849,15.764 11.849,17.087C11.849,17.451 11.678,17.787 11.402,17.963C10.36,18.628 7.78,20.274 6.768,20.92C6.508,21.086 6.192,21.086 5.932,20.92C4.919,20.274 2.34,18.628 1.298,17.963C1.022,17.787 0.851,17.451 0.851,17.087C0.851,15.764 0.851,12.573 0.851,11.249C0.851,10.885 1.022,10.55 1.298,10.374C2.34,9.709 4.919,8.063 5.932,7.416Z" style="fill:rgb(254,190,9);"/>
        </g>
        <g transform="matrix(1.08254,0,0,1.06619,-5.24655,-3.67751)">
            <path d="M15.93,29.879C16.289,29.52 16.866,29.52 17.226,29.879C18.625,31.278 21.915,34.568 23.332,35.985C23.508,36.161 23.607,36.402 23.607,36.653C23.607,36.905 23.508,37.145 23.332,37.322C21.915,38.738 18.625,42.028 17.226,43.427C16.866,43.787 16.289,43.787 15.93,43.427C14.531,42.028 11.241,38.738 9.824,37.322C9.648,37.145 9.548,36.905 9.548,36.653C9.548,36.402 9.648,36.161 9.824,35.985C11.241,34.568 14.531,31.278 15.93,29.879Z" style="fill:rgb(254,190,9);"/>
        </g>
        <g transform="matrix(1.16844,0,0,1.09463,-10.1236,-6.35373)">
            <path d="M38.178,32.196C38.295,31.836 38.613,31.594 38.971,31.594C39.328,31.594 39.646,31.836 39.763,32.196C40.142,33.364 40.565,34.665 40.805,35.402C40.92,35.759 41.235,35.997 41.588,35.997C42.312,35.997 43.591,35.997 44.78,35.997C45.155,35.997 45.487,36.259 45.598,36.642C45.708,37.025 45.572,37.44 45.261,37.666C44.339,38.336 43.358,39.049 42.775,39.472C42.466,39.697 42.336,40.116 42.459,40.493C42.689,41.201 43.074,42.387 43.431,43.485C43.552,43.857 43.435,44.27 43.142,44.51C42.849,44.749 42.446,44.761 42.141,44.54C41.143,43.815 40.043,43.016 39.437,42.575C39.156,42.371 38.786,42.371 38.504,42.575C37.898,43.016 36.799,43.815 35.801,44.54C35.495,44.761 35.092,44.749 34.799,44.51C34.506,44.27 34.389,43.857 34.51,43.485C34.867,42.387 35.252,41.201 35.482,40.493C35.605,40.116 35.475,39.697 35.166,39.472C34.583,39.049 33.602,38.336 32.68,37.666C32.369,37.44 32.233,37.025 32.344,36.642C32.454,36.259 32.786,35.997 33.161,35.997C34.35,35.997 35.629,35.997 36.353,35.997C36.707,35.997 37.021,35.759 37.137,35.402C37.376,34.665 37.799,33.364 38.178,32.196Z" style="fill:rgb(254,190,9);"/>
        </g>
    </g>
</svg>
