<?xml version="1.0" encoding="UTF-8" standalone="no"?>
<!DOCTYPE svg PUBLIC "-//W3C//DTD SVG 1.1//EN" "http://www.w3.org/Graphics/SVG/1.1/DTD/svg11.dtd">
<svg viewBox="0 0 48 48" version="1.1" xmlns="http://www.w3.org/2000/svg" xmlns:xlink="http://www.w3.org/1999/xlink" xml:space="preserve" xmlns:serif="http://www.serif.com/" style="fill-rule:evenodd;clip-rule:evenodd;stroke-linejoin:round;stroke-miterlimit:2;">
    <g transform="matrix(0.929119,0,0,0.911157,3.45668,4.21602)">
        <rect x="-3.72" y="-4.627" width="51.662" height="52.68" style="fill:white;"/>
    </g>
    <g>
        <g transform="matrix(0.913323,0,0,1.03544,0.471198,-1.41553)">
            <path d="M39.668,36.432L7.477,36.432C7.187,36.432 6.908,36.534 6.703,36.715C6.497,36.896 6.382,37.141 6.382,37.398C6.382,37.888 6.382,38.482 6.382,38.973C6.382,39.229 6.497,39.475 6.703,39.656C6.908,39.837 7.187,39.939 7.477,39.939C13.227,39.939 39.668,39.939 39.668,39.939L39.668,36.432Z" style="fill:rgb(66,163,239);"/>
        </g>
        <g transform="matrix(0.913323,0,0,1.03544,0.553177,-8.89177)">
            <path d="M39.668,36.432L7.477,36.432C7.187,36.432 6.908,36.534 6.703,36.715C6.497,36.896 6.382,37.141 6.382,37.398C6.382,37.888 6.382,38.482 6.382,38.973C6.382,39.229 6.497,39.475 6.703,39.656C6.908,39.837 7.187,39.939 7.477,39.939C13.227,39.939 39.668,39.939 39.668,39.939L39.668,36.432Z" style="fill:rgb(66,163,239);"/>
        </g>
        <g transform="matrix(0.913323,0,0,1.03544,0.635155,-16.368)">
            <path d="M39.668,36.432L7.477,36.432C7.187,36.432 6.908,36.534 6.703,36.715C6.497,36.896 6.382,37.141 6.382,37.398C6.382,37.888 6.382,38.482 6.382,38.973C6.382,39.229 6.497,39.475 6.703,39.656C6.908,39.837 7.187,39.939 7.477,39.939C13.227,39.939 39.668,39.939 39.668,39.939L39.668,36.432Z" style="fill:rgb(66,163,239);"/>
        </g>
        <g transform="matrix(0.913323,0,0,1.03544,0.717134,-23.8442)">
            <path d="M39.668,36.432L7.477,36.432C7.187,36.432 6.908,36.534 6.703,36.715C6.497,36.896 6.382,37.141 6.382,37.398C6.382,37.888 6.382,38.482 6.382,38.973C6.382,39.229 6.497,39.475 6.703,39.656C6.908,39.837 7.187,39.939 7.477,39.939C13.227,39.939 39.668,39.939 39.668,39.939L39.668,36.432Z" style="fill:rgb(66,163,239);"/>
        </g>
    </g>
    <g>
        <g transform="matrix(0.734125,0,0,1,12.2998,0)">
            <path d="M44.914,10.777C44.914,10.38 44.699,9.999 44.316,9.718C43.934,9.437 43.415,9.279 42.873,9.279C40.193,9.279 35.824,9.279 35.824,9.279L35.824,15.827L42.815,15.827C43.974,15.827 44.914,15.137 44.914,14.286C44.914,13.227 44.914,11.827 44.914,10.777Z" style="fill:rgb(202,27,77);"/>
        </g>
        <g transform="matrix(1.00752,0,0,1.00752,-2.95425,-2.08642)">
            <circle cx="35.339" cy="39.396" r="6.929" style="fill:rgb(223,43,101);"/>
        </g>
        <g transform="matrix(1,0,0,0.972205,0,0.0366921)">
            <path d="M39.638,9.506L37.61,9.506C36.92,9.506 36.258,9.788 35.77,10.291C35.282,10.793 35.008,11.473 35.008,12.183C35.008,19.323 35.008,38.278 35.008,38.278L39.638,38.278L39.638,9.506Z" style="fill:rgb(223,43,101);"/>
        </g>
    </g>
    <g>
        <g transform="matrix(0.823059,0.482587,-0.482587,0.823059,6.28633,-29.3291)">
            <path d="M27.936,24.323C26.288,23.881 24.552,23.881 22.904,24.323C23.009,25.506 22.591,26.459 21.65,27.183C20.553,27.636 19.518,27.521 18.546,26.839C17.34,28.046 16.472,29.548 16.03,31.197C17.107,31.697 17.723,32.536 17.88,33.713C17.723,34.889 17.107,35.728 16.03,36.229C16.472,37.877 17.34,39.38 18.546,40.586C19.518,39.904 20.553,39.79 21.65,40.242C22.591,40.966 23.009,41.92 22.904,43.102C24.552,43.544 26.288,43.544 27.936,43.102C27.831,41.92 28.249,40.966 29.19,40.242C30.287,39.79 31.322,39.904 32.293,40.586C33.5,39.38 34.368,37.877 34.809,36.229C33.733,35.728 33.116,34.889 32.96,33.713C33.116,32.536 33.733,31.697 34.809,31.197C34.368,29.548 33.5,28.046 32.293,26.839C31.322,27.521 30.287,27.636 29.19,27.183C28.249,26.459 27.831,25.506 27.936,24.323ZM25.42,28.936C28.056,28.936 30.196,31.077 30.196,33.713C30.196,36.349 28.056,38.489 25.42,38.489C22.784,38.489 20.644,36.349 20.644,33.713C20.644,31.077 22.784,28.936 25.42,28.936Z" style="fill:rgb(129,137,146);"/>
        </g>
        <g transform="matrix(2.41004,0,0,2.41004,-15.3479,-15.2597)">
            <circle cx="10.907" cy="10.766" r="1.891" style="fill:url(#_Linear1);"/>
        </g>
        <g transform="matrix(1.49579,0,0,1.49579,-5.37587,-5.41729)">
            <circle cx="10.907" cy="10.766" r="1.891" style="fill:rgb(16,91,157);"/>
        </g>
    </g>
    <defs>
        <linearGradient id="_Linear1" x1="0" y1="0" x2="1" y2="0" gradientUnits="userSpaceOnUse" gradientTransform="matrix(-2.28367,-3.12126,3.12126,-2.28367,13.7035,10.7656)"><stop offset="0" style="stop-color:rgb(250,250,250);stop-opacity:1"/><stop offset="1" style="stop-color:rgb(174,174,174);stop-opacity:1"/></linearGradient>
    </defs>
</svg>
