<?xml version="1.0" encoding="UTF-8" standalone="no"?>
<!DOCTYPE svg PUBLIC "-//W3C//DTD SVG 1.1//EN" "http://www.w3.org/Graphics/SVG/1.1/DTD/svg11.dtd">
<svg viewBox="0 0 48 48" version="1.1" xmlns="http://www.w3.org/2000/svg" xmlns:xlink="http://www.w3.org/1999/xlink" xml:space="preserve" xmlns:serif="http://www.serif.com/" style="fill-rule:evenodd;clip-rule:evenodd;stroke-linejoin:round;stroke-miterlimit:2;">
    <g transform="matrix(1.00252,0,0,1.0065,-0.142403,-0.178222)">
        <path d="M43.985,10.011C43.985,8.935 43.109,8.063 42.028,8.063C35.252,8.063 12.832,8.063 6.056,8.063C4.976,8.063 4.1,8.935 4.1,10.011C4.1,15.697 4.1,32.222 4.1,37.907C4.1,38.983 4.976,39.856 6.056,39.856C12.832,39.856 35.252,39.856 42.028,39.856C43.109,39.856 43.985,38.983 43.985,37.907C43.985,32.222 43.985,15.697 43.985,10.011Z" style="fill:rgb(40,197,230);"/>
    </g>
    <g>
        <g transform="matrix(1.0109,0,0,1.02571,-0.261714,-0.448801)">
            <rect x="8.117" y="17.031" width="15.883" height="1.95" style="fill:rgb(13,134,173);"/>
        </g>
        <rect x="7.943" y="21.001" width="16.057" height="2.025" style="fill:rgb(13,134,173);"/>
        <rect x="7.943" y="25.019" width="16.057" height="2.033" style="fill:rgb(13,134,173);"/>
        <rect x="7.943" y="29.017" width="13.062" height="1.957" style="fill:rgb(13,134,173);"/>
    </g>
    <g transform="matrix(1.01315,0,0,1.00554,-0.550931,-0.12754)">
        <path d="M42.003,11.092C42.003,10.828 41.899,10.575 41.714,10.389C41.529,10.202 41.278,10.097 41.016,10.097C38.631,10.097 32.576,10.097 30.191,10.097C29.93,10.097 29.679,10.202 29.493,10.389C29.308,10.575 29.204,10.828 29.204,11.092C29.204,13.5 29.204,19.623 29.204,22.031C29.204,22.295 29.308,22.548 29.493,22.734C29.679,22.921 29.93,23.026 30.191,23.026C32.576,23.026 38.631,23.026 41.016,23.026C41.278,23.026 41.529,22.921 41.714,22.734C41.899,22.548 42.003,22.295 42.003,22.031C42.003,19.623 42.003,13.5 42.003,11.092Z" style="fill:white;"/>
    </g>
    <g transform="matrix(1.01315,0,0,1.00554,-0.550931,14.8662)">
        <path d="M42.003,11.092C42.003,10.828 41.899,10.575 41.714,10.389C41.529,10.202 41.278,10.097 41.016,10.097C38.631,10.097 32.576,10.097 30.191,10.097C29.93,10.097 29.679,10.202 29.493,10.389C29.308,10.575 29.204,10.828 29.204,11.092C29.204,13.5 29.204,19.623 29.204,22.031C29.204,22.295 29.308,22.548 29.493,22.734C29.679,22.921 29.93,23.026 30.191,23.026C32.576,23.026 38.631,23.026 41.016,23.026C41.278,23.026 41.529,22.921 41.714,22.734C41.899,22.548 42.003,22.295 42.003,22.031C42.003,19.623 42.003,13.5 42.003,11.092Z" style="fill:white;"/>
    </g>
    <g>
        <g transform="matrix(1.20163,0,0,1.59911,-6.3401,-18.7634)">
            <rect x="31.044" y="31.082" width="2.499" height="3.127" style="fill:rgb(0,120,212);"/>
        </g>
        <g transform="matrix(1.20163,0,0,2.23906,-3.33683,-40.6554)">
            <rect x="31.044" y="31.082" width="2.499" height="3.127" style="fill:rgb(25,155,226);"/>
        </g>
        <g transform="matrix(1.20163,0,0,2.8426,-0.333562,-61.3019)">
            <rect x="31.044" y="31.082" width="2.499" height="3.127" style="fill:rgb(53,193,241);"/>
        </g>
    </g>
    <g transform="matrix(1.07954,0,0,1.01487,-3.17947,-0.414339)">
        <ellipse cx="35.801" cy="16.674" rx="4.173" ry="4.434" style="fill:rgb(220,191,184);"/>
    </g>
    <g transform="matrix(1.07954,0,0,1.01487,-3.17947,-0.414339)">
        <path d="M31.628,16.674C31.628,16.674 39.975,16.671 39.975,16.674C39.992,19.109 38.104,21.108 35.801,21.108C33.497,21.108 31.628,19.121 31.628,16.674Z" style="fill:rgb(211,82,48);"/>
    </g>
    <g transform="matrix(1.07954,0,0,-1.01487,-3.17947,33.4295)">
        <path d="M35.801,16.674C37.887,16.674 39.974,16.673 39.974,16.674C40.027,19.121 38.104,21.108 35.801,21.108" style="fill:rgb(254,143,107);"/>
    </g>
    <g transform="matrix(1.07954,0,0,-1.01487,-3.17947,33.4295)">
        <path d="M35.801,21.108C33.497,21.108 31.628,19.121 31.628,16.674C31.628,16.675 33.715,16.675 35.801,16.674" style="fill:rgb(237,108,71);"/>
    </g>
</svg>
