<?xml version="1.0" encoding="UTF-8"?>
<svg viewBox="0 0 180 180" version="1.1" xmlns="http://www.w3.org/2000/svg" xmlns:xlink="http://www.w3.org/1999/xlink">
    <g id="Page-1" stroke="none" stroke-width="1" fill="none" fill-rule="evenodd">
        <g id="ArrowUp" transform="translate(4.000000, 4.000000)">
            <g id="Untitled">
                <g id="Page-1">
                    <g id="ArrowUp">
                        <g id="Group">
                            <path d="M0,172 L0,0 L172,0 L172,172 L0,172 L0,172 Z" id="Shape"></path>
                            <g id="Shape">
                                <path d="M86,171.245617 C39.1149093,171.245617 0.754382947,132.885091 0.754382947,86 C0.754382947,39.1149093 39.1149093,0.754382947 86,0.754382947 C132.885091,0.754382947 171.245617,39.1149093 171.245617,86 C171.245617,132.885091 132.885091,171.245617 86,171.245617 Z" stroke="#FFFFFF" stroke-width="8.5"></path>
                                <path d="M121.376933,84.7213158 L86,49.3443829 L50.6230672,84.7213158 L44.6558712,78.7541198 L85.9999909,37.41 L127.344111,78.7541198 L121.376933,84.7213158 L121.376933,84.7213158 Z" fill="#FFFFFF"></path>
                                <path d="M81.7377223,47.6394737 L90.2622867,47.6394737 L90.2622867,128.622804 L81.7377223,128.622804 L81.7377223,47.6394737 L81.7377223,47.6394737 Z" fill="#FFFFFF"></path>
                            </g>
                        </g>
                    </g>
                </g>
            </g>
        </g>
    </g>
</svg>