<?xml version="1.0" encoding="UTF-8"?>
<svg width="100%" height="100%" viewBox="0 0 48 48" version="1.1" xmlns="http://www.w3.org/2000/svg" xmlns:xlink="http://www.w3.org/1999/xlink" xmlns:sketch="http://www.bohemiancoding.com/sketch/ns">
    <g id="Page-1" stroke="none" stroke-width="1" fill="none" fill-rule="evenodd" sketch:type="MSPage">
        <g id="Group" sketch:type="MSLayerGroup" transform="translate(24.000000, 24.500000) rotate(270.000000) translate(-24.000000, -24.500000) translate(6.500000, 13.500000)" fill="#000000">
            <path d="M33.7661875,20.4873328 C33.3144398,21.017607 32.6543935,21.3262011 31.9578948,21.3320605 C31.2609623,21.3379199 30.5957085,21.0410445 30.1348477,20.5180946 C26.7339383,16.6577377 19.6153319,8.57813677 17.663834,6.3628017 C17.5362511,6.21778197 17.3522539,6.13477404 17.1591437,6.13428576 C16.9655995,6.13379748 16.7816024,6.21582884 16.6531516,6.36036029 C14.6829935,8.57423052 7.4771621,16.670433 4.10619562,20.4585242 C3.65922143,20.9609663 3.01826913,21.248076 2.34563807,21.248076 C1.67300702,21.2475877 1.03248867,20.9599897 0.585514485,20.4570593 C0.58508053,20.456571 0.584646574,20.4560828 0.584212619,20.4555945 C-0.19473754,19.5791284 -0.19473754,18.2583258 0.584212619,17.3818598 C3.76206889,13.8061713 11.6557198,4.92432316 15.28272,0.843262876 C15.7596372,0.307129328 16.4426831,-3.55271368e-15 17.1600116,-3.55271368e-15 C17.8773401,-3.55271368e-15 18.5603861,0.307129328 19.0368692,0.843262876 C22.6634355,4.92383488 30.5562185,13.8047064 33.7345087,17.3808832 C34.5182324,18.2627204 34.5325529,19.5869409 33.7674894,20.4853797 C33.7670554,20.485868 33.7666215,20.4868445 33.7661875,20.4873328 L33.7661875,20.4873328 Z" id="Shape" sketch:type="MSShapeGroup"></path>
        </g>
    </g>
</svg>