<?xml version="1.0" encoding="UTF-8" standalone="no"?><!DOCTYPE svg PUBLIC "-//W3C//DTD SVG 1.1//EN" "http://www.w3.org/Graphics/SVG/1.1/DTD/svg11.dtd"><svg viewBox="0 0 3492 3492" version="1.1" xmlns="http://www.w3.org/2000/svg" xmlns:xlink="http://www.w3.org/1999/xlink" xml:space="preserve" xmlns:serif="http://www.serif.com/" style="fill-rule:evenodd;clip-rule:evenodd;stroke-linejoin:round;stroke-miterlimit:2;"><g id="Слой1"><g><path d="M1248.82,1984.95l0.485,-442.063l1070.64,0l8.848,-427.225l705.067,639.305l-705.067,621.033l-9.332,-391.05l-1070.64,-0Z" style="fill:#27aae3;"/><path d="M2923.68,2174.1l0,931.987c0,216.531 -175.533,392.065 -392.064,392.065c-465.244,-0 -1236.34,-0 -1701.58,-0c-216.531,-0 -392.064,-175.534 -392.064,-392.065c-0,-667.544 -0,-2017.26 -0,-2684.8c-0,-216.531 175.533,-392.065 392.064,-392.065c465.244,0 1236.34,0 1701.58,0c216.531,0 392.064,175.534 392.064,392.065l0,945.26l-304.299,-244.746l-1.534,-621.396c-0.002,-72.174 -58.511,-130.683 -130.689,-130.685c-0,0 -1590.3,2.143 -1590.3,2.143c-72.175,0.002 -130.684,58.51 -130.686,130.688c0,0 -5.539,2543.5 -5.539,2543.51c0.001,72.175 58.51,130.684 130.688,130.686c0,-0 1611.5,-0.042 1611.5,-0.042c72.174,-0.002 114.611,-68.89 114.613,-141.068l1.946,-638.883l304.299,-222.648Z" style="fill:#27aae3;"/></g></g></svg>