<?xml version="1.0" encoding="UTF-8" standalone="no"?>
<!DOCTYPE svg PUBLIC "-//W3C//DTD SVG 1.1//EN" "http://www.w3.org/Graphics/SVG/1.1/DTD/svg11.dtd">
<svg viewBox="0 0 64 64" version="1.1" xmlns="http://www.w3.org/2000/svg" xmlns:xlink="http://www.w3.org/1999/xlink" xml:space="preserve" xmlns:serif="http://www.serif.com/" style="fill-rule:evenodd;clip-rule:evenodd;stroke-linejoin:round;stroke-miterlimit:2;">
    <g transform="matrix(1.129,0,0,1.89052,-3.78335,-37.6465)">
        <path d="M25.57,38.775L25.577,35.197L40.089,35.197L40.209,31.739L49.766,36.914L40.209,41.941L40.083,38.775L25.57,38.775Z"/>
        <path d="M25.57,38.775L25.577,35.197L40.089,35.197L40.209,31.739L49.766,36.914L40.209,41.941L40.083,38.775L25.57,38.775ZM42.56,35.868L40.645,36.988L42.362,37.989L44.449,36.891L42.56,35.868Z"/>
    </g>
    <path d="M51.02,38.281L51.02,52.544C51.02,55.857 48.334,58.544 45.02,58.544C37.9,58.544 26.1,58.544 18.98,58.544C15.666,58.544 12.98,55.857 12.98,52.544C12.98,42.328 12.98,21.672 12.98,11.456C12.98,8.143 15.666,5.456 18.98,5.456C26.1,5.456 37.9,5.456 45.02,5.456C48.334,5.456 51.02,8.143 51.02,11.456L51.02,25.922L47.02,22.295L47.02,11.456C47.02,10.352 46.125,9.456 45.02,9.456C45.02,9.456 18.98,9.456 18.98,9.456C17.875,9.456 16.98,10.352 16.98,11.456C16.98,11.456 16.98,52.544 16.98,52.544C16.98,53.648 17.875,54.544 18.98,54.544C18.98,54.544 45.02,54.544 45.02,54.544C46.125,54.544 47.02,53.648 47.02,52.544L47.02,41.804L51.02,38.281Z"/>
</svg>
