<?xml version="1.0" encoding="UTF-8" standalone="no"?>
<!DOCTYPE svg PUBLIC "-//W3C//DTD SVG 1.1//EN" "http://www.w3.org/Graphics/SVG/1.1/DTD/svg11.dtd">
<svg width="100%" height="100%" viewBox="0 0 49 48" version="1.1" xmlns="http://www.w3.org/2000/svg" xmlns:xlink="http://www.w3.org/1999/xlink" xml:space="preserve" xmlns:serif="http://www.serif.com/" style="fill-rule:evenodd;clip-rule:evenodd;stroke-linejoin:round;stroke-miterlimit:2;">
    <g transform="matrix(1,0,0,1,-310.103,-0.0333692)">
        <g id="Монтажная-область7" serif:id="Монтажная область7" transform="matrix(1,0,0,1,255.597,0.0333692)">
            <rect x="54.506" y="0" width="48.038" height="48" style="fill:none;"/>
            <g transform="matrix(0.894308,0,0,0.894308,8.30687,2.54606)">
                <g transform="matrix(0.154906,0,0,0.154906,57.897,3.2785)">
                    <path d="M43.877,24.589C43.877,19.282 41.769,14.192 38.016,10.44C34.263,6.687 29.174,4.579 23.867,4.579L23.862,4.579C18.555,4.579 13.466,6.687 9.713,10.44C5.961,14.192 3.852,19.282 3.852,24.589L3.852,24.594C3.852,29.901 5.961,34.99 9.713,38.743C13.466,42.495 18.555,44.604 23.862,44.603L23.867,44.603C29.174,44.604 34.263,42.495 38.016,38.743C41.769,34.99 43.877,29.901 43.877,24.594L43.877,24.589Z"/>
                </g>
                <g transform="matrix(0.154906,0,0,0.154906,74.8987,3.2785)">
                    <path d="M43.877,24.589C43.877,19.282 41.769,14.192 38.016,10.44C34.263,6.687 29.174,4.579 23.867,4.579L23.862,4.579C18.555,4.579 13.466,6.687 9.713,10.44C5.961,14.192 3.852,19.282 3.852,24.589L3.852,24.594C3.852,29.901 5.961,34.99 9.713,38.743C13.466,42.495 18.555,44.604 23.862,44.603L23.867,44.603C29.174,44.604 34.263,42.495 38.016,38.743C41.769,34.99 43.877,29.901 43.877,24.594L43.877,24.589Z"/>
                </g>
                <g transform="matrix(0.154906,0,0,0.154906,91.9004,3.2785)">
                    <path d="M43.877,24.589C43.877,19.282 41.769,14.192 38.016,10.44C34.263,6.687 29.174,4.579 23.867,4.579L23.862,4.579C18.555,4.579 13.466,6.687 9.713,10.44C5.961,14.192 3.852,19.282 3.852,24.589L3.852,24.594C3.852,29.901 5.961,34.99 9.713,38.743C13.466,42.495 18.555,44.604 23.862,44.603L23.867,44.603C29.174,44.604 34.263,42.495 38.016,38.743C41.769,34.99 43.877,29.901 43.877,24.594L43.877,24.589Z"/>
                </g>
                <g transform="matrix(0.154906,0,0,0.154906,91.9004,20.2802)">
                    <path d="M43.877,24.589C43.877,19.282 41.769,14.192 38.016,10.44C34.263,6.687 29.174,4.579 23.867,4.579L23.862,4.579C18.555,4.579 13.466,6.687 9.713,10.44C5.961,14.192 3.852,19.282 3.852,24.589L3.852,24.594C3.852,29.901 5.961,34.99 9.713,38.743C13.466,42.495 18.555,44.604 23.862,44.603L23.867,44.603C29.174,44.604 34.263,42.495 38.016,38.743C41.769,34.99 43.877,29.901 43.877,24.594L43.877,24.589Z"/>
                </g>
                <g transform="matrix(0.154906,0,0,0.154906,74.8987,20.2802)">
                    <path d="M43.877,24.589C43.877,19.282 41.769,14.192 38.016,10.44C34.263,6.687 29.174,4.579 23.867,4.579L23.862,4.579C18.555,4.579 13.466,6.687 9.713,10.44C5.961,14.192 3.852,19.282 3.852,24.589L3.852,24.594C3.852,29.901 5.961,34.99 9.713,38.743C13.466,42.495 18.555,44.604 23.862,44.603L23.867,44.603C29.174,44.604 34.263,42.495 38.016,38.743C41.769,34.99 43.877,29.901 43.877,24.594L43.877,24.589Z"/>
                </g>
                <g transform="matrix(0.154906,0,0,0.154906,57.897,20.2802)">
                    <path d="M43.877,24.589C43.877,19.282 41.769,14.192 38.016,10.44C34.263,6.687 29.174,4.579 23.867,4.579L23.862,4.579C18.555,4.579 13.466,6.687 9.713,10.44C5.961,14.192 3.852,19.282 3.852,24.589L3.852,24.594C3.852,29.901 5.961,34.99 9.713,38.743C13.466,42.495 18.555,44.604 23.862,44.603L23.867,44.603C29.174,44.604 34.263,42.495 38.016,38.743C41.769,34.99 43.877,29.901 43.877,24.594L43.877,24.589Z"/>
                </g>
                <g transform="matrix(0.154906,0,0,0.154906,91.9004,37.2819)">
                    <path d="M43.877,24.589C43.877,19.282 41.769,14.192 38.016,10.44C34.263,6.687 29.174,4.579 23.867,4.579L23.862,4.579C18.555,4.579 13.466,6.687 9.713,10.44C5.961,14.192 3.852,19.282 3.852,24.589L3.852,24.594C3.852,29.901 5.961,34.99 9.713,38.743C13.466,42.495 18.555,44.604 23.862,44.603L23.867,44.603C29.174,44.604 34.263,42.495 38.016,38.743C41.769,34.99 43.877,29.901 43.877,24.594L43.877,24.589Z"/>
                </g>
                <g transform="matrix(0.154906,0,0,0.154368,74.8987,37.2844)">
                    <path d="M43.877,24.586C43.877,13.537 34.95,4.579 23.939,4.579C23.889,4.579 23.84,4.579 23.79,4.579C12.779,4.579 3.852,13.537 3.852,24.586C3.852,24.59 3.852,24.593 3.852,24.597C3.852,35.646 12.779,44.603 23.79,44.603C23.84,44.603 23.889,44.603 23.939,44.603C34.95,44.603 43.877,35.646 43.877,24.597C43.877,24.593 43.877,24.59 43.877,24.586Z"/>
                </g>
                <g transform="matrix(0.154906,0,0,0.154906,57.897,37.2819)">
                    <path d="M43.877,24.589C43.877,19.282 41.769,14.192 38.016,10.44C34.263,6.687 29.174,4.579 23.867,4.579L23.862,4.579C18.555,4.579 13.466,6.687 9.713,10.44C5.961,14.192 3.852,19.282 3.852,24.589L3.852,24.594C3.852,29.901 5.961,34.99 9.713,38.743C13.466,42.495 18.555,44.604 23.862,44.603L23.867,44.603C29.174,44.604 34.263,42.495 38.016,38.743C41.769,34.99 43.877,29.901 43.877,24.594L43.877,24.589Z"/>
                </g>
            </g>
        </g>
    </g>
</svg>
