<?xml version="1.0" encoding="UTF-8" standalone="no"?>
<!DOCTYPE svg PUBLIC "-//W3C//DTD SVG 1.1//EN" "http://www.w3.org/Graphics/SVG/1.1/DTD/svg11.dtd">
<svg width="100%" height="100%" viewBox="0 0 49 48" version="1.1" xmlns="http://www.w3.org/2000/svg" xmlns:xlink="http://www.w3.org/1999/xlink" xml:space="preserve" xmlns:serif="http://www.serif.com/" style="fill-rule:evenodd;clip-rule:evenodd;stroke-linejoin:round;stroke-miterlimit:2;">
    <g transform="matrix(1,0,0,1,-258.342,-0.0333692)">
        <g id="Монтажная-область6" serif:id="Монтажная область6" transform="matrix(1,0,0,1,203.836,0.0333692)">
            <rect x="54.506" y="0" width="48.038" height="48" style="fill:none;"/>
            <g transform="matrix(0.893836,0,0,0.893836,57.0538,2.54795)">
                <g transform="matrix(0.150431,0,0,0.150431,3.40833,3.29899)">
                    <path d="M43.877,13.851C43.877,11.392 42.9,9.034 41.161,7.295C39.422,5.556 37.064,4.579 34.605,4.579C28.151,4.579 19.578,4.579 13.124,4.579C10.665,4.579 8.307,5.556 6.568,7.295C4.829,9.034 3.852,11.392 3.852,13.851C3.852,20.305 3.852,28.878 3.852,35.332C3.852,37.791 4.829,40.149 6.568,41.888C8.307,43.627 10.665,44.603 13.124,44.603C19.578,44.603 28.151,44.603 34.605,44.603C37.064,44.603 39.422,43.627 41.161,41.888C42.9,40.149 43.877,37.791 43.877,35.332L43.877,13.851Z"/>
                </g>
                <g transform="matrix(0.150431,0,0,0.150431,20.41,3.29899)">
                    <path d="M43.877,13.851C43.877,11.392 42.9,9.034 41.161,7.295C39.422,5.556 37.064,4.579 34.605,4.579C28.151,4.579 19.578,4.579 13.124,4.579C10.665,4.579 8.307,5.556 6.568,7.295C4.829,9.034 3.852,11.392 3.852,13.851C3.852,20.305 3.852,28.878 3.852,35.332C3.852,37.791 4.829,40.149 6.568,41.888C8.307,43.627 10.665,44.603 13.124,44.603C19.578,44.603 28.151,44.603 34.605,44.603C37.064,44.603 39.422,43.627 41.161,41.888C42.9,40.149 43.877,37.791 43.877,35.332L43.877,13.851Z"/>
                </g>
                <g transform="matrix(0.150431,0,0,0.150431,37.4117,3.29899)">
                    <path d="M43.877,13.851C43.877,11.392 42.9,9.034 41.161,7.295C39.422,5.556 37.064,4.579 34.605,4.579C28.151,4.579 19.578,4.579 13.124,4.579C10.665,4.579 8.307,5.556 6.568,7.295C4.829,9.034 3.852,11.392 3.852,13.851C3.852,20.305 3.852,28.878 3.852,35.332C3.852,37.791 4.829,40.149 6.568,41.888C8.307,43.627 10.665,44.603 13.124,44.603C19.578,44.603 28.151,44.603 34.605,44.603C37.064,44.603 39.422,43.627 41.161,41.888C42.9,40.149 43.877,37.791 43.877,35.332L43.877,13.851Z"/>
                </g>
                <g transform="matrix(0.150431,0,0,0.150431,37.4117,20.3007)">
                    <path d="M43.877,13.851C43.877,11.392 42.9,9.034 41.161,7.295C39.422,5.556 37.064,4.579 34.605,4.579C28.151,4.579 19.578,4.579 13.124,4.579C10.665,4.579 8.307,5.556 6.568,7.295C4.829,9.034 3.852,11.392 3.852,13.851C3.852,20.305 3.852,28.878 3.852,35.332C3.852,37.791 4.829,40.149 6.568,41.888C8.307,43.627 10.665,44.603 13.124,44.603C19.578,44.603 28.151,44.603 34.605,44.603C37.064,44.603 39.422,43.627 41.161,41.888C42.9,40.149 43.877,37.791 43.877,35.332L43.877,13.851Z"/>
                </g>
                <g transform="matrix(0.150431,0,0,0.150431,20.41,20.3007)">
                    <path d="M43.877,13.851C43.877,11.392 42.9,9.034 41.161,7.295C39.422,5.556 37.064,4.579 34.605,4.579C28.151,4.579 19.578,4.579 13.124,4.579C10.665,4.579 8.307,5.556 6.568,7.295C4.829,9.034 3.852,11.392 3.852,13.851C3.852,20.305 3.852,28.878 3.852,35.332C3.852,37.791 4.829,40.149 6.568,41.888C8.307,43.627 10.665,44.603 13.124,44.603C19.578,44.603 28.151,44.603 34.605,44.603C37.064,44.603 39.422,43.627 41.161,41.888C42.9,40.149 43.877,37.791 43.877,35.332L43.877,13.851Z"/>
                </g>
                <g transform="matrix(0.150431,0,0,0.150431,3.40833,20.3007)">
                    <path d="M43.877,13.851C43.877,11.392 42.9,9.034 41.161,7.295C39.422,5.556 37.064,4.579 34.605,4.579C28.151,4.579 19.578,4.579 13.124,4.579C10.665,4.579 8.307,5.556 6.568,7.295C4.829,9.034 3.852,11.392 3.852,13.851C3.852,20.305 3.852,28.878 3.852,35.332C3.852,37.791 4.829,40.149 6.568,41.888C8.307,43.627 10.665,44.603 13.124,44.603C19.578,44.603 28.151,44.603 34.605,44.603C37.064,44.603 39.422,43.627 41.161,41.888C42.9,40.149 43.877,37.791 43.877,35.332L43.877,13.851Z"/>
                </g>
                <g transform="matrix(0.150431,0,0,0.150431,37.4117,37.3024)">
                    <path d="M43.877,13.851C43.877,11.392 42.9,9.034 41.161,7.295C39.422,5.556 37.064,4.579 34.605,4.579C28.151,4.579 19.578,4.579 13.124,4.579C10.665,4.579 8.307,5.556 6.568,7.295C4.829,9.034 3.852,11.392 3.852,13.851C3.852,20.305 3.852,28.878 3.852,35.332C3.852,37.791 4.829,40.149 6.568,41.888C8.307,43.627 10.665,44.603 13.124,44.603C19.578,44.603 28.151,44.603 34.605,44.603C37.064,44.603 39.422,43.627 41.161,41.888C42.9,40.149 43.877,37.791 43.877,35.332L43.877,13.851Z"/>
                </g>
                <g transform="matrix(0.150431,0,0,0.150431,20.41,37.3024)">
                    <path d="M43.877,13.851C43.877,11.392 42.9,9.034 41.161,7.295C39.422,5.556 37.064,4.579 34.605,4.579C28.151,4.579 19.578,4.579 13.124,4.579C10.665,4.579 8.307,5.556 6.568,7.295C4.829,9.034 3.852,11.392 3.852,13.851C3.852,20.305 3.852,28.878 3.852,35.332C3.852,37.791 4.829,40.149 6.568,41.888C8.307,43.627 10.665,44.603 13.124,44.603C19.578,44.603 28.151,44.603 34.605,44.603C37.064,44.603 39.422,43.627 41.161,41.888C42.9,40.149 43.877,37.791 43.877,35.332L43.877,13.851Z"/>
                </g>
                <g transform="matrix(0.150431,0,0,0.150431,3.40833,37.3024)">
                    <path d="M43.877,13.851C43.877,11.392 42.9,9.034 41.161,7.295C39.422,5.556 37.064,4.579 34.605,4.579C28.151,4.579 19.578,4.579 13.124,4.579C10.665,4.579 8.307,5.556 6.568,7.295C4.829,9.034 3.852,11.392 3.852,13.851C3.852,20.305 3.852,28.878 3.852,35.332C3.852,37.791 4.829,40.149 6.568,41.888C8.307,43.627 10.665,44.603 13.124,44.603C19.578,44.603 28.151,44.603 34.605,44.603C37.064,44.603 39.422,43.627 41.161,41.888C42.9,40.149 43.877,37.791 43.877,35.332L43.877,13.851Z"/>
                </g>
            </g>
        </g>
    </g>
</svg>
