<?xml version="1.0" encoding="UTF-8" standalone="no"?>
<!DOCTYPE svg PUBLIC "-//W3C//DTD SVG 1.1//EN" "http://www.w3.org/Graphics/SVG/1.1/DTD/svg11.dtd">
<svg width="100%" height="100%" viewBox="0 0 838 838" version="1.1" xmlns="http://www.w3.org/2000/svg" xmlns:xlink="http://www.w3.org/1999/xlink" xml:space="preserve" xmlns:serif="http://www.serif.com/" style="fill-rule:evenodd;clip-rule:evenodd;stroke-linejoin:round;stroke-miterlimit:2;">
    <g id="Слой2">
        <g transform="matrix(1.18474,0,0,1.18474,-130.422,-154.814)">
            <path d="M463.748,130.673C658.941,130.673 817.412,289.144 817.412,484.336C817.412,679.529 658.941,838 463.748,838C268.556,838 110.085,679.529 110.085,484.336C110.085,289.144 268.556,130.673 463.748,130.673ZM463.748,197.066C622.297,197.066 751.019,325.787 751.019,484.336C751.019,642.885 622.297,771.607 463.748,771.607C305.2,771.607 176.478,642.885 176.478,484.336C176.478,325.787 305.2,197.066 463.748,197.066Z" style="fill:rgb(39,170,227);"/>
        </g>
        <g transform="matrix(1,0,0,1,-61.2378,-36.9721)">
            <path d="M293.584,507.001L293.584,404.944L659.783,404.944L659.783,310.177L805.579,455.972L659.783,601.768L659.783,507.001L293.584,507.001Z" style="fill:rgb(39,170,227);"/>
            <path d="M293.584,507.001L293.584,404.944L659.783,404.944L659.783,310.177L805.579,455.972L659.783,601.768L659.783,507.001L293.584,507.001ZM294.499,506.086L294.499,405.858C294.499,405.858 659.783,405.858 659.783,405.858C660.288,405.858 660.698,405.449 660.698,404.944L660.698,312.385C675.731,327.417 794.458,446.145 804.285,455.972C804.285,455.972 676.343,583.915 660.698,599.559C660.698,599.559 660.698,507.001 660.698,507.001C660.698,506.495 660.288,506.086 659.783,506.086L294.499,506.086L294.499,506.086Z" style="fill:white;"/>
        </g>
    </g>
</svg>
