<?xml version="1.0" encoding="UTF-8" standalone="no"?><!DOCTYPE svg PUBLIC "-//W3C//DTD SVG 1.1//EN" "http://www.w3.org/Graphics/SVG/1.1/DTD/svg11.dtd"><svg width="100%" height="100%" viewBox="0 0 3492 3492" version="1.1" xmlns="http://www.w3.org/2000/svg" xmlns:xlink="http://www.w3.org/1999/xlink" xml:space="preserve" xmlns:serif="http://www.serif.com/" style="fill-rule:evenodd;clip-rule:evenodd;stroke-linejoin:round;stroke-miterlimit:2;"><g id="Слой2"><circle cx="1745.83" cy="1745.83" r="1745.83" style="fill:#27aae3;"/><path d="M1290.01,1958.45l-0,-425.237l1525.83,-0l-0,-394.863l607.481,607.481l-607.481,607.481l-0,-394.862l-1525.83,-0Z" style="fill:#fff;"/><path d="M1290.01,1958.45l-0,-425.237l1525.83,-0l-0,-394.863l607.481,607.481l-607.481,607.481l-0,-394.862l-1525.83,-0Zm3.811,-3.811l-0,-417.615c-0,-0 1522.02,-0 1522.02,-0c2.104,-0 3.811,-1.706 3.811,-3.811l-0,-385.662c-0,-0 598.28,598.28 598.28,598.28c0,0 -598.28,598.281 -598.28,598.281c-0,-0 -0,-385.662 -0,-385.662c-0,-2.105 -1.707,-3.811 -3.811,-3.811l-1522.02,-0l-0,-0Z" style="fill:#fff;"/></g></svg>