<?xml version="1.0" encoding="UTF-8" standalone="no"?>
<!DOCTYPE svg PUBLIC "-//W3C//DTD SVG 1.1//EN" "http://www.w3.org/Graphics/SVG/1.1/DTD/svg11.dtd">
<svg width="100%" height="100%" viewBox="0 0 838 838" version="1.1" xmlns="http://www.w3.org/2000/svg" xmlns:xlink="http://www.w3.org/1999/xlink" xml:space="preserve" xmlns:serif="http://www.serif.com/" style="fill-rule:evenodd;clip-rule:evenodd;stroke-linejoin:round;stroke-miterlimit:2;">
    <g id="Слой2">
        <g transform="matrix(1.18474,0,0,1.18474,-130.422,-154.814)">
            <path d="M463.748,130.673C658.941,130.673 817.412,289.144 817.412,484.336C817.412,679.529 658.941,838 463.748,838C268.556,838 110.085,679.529 110.085,484.336C110.085,289.144 268.556,130.673 463.748,130.673ZM463.748,197.066C622.297,197.066 751.019,325.787 751.019,484.336C751.019,642.885 622.297,771.607 463.748,771.607C305.2,771.607 176.478,642.885 176.478,484.336C176.478,325.787 305.2,197.066 463.748,197.066Z" style="fill:rgb(39,170,227);"/>
        </g>
        <g transform="matrix(1.05807,0,0,1.05807,4.10215,-38.4207)">
            <text x="185.921px" y="705.367px" style="font-family:'ArialMT', 'Arial', sans-serif;font-size:750.108px;fill:rgb(39,170,227);">?</text>
        </g>
    </g>
</svg>
