<?xml version="1.0" encoding="UTF-8" standalone="no"?><!DOCTYPE svg PUBLIC "-//W3C//DTD SVG 1.1//EN" "http://www.w3.org/Graphics/SVG/1.1/DTD/svg11.dtd"><svg viewBox="0 0 3492 3492" version="1.1" xmlns="http://www.w3.org/2000/svg" xmlns:xlink="http://www.w3.org/1999/xlink" xml:space="preserve" xmlns:serif="http://www.serif.com/" style="fill-rule:evenodd;clip-rule:evenodd;stroke-linejoin:round;stroke-miterlimit:2;"><g id="Слой2"><path d="M976.593,2799.79c215.287,160.513 481.373,255.422 769.24,255.422c274.555,0 529.297,-86.334 739.081,-233.602l303.554,316.675c-289.928,221.756 -651.177,353.386 -1042.63,353.386c-404.436,-0 -776.627,-140.503 -1071.27,-375.777l302.032,-316.104Zm2086.81,-2184.04c256.643,304.712 411.52,699.28 411.52,1130.08c0,429.841 -154.185,823.607 -409.769,1128.01l-302.537,-315.615c175.323,-223.348 280.034,-505.62 280.034,-812.391c0,-307.493 -105.205,-590.372 -281.279,-813.98l302.031,-316.104Zm-2660.02,2229.95c-241.707,-300.3 -386.634,-683.129 -386.634,-1099.87c-0,-415.676 144.191,-797.617 384.833,-1097.62l303.547,316.668c-160.843,218.028 -256.108,488.346 -256.108,780.952c-0,293.33 95.736,564.26 257.4,782.707l-303.038,317.158Zm2079.89,-2176.79c-209.467,-146.561 -463.596,-232.446 -737.435,-232.446c-288.654,0 -555.408,95.429 -770.978,256.726l-302.538,-315.616c294.957,-236.335 668.03,-377.568 1073.52,-377.568c390.504,0 750.946,130.989 1040.48,351.744l-303.041,317.16Z" style="fill:#27aae3;"/></g></svg>