<?xml version="1.0" encoding="UTF-8"?>
<svg width="100%" height="100%" viewBox="0 0 48 48" version="1.1" xmlns="http://www.w3.org/2000/svg" xmlns:xlink="http://www.w3.org/1999/xlink" xmlns:sketch="http://www.bohemiancoding.com/sketch/ns">
    <g id="Page-1" stroke="none" stroke-width="1" fill="none" fill-rule="evenodd" sketch:type="MSPage">
        <g id="Group" sketch:type="MSLayerGroup" transform="translate(6.000000, 6.000000)" fill="#000000">
            <path d="M10.3972341,28.5355456 C12.6708075,30.1681781 15.4804562,31.1336905 18.5201646,31.1336905 C21.4196461,31.1336905 24.1095178,30.2555644 26.3246633,28.7572085 L29.5301607,31.9791355 C26.4685419,34.2348396 22.6539343,35.574053 18.5201646,35.574053 C14.2498198,35.574053 10.3190869,34.1446115 7.20780441,31.7510785 L10.3972341,28.5355456 L10.3972341,28.5355456 Z M32.433294,6.31597162 C35.1436154,9.41569987 36.7788646,13.4297876 36.7788646,17.812603 C36.7788646,22.185472 35.1509189,26.1917446 32.4515527,29.2886311 L29.2570105,26.0773609 C31.1084427,23.8053162 32.2141896,20.933645 32.2141896,17.812603 C32.2141896,14.6844564 31.1033303,11.806391 29.2438643,9.53150453 L32.433294,6.31597162 L32.433294,6.31597162 Z M4.3441099,29.0023165 C1.79227399,25.9473471 0.261464584,22.0526163 0.261464584,17.812603 C0.261464584,13.583957 1.78424016,9.6977517 4.32512086,6.64562413 L7.53061823,9.86755116 C5.83182878,12.085601 4.82613958,14.835784 4.82613958,17.812603 C4.82613958,20.797237 5.83694122,23.5531036 7.54449484,25.7754162 L4.3441099,29.0023165 L4.3441099,29.0023165 Z M26.307135,6.85663016 C24.0956412,5.36537882 21.4116123,4.49151548 18.5201646,4.49151548 C15.4724224,4.49151548 12.6554701,5.46271156 10.3789754,7.10315908 L7.18443328,3.89259938 C10.2986371,1.48840951 14.2381343,0.051152976 18.5201646,0.051152976 C22.6437094,0.051152976 26.4502832,1.38397218 29.5075199,3.62972992 L26.307135,6.85663016 L26.307135,6.85663016 Z" id="Shape" sketch:type="MSShapeGroup"></path>
        </g>
    </g>
</svg>