<?xml version="1.0" encoding="UTF-8" standalone="no"?>
<!DOCTYPE svg PUBLIC "-//W3C//DTD SVG 1.1//EN" "http://www.w3.org/Graphics/SVG/1.1/DTD/svg11.dtd">
<svg width="100%" height="100%" viewBox="0 0 49 48" version="1.1" xmlns="http://www.w3.org/2000/svg" xmlns:xlink="http://www.w3.org/1999/xlink" xml:space="preserve" xmlns:serif="http://www.serif.com/" style="fill-rule:evenodd;clip-rule:evenodd;stroke-linejoin:round;stroke-miterlimit:2;">
    <g transform="matrix(1,0,0,1,-361.863,-0.0333692)">
        <g id="Монтажная-область8" serif:id="Монтажная область8" transform="matrix(1,0,0,1,307.357,0.0333692)">
            <rect x="54.506" y="0" width="48.038" height="48" style="fill:none;"/>
            <g transform="matrix(0.950709,0,0,1,55.6981,0)">
                <path d="M6.031,10C4.962,10 3.937,10.404 3.181,11.122C2.425,11.841 2,12.816 2,13.832C2,19.179 2,28.821 2,34.168C2,35.184 2.425,36.159 3.181,36.878C3.937,37.596 4.962,38 6.031,38C14.469,38 33.905,38 42.343,38C43.412,38 44.438,37.596 45.193,36.878C45.949,36.159 46.374,35.184 46.374,34.168C46.374,28.821 46.374,19.179 46.374,13.832C46.374,12.816 45.949,11.841 45.193,11.122C44.438,10.404 43.412,10 42.343,10C33.905,10 14.469,10 6.031,10ZM46.374,38L2,38L46.374,38Z" style="fill-rule:nonzero;"/>
                <path d="M36.073,29.374C35.118,29.792 34.062,30.025 32.953,30.025C28.652,30.025 25.161,26.533 25.161,22.232C25.161,17.931 28.652,14.44 32.953,14.44C37.254,14.44 40.746,17.931 40.746,22.232C40.746,23.445 40.468,24.593 39.973,25.617C39.973,25.617 41.178,26.901 42.268,28.064C43.235,29.094 43.183,30.665 42.149,31.635C42.128,31.654 42.107,31.674 42.087,31.693C41.555,32.192 40.831,32.461 40.084,32.439C39.338,32.416 38.633,32.103 38.136,31.573C37.118,30.488 36.073,29.374 36.073,29.374ZM32.953,17.525C35.551,17.525 37.66,19.634 37.66,22.232C37.66,24.83 35.551,26.939 32.953,26.939C30.355,26.939 28.246,24.83 28.246,22.232C28.246,19.634 30.355,17.525 32.953,17.525Z" style="fill:white;"/>
            </g>
        </g>
    </g>
</svg>
