<?xml version="1.0" encoding="UTF-8" standalone="no"?>
<!DOCTYPE svg PUBLIC "-//W3C//DTD SVG 1.1//EN" "http://www.w3.org/Graphics/SVG/1.1/DTD/svg11.dtd">
<svg width="100%" height="100%" viewBox="0 0 49 48" version="1.1" xmlns="http://www.w3.org/2000/svg" xmlns:xlink="http://www.w3.org/1999/xlink" xml:space="preserve" xmlns:serif="http://www.serif.com/" style="fill-rule:evenodd;clip-rule:evenodd;stroke-linejoin:round;stroke-miterlimit:2;">
    <g transform="matrix(1,0,0,1,-51.7229,0)">
        <g id="Монтажная-область2" serif:id="Монтажная область2" transform="matrix(1,0,0,1,-2.78301,0)">
            <rect x="54.506" y="0" width="48.038" height="48" style="fill:none;"/>
            <g transform="matrix(0.882744,0,0,0.882744,57.3564,2.84058)">
                <g transform="matrix(1.09636,0,0,1.09636,-4.04795,-5.09237)">
                    <path d="M21.822,7.83C30.079,7.83 36.783,14.533 36.783,22.79C36.783,31.047 30.079,37.75 21.822,37.75C13.566,37.75 6.862,31.047 6.862,22.79C6.862,14.533 13.566,7.83 21.822,7.83ZM21.822,12.218C27.657,12.218 32.395,16.955 32.395,22.79C32.395,28.625 27.657,33.362 21.822,33.362C15.987,33.362 11.25,28.625 11.25,22.79C11.25,16.955 15.987,12.218 21.822,12.218Z"/>
                </g>
                <g transform="matrix(1,0,0,1,-1.16693,-0.950626)">
                    <circle cx="15.133" cy="20.844" r="2.237"/>
                </g>
                <g transform="matrix(1,0,0,1,4.74417,-0.950626)">
                    <circle cx="15.133" cy="20.844" r="2.237"/>
                </g>
                <g transform="matrix(1,0,0,1,10.6553,-0.950626)">
                    <circle cx="15.133" cy="20.844" r="2.237"/>
                </g>
                <g transform="matrix(0.998513,0.0545142,-0.0545142,0.998513,2.04837,-1.93289)">
                    <path d="M32.219,28.272L27.849,32.35L27.849,32.351L27.85,32.351C27.85,32.351 34.679,38.992 38.247,42.463C38.807,43.007 39.561,43.304 40.341,43.29C41.121,43.275 41.863,42.949 42.402,42.384C42.497,42.285 42.592,42.185 42.687,42.085C43.802,40.916 43.758,39.066 42.589,37.951C39.958,35.442 35.809,31.485 35.809,31.485L32.219,28.272Z"/>
                </g>
            </g>
        </g>
    </g>
</svg>
