<?xml version="1.0" encoding="UTF-8" standalone="no"?><!DOCTYPE svg PUBLIC "-//W3C//DTD SVG 1.1//EN" "http://www.w3.org/Graphics/SVG/1.1/DTD/svg11.dtd"><svg viewBox="0 0 3492 3492" version="1.1" xmlns="http://www.w3.org/2000/svg" xmlns:xlink="http://www.w3.org/1999/xlink" xml:space="preserve" xmlns:serif="http://www.serif.com/" style="fill-rule:evenodd;clip-rule:evenodd;stroke-linejoin:round;stroke-miterlimit:2;"><g><path d="M1400.28,2213.01l-0,-934.364l955.878,473.96l-955.878,460.404Z" style="fill:#27aae3;"/><path d="M3432.33,1135.77c-23.798,-149.355 -74.457,-302.69 -181.399,-409.632c-106.943,-106.943 -252.815,-151.225 -403.227,-167.022c-309.672,-32.523 -707.951,-49.482 -1107.14,-49.482c-399.194,-0 -791.714,15.902 -1107.14,49.482c-150.389,16.01 -296.284,60.079 -403.226,167.022c-106.942,106.942 -130.338,256.503 -167.022,403.226c-45.764,183.045 -63.171,357.429 -63.171,553.229c-0,228.2 15.966,465.001 63.171,664.797c34.776,147.187 60.08,296.284 167.022,403.226c106.942,106.942 253.257,147.466 403.226,167.022c306.384,39.952 707.951,64.387 1107.14,64.387c399.193,0 788.792,-20.849 1107.14,-64.387c149.845,-20.493 296.284,-60.08 403.227,-167.022c106.942,-106.942 142.957,-253.914 167.021,-403.226c32.777,-203.368 65.904,-396.853 65.904,-609.013c-0,-212.161 -17.214,-387.257 -51.526,-602.607Zm-320.928,26.502c41.103,144.327 48.153,383.55 44.71,576.105c-3.532,197.52 -26.492,449.569 -65.904,609.013c-14.803,59.887 -25.549,125.998 -71.027,171.476c-45.479,45.479 -107.787,62.074 -171.477,71.028c-309.304,43.482 -707.951,64.387 -1107.14,64.387c-399.194,0 -798.165,-27.739 -1107.14,-64.387c-63.868,-7.575 -125.998,-25.549 -171.476,-71.028c-45.478,-45.478 -56.334,-108.861 -71.028,-171.476c-52.556,-223.966 -63.171,-439.217 -63.171,-668.684c-0,-194.479 17.582,-350.381 63.171,-549.342c14.365,-62.691 25.55,-125.998 71.028,-171.476c45.478,-45.479 107.717,-62.582 171.476,-71.028c320.181,-42.416 707.951,-49.483 1107.14,-49.483c399.193,0 801.696,17.602 1107.14,49.483c63.969,6.676 125.998,25.549 171.477,71.028c45.478,45.478 75.324,145.054 92.221,204.384Z" style="fill:#27aae3;"/></g></svg>