<svg xmlns="http://www.w3.org/2000/svg" viewBox="0 0 172 172" style=" fill:#000000;"><g fill="none" fill-rule="nonzero" stroke="none" stroke-width="1" stroke-linecap="butt" stroke-linejoin="miter" stroke-miterlimit="10" stroke-dasharray="" stroke-dashoffset="0" font-family="none" font-weight="none" font-size="none" text-anchor="none" style="mix-blend-mode: normal"><path d="M0,172v-172h172v172z" fill="none"></path><g fill="#ffffff"><path d="M5.99519,-0.20673c-0.28426,0.05168 -0.56851,0.12921 -0.82692,0.20673c-2.48077,0.4393 -4.47055,2.2482 -5.16827,4.65144c-0.69772,2.42909 0.02584,5.01322 1.86058,6.71875l158.76923,158.76923c2.63582,2.63582 6.8738,2.63582 9.50962,0c2.63582,-2.63581 2.63582,-6.87379 0,-9.50962l-21.08654,-21.08654c14.52284,-13.41166 23.56731,-32.30168 23.56731,-52.92308c0,-27.77945 -15.16887,-52.14783 -40.3125,-64.70673c-3.30769,-1.31791 -7.36478,-0.15504 -8.68269,2.48077c-1.98978,2.63582 -0.56851,6.69291 2.06731,8.68269c20.51803,9.92308 33.07692,30.44111 33.07692,52.92308c0,17.31371 -7.28726,32.81851 -19.43269,43.82692l-8.47596,-8.68269c8.73438,-9.66466 14.05769,-22.3786 14.05769,-35.76442c0,-19.17428 -10.69831,-37.05649 -27.90865,-46.30769c-3.30769,-1.98978 -7.10637,-0.62019 -9.09615,2.6875c-0.67187,3.30769 0.67188,7.77824 3.30769,9.09615c13.23077,7.28726 21.08654,20.59555 21.08654,35.14423c0,10.05228 -3.85036,19.40685 -10.33654,26.46154l-9.30288,-9.30288c4.08294,-4.57392 6.40865,-10.49158 6.40865,-17.15865c0,-11.91286 -7.93329,-22.53365 -19.84615,-25.84135c-3.30769,-0.67187 -7.18389,1.44712 -7.85577,4.75481c-0.67187,3.97957 1.24038,7.15805 4.54808,8.47596c5.94351,1.31791 9.92308,6.66707 9.92308,12.61058c0,2.86839 -0.85276,5.65926 -2.48077,7.85577l-17.36538,-17.36538v-54.57692c0,-8.60517 -7.28726,-10.69831 -13.23077,-4.75481l-23.36058,22.74038l-38.03846,-38.03846c-1.36959,-1.47296 -3.35937,-2.22236 -5.375,-2.06731zM31.00962,58.29808l-1.86058,1.24038h-22.53365c-3.97956,0 -6.61538,2.63582 -6.61538,6.61538v39.69231c0,3.97957 2.63582,6.61538 6.61538,6.61538h22.53365l43,42.37981c6.61538,6.61538 13.23077,3.25601 13.23077,-5.99519v-35.76442z"></path></g></g></svg>