<?xml version="1.0" encoding="UTF-8" standalone="no"?><!DOCTYPE svg PUBLIC "-//W3C//DTD SVG 1.1//EN" "http://www.w3.org/Graphics/SVG/1.1/DTD/svg11.dtd"><svg width="100%" height="100%" viewBox="0 0 3492 3492" version="1.1" xmlns="http://www.w3.org/2000/svg" xmlns:xlink="http://www.w3.org/1999/xlink" xml:space="preserve" xmlns:serif="http://www.serif.com/" style="fill-rule:evenodd;clip-rule:evenodd;stroke-linejoin:round;stroke-miterlimit:2;"><g id="Слой2"><circle cx="1745.83" cy="1745.83" r="1745.83" style="fill:#27aae3;"/><path d="M514.576,2475.14c347.633,-210.893 772.58,-334.923 1231.26,-334.923c458.678,0 883.625,124.03 1231.26,334.923c-249.552,420.04 -707.767,701.735 -1231.26,701.735c-523.489,-0 -981.705,-281.695 -1231.26,-701.735Z" style="fill:#fff;"/><path d="M514.576,2475.14c347.633,-210.893 772.58,-334.923 1231.26,-334.923c458.678,0 883.625,124.03 1231.26,334.923c-249.552,420.04 -707.767,701.735 -1231.26,701.735c-523.489,-0 -981.705,-281.695 -1231.26,-701.735Zm5.211,1.3c346.473,-209.363 769.528,-332.412 1226.05,-332.412c456.519,-0 879.573,123.049 1226.05,332.412c-249.317,417.127 -705.298,696.624 -1226.05,696.624c-520.747,-0 -976.729,-279.497 -1226.05,-696.624l0,-0Z" style="fill:#fff;"/><circle cx="1745.83" cy="1246.77" r="595.684" style="fill:#fff;"/></g></svg>