<?xml version="1.0" encoding="UTF-8" standalone="no"?>
<!DOCTYPE svg PUBLIC "-//W3C//DTD SVG 1.1//EN" "http://www.w3.org/Graphics/SVG/1.1/DTD/svg11.dtd">
<svg width="100%" height="100%" viewBox="0 0 838 838" version="1.1" xmlns="http://www.w3.org/2000/svg" xmlns:xlink="http://www.w3.org/1999/xlink" xml:space="preserve" xmlns:serif="http://www.serif.com/" style="fill-rule:evenodd;clip-rule:evenodd;stroke-linejoin:round;stroke-miterlimit:2;">
    <g id="Слой2">
        <g transform="matrix(1.18474,0,0,1.18474,-130.422,-154.814)">
            <path d="M463.748,130.673C658.941,130.673 817.412,289.144 817.412,484.336C817.412,679.529 658.941,838 463.748,838C268.556,838 110.085,679.529 110.085,484.336C110.085,289.144 268.556,130.673 463.748,130.673ZM463.748,197.066C622.297,197.066 751.019,325.787 751.019,484.336C751.019,642.885 622.297,771.607 463.748,771.607C305.2,771.607 176.478,642.885 176.478,484.336C176.478,325.787 305.2,197.066 463.748,197.066Z" style="fill:rgb(39,170,227);"/>
        </g>
        <g transform="matrix(0.936819,0,0,0.958686,26.4728,6.81394)">
            <path d="M123.498,594.035C206.93,543.42 308.917,513.653 419,513.653C529.083,513.653 631.07,543.42 714.502,594.035C654.609,694.844 544.638,762.451 419,762.451C293.362,762.451 183.391,694.844 123.498,594.035Z" style="fill:rgb(39,170,227);"/>
            <path d="M123.498,594.035C206.93,543.42 308.917,513.653 419,513.653C529.083,513.653 631.07,543.42 714.502,594.035C654.609,694.844 544.638,762.451 419,762.451C293.362,762.451 183.391,694.844 123.498,594.035ZM124.82,594.357C207.957,544.128 309.464,514.607 419,514.607C528.536,514.607 630.043,544.128 713.18,594.357C653.352,694.436 543.947,761.497 419,761.497C294.053,761.497 184.648,694.436 124.82,594.357L124.82,594.357Z" style="fill:white;"/>
        </g>
        <g transform="matrix(1.23392,0,0,1.26272,-153.514,-76.6737)">
            <circle cx="463.979" cy="293.295" r="108.541" style="fill:rgb(39,170,227);"/>
        </g>
    </g>
</svg>
