<?xml version="1.0" encoding="UTF-8"?>
<svg width="100%" height="100%" viewBox="0 0 48 48" version="1.1" xmlns="http://www.w3.org/2000/svg" xmlns:xlink="http://www.w3.org/1999/xlink" xmlns:sketch="http://www.bohemiancoding.com/sketch/ns">
    <g id="Page-1" stroke="none" stroke-width="1" fill="none" fill-rule="evenodd" sketch:type="MSPage">
        <g id="Group" sketch:type="MSLayerGroup" transform="translate(1.000000, 6.000000)" fill="#000000">
            <path d="M39.6032745,18.237424 C40.2198139,18.237424 40.8072828,18.4933362 41.2166941,18.9416239 C41.6254997,19.3893232 41.8180926,19.9858635 41.7448104,20.5806388 C40.5462528,29.3004807 32.8843265,36.0424446 23.619882,36.0424446 C14.6982286,36.0424446 7.26220526,29.7893613 5.67361678,21.5360445 L10.3467196,21.5360445 C11.8541526,27.3126015 17.2285842,31.5913365 23.619882,31.5913365 C30.5399018,31.5913365 36.268026,26.5754566 37.1861732,20.0717559 C37.3206248,19.0357525 38.2278706,18.2586029 39.3034836,18.2586029 C39.4028083,18.237424 39.5033442,18.237424 39.6032745,18.237424 L39.6032745,18.237424 Z M7.72975779,18.0326942 C7.09020407,18.0326942 6.48214351,17.7644276 6.06183074,17.2961376 C5.64212361,16.8284359 5.450742,16.2065986 5.53795387,15.5912326 C6.87217439,7.01846672 14.4632411,0.43240344 23.619882,0.43240344 C32.4682532,0.43240344 39.8552199,6.58253346 41.5255695,14.7340737 L36.8379313,14.7340737 C35.2572162,9.0604699 29.9348694,4.8835115 23.619882,4.8835115 C16.7773839,4.8835115 11.1001333,9.78761365 10.0862953,16.1854196 C9.93185756,17.2326008 9.00825961,18.010927 7.91871685,18.010927 C7.8557305,18.0326942 7.79274415,18.0326942 7.72975779,18.0326942 L7.72975779,18.0326942 Z" id="Shape" sketch:type="MSShapeGroup"></path>
            <g transform="translate(39.508576, 11.334708) rotate(122.621423) translate(-39.508576, -11.334708) translate(32.677922, 6.922427)" id="Shape" sketch:type="MSShapeGroup">
                <path d="M7.2843524,0.732438649 C7.53241296,0.576538053 7.83368072,0.523590681 8.12200619,0.585362615 C8.41033166,0.646546245 8.66126829,0.817154445 8.81945183,1.05953575 C9.88071964,2.68266686 12.0852231,6.05541447 13.195384,7.75326021 C13.3075505,7.92504502 13.3025174,8.14624737 13.1824417,8.31332575 C13.061647,8.48040412 12.8502563,8.56041348 12.6446176,8.51687898 C9.91379438,7.93504619 3.32904468,6.53194082 0.598221419,5.94951973 C0.393301822,5.90598522 0.235118274,5.7471431 0.198448451,5.54653139 C0.161059613,5.34591968 0.251655645,5.14295476 0.427814597,5.03235358 C2.16711461,3.94163771 5.62126809,1.77491358 7.2843524,0.732438649 L7.2843524,0.732438649 Z"></path>
            </g>
            <g transform="translate(7.829163, 24.916675) rotate(-57.196082) translate(-7.829163, -24.916675) translate(0.998506, 20.504395)" id="Shape" sketch:type="MSShapeGroup">
                <path d="M7.27644736,0.737144911 C7.52666511,0.580656047 7.83080911,0.527120383 8.12129179,0.588892303 C8.41177447,0.650664223 8.6655873,0.823037294 8.82448996,1.06718345 C9.85843574,2.6485446 11.9673112,5.87421543 13.1012003,7.60971223 C13.2299043,7.80620576 13.2234331,8.05799987 13.08682,8.24802206 C12.9494878,8.43863256 12.7078983,8.53040798 12.4742179,8.48040214 C9.70672325,7.89092154 3.53612333,6.5760621 0.768628678,5.98599319 C0.534948304,5.93598735 0.355194169,5.75478972 0.312772194,5.52593946 C0.270350218,5.29767751 0.373888599,5.06647404 0.574494213,4.94057698 C2.35190309,3.8257409 5.65578408,1.75314592 7.27644736,0.737144911 L7.27644736,0.737144911 Z"></path>
            </g>
        </g>
    </g>
</svg>