<?xml version="1.0" encoding="UTF-8" standalone="no"?><!DOCTYPE svg PUBLIC "-//W3C//DTD SVG 1.1//EN" "http://www.w3.org/Graphics/SVG/1.1/DTD/svg11.dtd"><svg width="100%" height="100%" viewBox="0 0 3492 3492" version="1.1" xmlns="http://www.w3.org/2000/svg" xmlns:xlink="http://www.w3.org/1999/xlink" xml:space="preserve" xmlns:serif="http://www.serif.com/" style="fill-rule:evenodd;clip-rule:evenodd;stroke-linejoin:round;stroke-miterlimit:2;"><g><path d="M1374.92,0c758.914,0 1375.06,616.142 1375.06,1375.06c0,758.914 -616.142,1375.06 -1375.06,1375.06c-758.914,0 -1375.06,-616.142 -1375.06,-1375.06c-0,-758.914 616.142,-1375.06 1375.06,-1375.06Zm0,343.764c569.186,0 1031.29,462.107 1031.29,1031.29c0,569.186 -462.106,1031.29 -1031.29,1031.29c-569.186,0 -1031.29,-462.106 -1031.29,-1031.29c-0,-569.185 462.106,-1031.29 1031.29,-1031.29Z" style="fill:#27aae3;"/><circle cx="879.358" cy="1375.06" r="187.572" style="fill:#27aae3;"/><circle cx="1374.92" cy="1375.06" r="187.572" style="fill:#27aae3;"/><circle cx="1870.49" cy="1375.06" r="187.572" style="fill:#27aae3;"/><path d="M2497.15,2350.41l-255.357,-271.621l-139.012,130.688l265.319,282.218l-18.318,213.949l-0.002,0.002l0.002,0.001l-0.005,0.059l0.032,-0.03l705.918,750.879l384.167,-361.165l-705.946,-750.909l-0.485,-0.027l-236.313,5.956Z" style="fill:#27aae3;"/></g></svg>