<?xml version="1.0" encoding="UTF-8" standalone="no"?>
<!DOCTYPE svg PUBLIC "-//W3C//DTD SVG 1.1//EN" "http://www.w3.org/Graphics/SVG/1.1/DTD/svg11.dtd">
<svg width="100%" height="100%" viewBox="0 0 48 48" version="1.1" xmlns="http://www.w3.org/2000/svg" xmlns:xlink="http://www.w3.org/1999/xlink" xml:space="preserve" xmlns:serif="http://www.serif.com/" style="fill-rule:evenodd;clip-rule:evenodd;stroke-linejoin:round;stroke-miterlimit:2;">
    <rect id="Монтажная-область1" serif:id="Монтажная область1" x="0" y="0" width="48" height="48" style="fill:none;"/>
    <g id="Монтажная-область11" serif:id="Монтажная область1">
        <g>
            <g transform="matrix(0.150431,0,0,0.150431,20.41,6.6542)">
                <path d="M43.877,12.866C43.877,8.29 40.166,4.579 35.589,4.579C28.722,4.579 19.008,4.579 12.14,4.579C7.563,4.579 3.852,8.29 3.852,12.866C3.852,19.734 3.852,29.448 3.852,36.316C3.852,40.893 7.563,44.603 12.14,44.603C19.008,44.603 28.722,44.603 35.589,44.603C40.166,44.603 43.877,40.893 43.877,36.316L43.877,12.866Z"/>
            </g>
            <g transform="matrix(0.150431,0,0,0.150431,20.41,20.3007)">
                <path d="M43.877,12.866C43.877,8.29 40.166,4.579 35.589,4.579C28.722,4.579 19.008,4.579 12.14,4.579C7.563,4.579 3.852,8.29 3.852,12.866C3.852,19.734 3.852,29.448 3.852,36.316C3.852,40.893 7.563,44.603 12.14,44.603C19.008,44.603 28.722,44.603 35.589,44.603C40.166,44.603 43.877,40.893 43.877,36.316L43.877,12.866Z"/>
            </g>
            <g transform="matrix(0.150431,0,0,0.150431,20.41,33.9472)">
                <path d="M43.877,12.866C43.877,8.29 40.166,4.579 35.589,4.579C28.722,4.579 19.008,4.579 12.14,4.579C7.563,4.579 3.852,8.29 3.852,12.866C3.852,19.734 3.852,29.448 3.852,36.316C3.852,40.893 7.563,44.603 12.14,44.603C19.008,44.603 28.722,44.603 35.589,44.603C40.166,44.603 43.877,40.893 43.877,36.316L43.877,12.866Z"/>
            </g>
        </g>
    </g>
</svg>
