<?xml version="1.0" encoding="UTF-8" standalone="no"?>
<!DOCTYPE svg PUBLIC "-//W3C//DTD SVG 1.1//EN" "http://www.w3.org/Graphics/SVG/1.1/DTD/svg11.dtd">
<svg width="100%" height="100%" viewBox="0 0 172 172" version="1.1" xmlns="http://www.w3.org/2000/svg" xmlns:xlink="http://www.w3.org/1999/xlink" xml:space="preserve" xmlns:serif="http://www.serif.com/" style="fill-rule:evenodd;clip-rule:evenodd;stroke-linecap:round;stroke-linejoin:round;stroke-miterlimit:1.5;">
    <g transform="matrix(1,0,0,1,-1109,0)">
        <rect id="Монтажная-область6" serif:id="Монтажная область6" x="1109" y="0" width="172" height="172" style="fill:none;"/>
        <g id="Монтажная-область61" serif:id="Монтажная область6">
            <g transform="matrix(1,0,0,1,1109,-8.43769e-14)">
                <g transform="matrix(0.963156,0,0,0.964821,2.72765,2.477)">
                    <g id="Слой1">
                        <path d="M166.922,18.722C166.922,15.412 165.605,12.238 163.261,9.898C160.917,7.557 157.737,6.243 154.422,6.243L18.494,6.243C15.178,6.243 11.999,7.557 9.654,9.898C7.31,12.238 5.993,15.412 5.993,18.722L5.993,154.415C5.993,157.725 7.31,160.899 9.654,163.239C11.999,165.579 15.178,166.894 18.494,166.894L154.422,166.894C157.737,166.894 160.917,165.579 163.261,163.239C165.605,160.899 166.922,157.725 166.922,154.415L166.922,18.722Z" style="stroke:black;stroke-width:2.59px;"/>
                    </g>
                </g>
                <g transform="matrix(0.930473,0,0,0.620366,5.55335,7.85776)">
                    <g id="Слой11" serif:id="Слой1">
                        <path d="M166.922,21.81C166.922,17.681 165.829,13.722 163.882,10.802C161.936,7.883 159.296,6.243 156.543,6.243C127.468,6.243 45.448,6.243 16.372,6.243C13.62,6.243 10.98,7.883 9.033,10.802C7.087,13.722 5.993,17.681 5.993,21.81C5.993,56.418 5.993,138.465 5.993,161.051C5.993,164.278 7.737,166.894 9.889,166.894C31.947,166.894 140.968,166.894 163.027,166.894C165.178,166.894 166.922,164.278 166.922,161.051C166.922,138.465 166.922,56.418 166.922,21.81Z" style="fill:white;"/>
                    </g>
                </g>
                <g transform="matrix(0.890209,0,0,0.890209,-981.471,9.8837)">
                    <path d="M1230.66,90.023L1216.85,90.023L1211.36,75.747L1186.24,75.747L1181.05,90.023L1167.59,90.023L1192.07,27.174L1205.49,27.174L1230.66,90.023ZM1207.29,65.158L1198.63,41.836L1190.14,65.158L1207.29,65.158Z" style="fill-rule:nonzero;"/>
                </g>
                <g transform="matrix(1.30678,0,0,1.30678,-23.808,-0.798868)">
                    <g id="Слой2">
                        <text x="48.015px" y="117.461px" style="font-family:'Arial-BoldMT', 'Arial', sans-serif;font-weight:700;font-size:34.124px;fill:white;">auto</text>
                    </g>
                </g>
            </g>
        </g>
    </g>
</svg>
