<?xml version="1.0" encoding="UTF-8" standalone="no"?>
<!DOCTYPE svg PUBLIC "-//W3C//DTD SVG 1.1//EN" "http://www.w3.org/Graphics/SVG/1.1/DTD/svg11.dtd">
<svg width="100%" height="100%" viewBox="0 0 172 172" version="1.1" xmlns="http://www.w3.org/2000/svg" xmlns:xlink="http://www.w3.org/1999/xlink" xml:space="preserve" xmlns:serif="http://www.serif.com/" style="fill-rule:evenodd;clip-rule:evenodd;stroke-linecap:round;stroke-linejoin:round;stroke-miterlimit:1.5;">
    <g transform="matrix(1,0,0,1,-221,0)">
        <g id="Монтажная-область2" serif:id="Монтажная область2" transform="matrix(1,0,0,1,-1,0)">
            <rect x="222" y="0" width="172" height="172" style="fill:none;"/>
            <g transform="matrix(1,0,0,1,222,4.44089e-15)">
                <g transform="matrix(0.963156,0,0,0.964821,2.72765,2.477)">
                    <g id="Слой1">
                        <path d="M166.922,18.722C166.922,15.412 165.605,12.238 163.261,9.898C160.917,7.557 157.737,6.243 154.422,6.243L18.494,6.243C15.178,6.243 11.999,7.557 9.654,9.898C7.31,12.238 5.993,15.412 5.993,18.722L5.993,154.415C5.993,157.725 7.31,160.899 9.654,163.239C11.999,165.579 15.178,166.894 18.494,166.894L154.422,166.894C157.737,166.894 160.917,165.579 163.261,163.239C165.605,160.899 166.922,157.725 166.922,154.415L166.922,18.722Z" style="stroke:black;stroke-width:2.59px;"/>
                    </g>
                </g>
                <g transform="matrix(0.930473,0,0,0.620366,5.55335,7.85776)">
                    <g id="Слой11" serif:id="Слой1">
                        <path d="M166.922,21.81C166.922,17.681 165.829,13.722 163.882,10.802C161.936,7.883 159.296,6.243 156.543,6.243C127.468,6.243 45.448,6.243 16.372,6.243C13.62,6.243 10.98,7.883 9.033,10.802C7.087,13.722 5.993,17.681 5.993,21.81C5.993,56.418 5.993,138.465 5.993,161.051C5.993,164.278 7.737,166.894 9.889,166.894C31.947,166.894 140.968,166.894 163.027,166.894C165.178,166.894 166.922,164.278 166.922,161.051C166.922,138.465 166.922,56.418 166.922,21.81Z" style="fill:white;"/>
                    </g>
                </g>
                <g transform="matrix(1,0,0,1,-53.6932,68.2817)">
                    <g transform="matrix(1.18246,0,0,1.18246,53.0972,-88.4625)">
                        <path d="M31.141,93.198L31.141,45.883L42.036,45.883L42.036,64.506L58.226,64.506L58.226,45.883L68.968,45.883L68.968,93.198L58.226,93.198L58.226,72.51L42.036,72.51L42.036,93.198L31.141,93.198Z" style="fill-rule:nonzero;"/>
                    </g>
                    <g transform="matrix(1,0,0,0.998576,-4.43401,-32.252)">
                        <path d="M144.127,-1.742L166.473,-1.959C170.389,-1.959 174.172,-1.644 176.972,-0.918C179.773,-0.192 181.675,0.194 183.955,2.192C191.759,9.029 194.936,14.215 194.767,25.529C194.686,30.968 194.641,34.999 190.784,42.451C189.594,44.749 187.058,47.151 184.511,49.033C182.857,50.255 181.22,50.954 179.405,51.783C177.59,52.613 175.638,53.196 173.551,53.534C171.464,53.871 169.111,54.039 166.492,54.039L151.545,54.275L144.127,54.275L144.127,-1.742ZM158.134,9.474L158.362,42.708C158.362,42.708 170.065,44.112 174.277,40.068C177.927,36.564 179.771,34.065 179.908,25.529C180.074,15.155 174.216,10.535 171.726,9.77C169.237,9.005 158.134,9.474 158.134,9.474Z" style="fill-rule:nonzero;"/>
                    </g>
                </g>
                <g transform="matrix(1.30678,0,0,1.30678,-27.6836,-0.798868)">
                    <g id="Слой2">
                        <text x="48.015px" y="117.461px" style="font-family:'Arial-BoldMT', 'Arial', sans-serif;font-weight:700;font-size:34.124px;fill:white;">720р</text>
                    </g>
                </g>
            </g>
        </g>
    </g>
</svg>
