<?xml version="1.0" encoding="UTF-8" standalone="no"?>
<!DOCTYPE svg PUBLIC "-//W3C//DTD SVG 1.1//EN" "http://www.w3.org/Graphics/SVG/1.1/DTD/svg11.dtd">
<svg width="100%" height="100%" viewBox="0 0 172 172" version="1.1" xmlns="http://www.w3.org/2000/svg" xmlns:xlink="http://www.w3.org/1999/xlink" xml:space="preserve" xmlns:serif="http://www.serif.com/" style="fill-rule:evenodd;clip-rule:evenodd;stroke-linecap:round;stroke-linejoin:round;stroke-miterlimit:1.5;">
    <g transform="matrix(1,0,0,1,-665,0)">
        <rect id="Монтажная-область4" serif:id="Монтажная область4" x="665" y="0" width="172" height="172" style="fill:none;"/>
        <g id="Монтажная-область41" serif:id="Монтажная область4">
            <g transform="matrix(1,0,0,1,665,-9.50351e-14)">
                <g transform="matrix(0.963156,0,0,0.964821,2.72765,2.477)">
                    <g id="Слой1">
                        <path d="M166.922,18.722C166.922,15.412 165.605,12.238 163.261,9.898C160.917,7.557 157.737,6.243 154.422,6.243L18.494,6.243C15.178,6.243 11.999,7.557 9.654,9.898C7.31,12.238 5.993,15.412 5.993,18.722L5.993,154.415C5.993,157.725 7.31,160.899 9.654,163.239C11.999,165.579 15.178,166.894 18.494,166.894L154.422,166.894C157.737,166.894 160.917,165.579 163.261,163.239C165.605,160.899 166.922,157.725 166.922,154.415L166.922,18.722Z" style="stroke:black;stroke-width:2.59px;"/>
                    </g>
                </g>
                <g transform="matrix(0.930473,0,0,0.620366,5.55335,7.85776)">
                    <g id="Слой11" serif:id="Слой1">
                        <path d="M166.922,21.81C166.922,17.681 165.829,13.722 163.882,10.802C161.936,7.883 159.296,6.243 156.543,6.243C127.468,6.243 45.448,6.243 16.372,6.243C13.62,6.243 10.98,7.883 9.033,10.802C7.087,13.722 5.993,17.681 5.993,21.81C5.993,56.418 5.993,138.465 5.993,161.051C5.993,164.278 7.737,166.894 9.889,166.894C31.947,166.894 140.968,166.894 163.027,166.894C165.178,166.894 166.922,164.278 166.922,161.051C166.922,138.465 166.922,56.418 166.922,21.81Z" style="fill:white;"/>
                    </g>
                </g>
                <g transform="matrix(2.28945,0,0,2.28945,-35.0248,8.37084)">
                    <path d="M41.141,35.754L41.141,30.728L30.92,30.728L30.92,26.538L41.755,10.677L45.775,10.677L45.775,26.521L48.876,26.521L48.876,30.728L45.775,30.728L45.775,35.754L41.141,35.754ZM41.141,26.521L41.141,17.986L35.4,26.521L41.141,26.521Z" style="fill-rule:nonzero;"/>
                    <path d="M52.283,35.754L52.283,10.78L57.325,10.78L57.325,21.87L67.513,10.78L74.293,10.78L64.889,20.507L74.804,35.754L68.279,35.754L61.414,24.033L57.325,28.207L57.325,35.754L52.283,35.754Z" style="fill-rule:nonzero;"/>
                </g>
                <g transform="matrix(1.30678,0,0,1.30678,-39.6916,-0.798868)">
                    <g id="Слой2">
                        <text x="48.015px" y="117.461px" style="font-family:'Arial-BoldMT', 'Arial', sans-serif;font-weight:700;font-size:34.124px;fill:white;">2160р</text>
                    </g>
                </g>
            </g>
        </g>
    </g>
</svg>
