<?xml version="1.0" encoding="UTF-8" standalone="no"?>
<!DOCTYPE svg PUBLIC "-//W3C//DTD SVG 1.1//EN" "http://www.w3.org/Graphics/SVG/1.1/DTD/svg11.dtd">
<svg width="100%" height="100%" viewBox="0 0 172 172" version="1.1" xmlns="http://www.w3.org/2000/svg" xmlns:xlink="http://www.w3.org/1999/xlink" xml:space="preserve" xmlns:serif="http://www.serif.com/" style="fill-rule:evenodd;clip-rule:evenodd;stroke-linecap:round;stroke-linejoin:round;stroke-miterlimit:1.5;">
    <g id="Монтажная-область1" serif:id="Монтажная область1" transform="matrix(0.869769,0,0,0.911972,-185.467,22.8925)">
        <rect x="213.237" y="-25.102" width="197.754" height="188.602" style="fill:none;"/>
        <g transform="matrix(1.14973,0,0,1.09652,213.237,-25.1022)">
            <g transform="matrix(0.963156,0,0,0.964821,2.72765,2.477)">
                <g id="Слой1">
                    <path d="M166.922,18.722C166.922,15.412 165.605,12.238 163.261,9.898C160.917,7.557 157.737,6.243 154.422,6.243L18.494,6.243C15.178,6.243 11.999,7.557 9.654,9.898C7.31,12.238 5.993,15.412 5.993,18.722L5.993,154.415C5.993,157.725 7.31,160.899 9.654,163.239C11.999,165.579 15.178,166.894 18.494,166.894L154.422,166.894C157.737,166.894 160.917,165.579 163.261,163.239C165.605,160.899 166.922,157.725 166.922,154.415L166.922,18.722Z" style="stroke:black;stroke-width:2.59px;"/>
                </g>
            </g>
            <g transform="matrix(0.930473,0,0,0.620366,5.55335,7.85776)">
                <g id="Слой11" serif:id="Слой1">
                    <path d="M166.922,21.81C166.922,17.681 165.829,13.722 163.882,10.802C161.936,7.883 159.296,6.243 156.543,6.243C127.468,6.243 45.448,6.243 16.372,6.243C13.62,6.243 10.98,7.883 9.033,10.802C7.087,13.722 5.993,17.681 5.993,21.81C5.993,56.418 5.993,138.465 5.993,161.051C5.993,164.278 7.737,166.894 9.889,166.894C31.947,166.894 140.968,166.894 163.027,166.894C165.178,166.894 166.922,164.278 166.922,161.051C166.922,138.465 166.922,56.418 166.922,21.81Z" style="fill:white;"/>
                </g>
            </g>
            <g transform="matrix(1,0,0,1,-56.9297,68.2817)">
                <g transform="matrix(1,0,0,1,1.59538,-32.9857)">
                    <path d="M131.121,31.36C132.145,33.344 135.797,37.838 131.584,46.221C130.114,49.145 127.208,51.122 123.785,52.678C120.362,54.234 116.297,54.755 111.611,55.012C104.115,55.421 94.119,50.704 94.119,50.704L98.518,40.377C98.518,40.377 104.427,42.864 106.098,43.284C108.923,43.994 114.759,43.76 117.449,42.179C119.749,40.827 119.575,38.362 118.421,37.182C117.267,36.002 113.643,34.357 110.107,32.221C106.505,30.046 103.332,29.001 100.262,26.266C97.517,23.82 95.008,21.464 94.119,15.795C93.282,10.452 95.262,6.127 97.825,3.015C101.476,-1.419 108.198,-2.48 112.581,-2.48C116.081,-2.48 122.01,-1.087 124.098,-0.346C126.407,0.473 130.147,2.371 130.147,2.371C130.147,2.371 125.761,12.382 125.141,11.931C123.137,10.473 119.242,9.713 117.122,9.6C115.519,9.514 111.721,9.427 109.893,10.736C108.065,12.046 107.328,14.771 109.575,16.626C110.699,17.553 119.121,21.94 121.528,23.289C124.892,25.173 130.097,29.376 131.121,31.36Z" style="fill-rule:nonzero;"/>
                </g>
                <g transform="matrix(1,0,0,0.998576,-4.43401,-32.252)">
                    <path d="M144.127,-1.742L166.473,-1.959C170.389,-1.959 174.172,-1.644 176.972,-0.918C179.773,-0.192 181.675,0.194 183.955,2.192C191.759,9.029 194.936,14.215 194.767,25.529C194.686,30.968 194.641,34.999 190.784,42.451C189.594,44.749 187.058,47.151 184.511,49.033C182.857,50.255 181.22,50.954 179.405,51.783C177.59,52.613 175.638,53.196 173.551,53.534C171.464,53.871 169.111,54.039 166.492,54.039L151.545,54.275L144.127,54.275L144.127,-1.742ZM158.134,9.474L158.362,42.708C158.362,42.708 170.065,44.112 174.277,40.068C177.927,36.564 179.771,34.065 179.908,25.529C180.074,15.155 174.216,10.535 171.726,9.77C169.237,9.005 158.134,9.474 158.134,9.474Z" style="fill-rule:nonzero;"/>
                </g>
            </g>
            <g transform="matrix(1.30678,0,0,1.30678,-27.1502,-0.798868)">
                <g id="Слой2">
                    <text x="48.015px" y="117.461px" style="font-family:'Arial-BoldMT', 'Arial', sans-serif;font-weight:700;font-size:34.124px;fill:white;">480р</text>
                </g>
            </g>
        </g>
    </g>
</svg>
