<?xml version="1.0" encoding="UTF-8" standalone="no"?>
<!DOCTYPE svg PUBLIC "-//W3C//DTD SVG 1.1//EN" "http://www.w3.org/Graphics/SVG/1.1/DTD/svg11.dtd">
<svg width="100%" height="100%" viewBox="0 0 172 172" version="1.1" xmlns="http://www.w3.org/2000/svg" xmlns:xlink="http://www.w3.org/1999/xlink" xml:space="preserve" xmlns:serif="http://www.serif.com/" style="fill-rule:evenodd;clip-rule:evenodd;stroke-linecap:round;stroke-linejoin:round;stroke-miterlimit:1.5;">
    <g transform="matrix(1,0,0,1,-890.77,0)">
        <g id="Монтажная-область5" serif:id="Монтажная область5" transform="matrix(1,0,0,1,3.76995,0)">
            <rect x="887" y="0" width="172" height="172" style="fill:none;"/>
            <g transform="matrix(1,0,0,1,887,-9.59233e-14)">
                <g transform="matrix(0.963156,0,0,0.964821,2.72765,2.477)">
                    <g id="Слой1">
                        <path d="M166.922,18.722C166.922,15.412 165.605,12.238 163.261,9.898C160.917,7.557 157.737,6.243 154.422,6.243L18.494,6.243C15.178,6.243 11.999,7.557 9.654,9.898C7.31,12.238 5.993,15.412 5.993,18.722L5.993,154.415C5.993,157.725 7.31,160.899 9.654,163.239C11.999,165.579 15.178,166.894 18.494,166.894L154.422,166.894C157.737,166.894 160.917,165.579 163.261,163.239C165.605,160.899 166.922,157.725 166.922,154.415L166.922,18.722Z" style="stroke:black;stroke-width:2.59px;"/>
                    </g>
                </g>
                <g transform="matrix(0.930473,0,0,0.620366,5.55335,7.85776)">
                    <g id="Слой11" serif:id="Слой1">
                        <path d="M166.922,21.81C166.922,17.681 165.829,13.722 163.882,10.802C161.936,7.883 159.296,6.243 156.543,6.243C127.468,6.243 45.448,6.243 16.372,6.243C13.62,6.243 10.98,7.883 9.033,10.802C7.087,13.722 5.993,17.681 5.993,21.81C5.993,56.418 5.993,138.465 5.993,161.051C5.993,164.278 7.737,166.894 9.889,166.894C31.947,166.894 140.968,166.894 163.027,166.894C165.178,166.894 166.922,164.278 166.922,161.051C166.922,138.465 166.922,56.418 166.922,21.81Z" style="fill:white;"/>
                    </g>
                </g>
                <g transform="matrix(2.28945,0,0,2.28945,-35.0248,8.37084)">
                    <path d="M35.86,22.279C34.622,21.756 33.722,21.038 33.16,20.124C32.598,19.209 32.317,18.207 32.317,17.117C32.317,15.254 32.967,13.715 34.267,12.5C35.568,11.285 37.416,10.677 39.813,10.677C42.186,10.677 44.029,11.285 45.341,12.5C46.652,13.715 47.308,15.254 47.308,17.117C47.308,18.275 47.007,19.306 46.405,20.209C45.804,21.112 44.957,21.802 43.867,22.279C45.253,22.835 46.306,23.647 47.027,24.715C47.748,25.782 48.109,27.015 48.109,28.411C48.109,30.717 47.374,32.591 45.903,34.033C44.432,35.476 42.476,36.197 40.034,36.197C37.763,36.197 35.872,35.601 34.361,34.408C32.578,33 31.687,31.069 31.687,28.616C31.687,27.264 32.022,26.024 32.692,24.894C33.362,23.764 34.418,22.892 35.86,22.279ZM36.848,17.458C36.848,18.412 37.118,19.155 37.658,19.689C38.197,20.223 38.915,20.49 39.813,20.49C40.721,20.49 41.448,20.22 41.993,19.681C42.538,19.141 42.811,18.394 42.811,17.44C42.811,16.543 42.541,15.825 42.002,15.285C41.462,14.746 40.75,14.476 39.864,14.476C38.944,14.476 38.211,14.749 37.666,15.294C37.121,15.839 36.848,16.56 36.848,17.458ZM36.405,28.156C36.405,29.473 36.743,30.501 37.419,31.239C38.095,31.978 38.938,32.347 39.949,32.347C40.937,32.347 41.755,31.992 42.402,31.282C43.049,30.572 43.373,29.547 43.373,28.207C43.373,27.037 43.044,26.097 42.385,25.388C41.726,24.678 40.892,24.323 39.881,24.323C38.711,24.323 37.839,24.726 37.266,25.532C36.692,26.339 36.405,27.213 36.405,28.156Z" style="fill-rule:nonzero;"/>
                    <path d="M52.283,35.754L52.283,10.78L57.325,10.78L57.325,21.87L67.513,10.78L74.293,10.78L64.889,20.507L74.804,35.754L68.279,35.754L61.414,24.033L57.325,28.207L57.325,35.754L52.283,35.754Z" style="fill-rule:nonzero;"/>
                </g>
                <g transform="matrix(1.30678,0,0,1.30678,-39.5501,-0.798868)">
                    <g id="Слой2">
                        <text x="48.015px" y="117.461px" style="font-family:'Arial-BoldMT', 'Arial', sans-serif;font-weight:700;font-size:34.124px;fill:white;">4320р</text>
                    </g>
                </g>
            </g>
        </g>
    </g>
</svg>
