<?xml version="1.0" encoding="UTF-8"?>
<svg viewBox="0 0 172 172" version="1.1" xmlns="http://www.w3.org/2000/svg" xmlns:xlink="http://www.w3.org/1999/xlink" xmlns:sketch="http://www.bohemiancoding.com/sketch/ns">
    <g id="Page-1" stroke="none" stroke-width="1" fill="none" fill-rule="evenodd" sketch:type="MSPage">
        <g id="Connection" sketch:type="MSLayerGroup">
            <g id="Group" sketch:type="MSShapeGroup">
                <path d="M0,172 L0,0 L172,0 L172,172 L0,172 Z" id="Shape"></path>
                <g transform="translate(1.000000, 0.000000)" id="Shape" fill="#000000">
                    <path d="M128.82692,1.03365 C118.05108,1.55048 107.6887,6.25361 99.67788,14.26442 L68.2548,45.6875 C73.1905,40.72596 91.51201,44.13702 95.95672,48.58173 L114.97595,29.5625 C119.18809,25.35036 124.45973,22.76622 129.86057,22.53365 C133.53004,22.35276 138.72415,23.128 143.29807,27.70192 C147.56189,31.96574 148.46634,36.92728 148.46634,40.3125 C148.46634,45.97176 145.88221,51.60517 141.43749,56.02404 L108.36057,89.30769 C100.03966,97.62861 87.3774,98.30048 80.03845,90.96154 C75.85216,86.77525 68.95251,86.7494 64.74037,90.96154 C60.52823,95.17368 60.52823,102.04748 64.74037,106.25962 C72.28604,113.80529 82.20912,117.62981 92.44229,117.62981 C103.50239,117.62981 114.79505,113.10757 123.45191,104.39904 L156.73556,71.32212 C165.18568,62.89784 169.96633,51.63102 169.96633,40.3125 C169.96633,29.79507 165.98677,19.79447 158.59614,12.40385 C150.68869,4.4964 140.0679,0.51683 128.82691,1.03366 L128.82692,1.03365 Z M77.55769,54.37019 C66.49759,54.37019 55.02404,58.91827 46.34134,67.60096 L13.26442,100.67788 C4.8143,109.10216 0.03365,120.36899 0.03365,131.6875 C0.03365,142.20493 4.01322,152.20553 11.40384,159.59615 C19.3113,167.50361 29.93208,171.48317 41.17307,170.96634 C51.94891,170.44951 62.31129,165.74639 70.32211,157.73557 L101.74519,126.31249 C96.78365,131.27403 78.48798,127.86297 74.04327,123.41826 L55.02404,142.43749 C50.8119,146.64963 45.54026,149.20793 40.13942,149.46634 C36.46995,149.64723 31.27584,148.87199 26.70192,144.29807 C22.4381,140.03425 21.53365,135.04687 21.53365,131.68749 C21.53365,126.02823 24.11778,120.39482 28.5625,115.97595 L61.63942,82.6923 C69.96034,74.37139 82.62259,73.72535 89.96154,81.03845 C94.17368,85.25059 101.07332,85.25059 105.25962,81.03845 C109.47176,76.82631 109.47176,69.95251 105.25962,65.74037 C97.71395,58.1947 87.76503,54.37018 77.5577,54.37018 L77.55769,54.37019 Z"></path>
                </g>
            </g>
        </g>
    </g>
</svg>