<?xml version="1.0" encoding="UTF-8"?>
<svg viewBox="0 0 160 160" version="1.1" xmlns="http://www.w3.org/2000/svg" xmlns:xlink="http://www.w3.org/1999/xlink" xmlns:sketch="http://www.bohemiancoding.com/sketch/ns">
    <g id="Page-1" stroke="none" stroke-width="1" fill="none" fill-rule="evenodd" sketch:type="MSPage">
        <g id="Dashboard" sketch:type="MSLayerGroup" transform="translate(-6.000000, -6.000000)">
            <g id="Page-1" sketch:type="MSShapeGroup">
                <g id="Dashboard">
                    <g id="Group">
                        <path d="M0,172 L0,0 L172,0 L172,172 L0,172 L0,172 Z" id="Shape"></path>
                        <g id="Shape" transform="translate(6.849558, 6.849558)" fill="#000000">
                            <path d="M79.1504425,0.0304424779 C35.5243625,0.0304424779 0.0304424779,35.5209225 0.0304424779,79.1504425 C0.0304424779,122.779962 35.5243625,158.270442 79.1504425,158.270442 C122.776522,158.270442 158.270442,122.779962 158.270442,79.1504425 C158.270442,35.5209225 122.776522,0.0304424779 79.1504425,0.0304424779 L79.1504425,0.0304424779 L79.1504425,0.0304424779 Z M103.619162,29.5766025 L107.317162,23.4155625 C108.294122,21.7850025 110.402842,21.2586825 112.036842,22.2356425 C113.667402,23.2126025 114.193722,25.3247625 113.216762,26.9553225 L109.518762,33.1163625 C108.872042,34.1930825 107.733402,34.7847625 106.567242,34.7847625 C105.965242,34.7847625 105.352922,34.6265225 104.799082,34.2928425 C103.168522,33.3193225 102.642202,31.2071625 103.619162,29.5766025 L103.619162,29.5766025 L103.619162,29.5766025 Z M75.7104425,16.8692425 C75.7104425,14.9669225 77.2515625,13.4292425 79.1504425,13.4292425 C81.0493225,13.4292425 82.5904425,14.9669225 82.5904425,16.8692425 L82.5904425,23.9556425 C82.5904425,25.8579625 81.0493225,27.3956425 79.1504425,27.3956425 C77.2515625,27.3956425 75.7104425,25.8579625 75.7104425,23.9556425 L75.7104425,16.8692425 L75.7104425,16.8692425 Z M22.6002825,45.9028425 C23.5772425,44.2688425 25.6894025,43.7425225 27.3199625,44.7229225 L33.4810025,48.4174825 C35.1115625,49.3944425 35.6378825,51.5066025 34.6609225,53.1371625 C34.0142025,54.2138825 32.8755625,54.8055625 31.7094025,54.8055625 C31.1074025,54.8055625 30.4950825,54.6473225 29.9446825,54.3136425 L23.7836425,50.6190825 C22.1496425,49.6455625 21.6198825,47.5334025 22.6002825,45.9028425 L22.6002825,45.9028425 L22.6002825,45.9028425 Z M13.7904425,78.7892425 C13.7904425,76.8869225 15.3315625,75.3492425 17.2304425,75.3492425 L24.3168425,75.3492425 C26.2157225,75.3492425 27.7568425,76.8869225 27.7568425,78.7892425 C27.7568425,80.6915625 26.2157225,82.2292425 24.3168425,82.2292425 L17.2304425,82.2292425 C15.3315625,82.2292425 13.7904425,80.6881225 13.7904425,78.7892425 L13.7904425,78.7892425 L13.7904425,78.7892425 Z M134.402008,50.616765 L128.240968,54.314765 C127.687128,54.648445 127.078248,54.806685 126.472808,54.806685 C125.303208,54.806685 124.164568,54.211565 123.521288,53.138285 C122.544328,51.507725 123.070648,49.395565 124.701208,48.418605 L130.862248,44.720605 C132.489368,43.743645 134.604968,44.269965 135.581928,45.900525 C136.558888,47.524205 136.029128,49.639805 134.402008,50.616765 L134.402008,50.616765 L134.402008,50.616765 Z M53.5018025,34.2962825 C52.9479625,34.6299625 52.3390825,34.7882025 51.7336425,34.7882025 C50.5640425,34.7882025 49.4254025,34.1930825 48.7821225,33.1198025 L45.0841225,26.9587625 C44.1071625,25.3282025 44.6334825,23.2160425 46.2640425,22.2390825 C47.8946025,21.2655625 50.0067625,21.7884425 50.9837225,23.4190025 L54.6817225,29.5800425 C55.6586825,31.2071625 55.1323625,33.3193225 53.5018025,34.2962825 L53.5018025,34.2962825 L53.5018025,34.2962825 Z M73.2359123,71.1884508 C74.9962619,69.8773735 77.1876788,69.1002206 79.6365858,69.1429665 C85.4836951,69.2450281 89.8769668,73.7943942 89.7749052,79.6415035 C89.6937961,84.2882357 86.78415,87.9738567 82.6709587,89.2576271 L82.6842963,89.2819436 L22.7568425,111.184201 L73.2159358,71.1502564 L73.2359123,71.1884508 L73.2359123,71.1884508 Z M135.700602,111.672202 C135.053882,112.748922 133.915242,113.340602 132.749082,113.340602 C132.147082,113.340602 131.534762,113.182362 130.980922,112.848682 L124.819882,109.150682 C123.189322,108.173722 122.663002,106.061562 123.639962,104.431002 C124.616922,102.800442 126.729082,102.270682 128.359642,103.251082 L134.520682,106.949082 C136.151242,107.929482 136.681002,110.041642 135.700602,111.672202 L135.700602,111.672202 L135.700602,111.672202 Z M141.070442,82.2292425 L133.984042,82.2292425 C132.085162,82.2292425 130.544042,80.6915625 130.544042,78.7892425 C130.544042,76.8869225 132.085162,75.3492425 133.984042,75.3492425 L141.070442,75.3492425 C142.969322,75.3492425 144.510442,76.8869225 144.510442,78.7892425 C144.510442,80.6915625 142.969322,82.2292425 141.070442,82.2292425 L141.070442,82.2292425 L141.070442,82.2292425 Z"></path>
                        </g>
                    </g>
                </g>
            </g>
        </g>
    </g>
</svg>