<?xml version="1.0" encoding="UTF-8"?>
<svg viewBox="0 0 172 172" version="1.1" xmlns="http://www.w3.org/2000/svg" xmlns:xlink="http://www.w3.org/1999/xlink" xmlns:sketch="http://www.bohemiancoding.com/sketch/ns">
    <g id="Page-1" stroke="none" stroke-width="1" fill="none" fill-rule="evenodd" sketch:type="MSPage">
        <g id="Disconnection" sketch:type="MSLayerGroup">
            <g id="Group" sketch:type="MSShapeGroup">
                <path d="M0,172 L0,0 L172,0 L172,172 L0,172 Z" id="Shape"></path>
                <g id="Shape" fill="#000000">
                    <path d="M15.29808,0 L0,15.29808 L34.52404,39.48558 L39.48558,34.52404 L15.29808,0 Z M129.82692,1.03365 C119.05108,1.55048 108.6887,6.25361 100.67788,14.26442 L69.66826,45.27404 L84.96634,60.57212 L115.97596,29.5625 C120.1881,25.35036 125.45974,22.76622 130.86058,22.53365 C134.53005,22.35276 139.72416,23.128 144.29808,27.70192 C148.5619,31.96574 149.46635,36.92728 149.46635,40.3125 C149.46635,45.97176 146.88222,51.60517 142.4375,56.02404 L111.42788,87.03366 L126.72596,102.33174 L157.73558,71.32212 C166.15986,62.89784 170.96635,51.63102 170.96635,40.3125 C170.96635,29.79507 166.98679,19.79447 159.59616,12.40385 C151.68871,4.52224 141.06792,0.51683 129.82693,1.03366 L129.82692,1.03365 Z M45.27404,69.66827 L14.26442,100.67789 C5.84014,109.10217 1.03365,120.369 1.03365,131.68751 C1.03365,142.20494 5.01322,152.20554 12.40384,159.59616 C20.3113,167.47777 30.93208,171.48318 42.17307,170.96635 C52.94891,170.44952 63.31129,165.7464 71.32211,157.73558 L102.33173,126.72596 L87.03365,111.42788 L56.02403,142.4375 C51.81189,146.64964 46.54025,149.23378 41.13941,149.46635 C37.46994,149.64724 32.27583,148.872 27.70191,144.29808 C23.43809,140.03426 22.53364,135.07272 22.53364,131.6875 C22.53364,126.02824 25.11777,120.39483 29.56249,115.97596 L60.57211,84.96634 L45.27404,69.66827 Z M137.47596,132.51442 L132.51442,137.47596 L156.70192,172 L172,156.70192 L137.47596,132.51442 Z"></path>
                </g>
            </g>
        </g>
    </g>
</svg>