<?xml version="1.0" encoding="UTF-8"?>
<svg viewBox="0 0 172 172" version="1.1" xmlns="http://www.w3.org/2000/svg" xmlns:xlink="http://www.w3.org/1999/xlink" xmlns:sketch="http://www.bohemiancoding.com/sketch/ns">
    <g id="Page-1" stroke="none" stroke-width="1" fill="none" fill-rule="evenodd" sketch:type="MSPage">
        <g id="Group" sketch:type="MSLayerGroup" fill="#000000">
            <path d="M9.51866153,19.0864516 C12.063769,19.0864516 14.3755762,18.0849965 16.0834399,16.4536861 C17.9032304,14.7154658 19.0373231,12.2621284 19.0373231,9.5432258 C19.0373231,4.27264773 14.7756731,0 9.51866153,0 C4.26164993,0 0,4.27264773 0,9.5432258 C0,14.8138039 4.26164993,19.0864516 9.51866153,19.0864516 Z" id="Oval-1-Copy-2" sketch:type="MSShapeGroup"></path>
            <ellipse id="Oval-1-Copy-10-Copy" sketch:type="MSShapeGroup" cx="28.5559846" cy="47.716129" rx="9.51866153" ry="9.5432258"></ellipse>
            <ellipse id="Oval-1-Copy-29-Copy" sketch:type="MSShapeGroup" cx="66.6306307" cy="124.061935" rx="9.51866153" ry="9.5432258"></ellipse>
            <ellipse id="Oval-1-Copy-11-Copy" sketch:type="MSShapeGroup" cx="66.6306307" cy="47.716129" rx="9.51866153" ry="9.5432258"></ellipse>
            <ellipse id="Oval-1-Copy-28-Copy" sketch:type="MSShapeGroup" cx="47.5933076" cy="85.8890323" rx="9.51866153" ry="9.5432258"></ellipse>
            <ellipse id="Oval-1-Copy-12-Copy" sketch:type="MSShapeGroup" cx="104.705277" cy="47.716129" rx="9.51866153" ry="9.5432258"></ellipse>
            <ellipse id="Oval-1-Copy-27-Copy" sketch:type="MSShapeGroup" cx="85.6679538" cy="85.8890323" rx="9.51866153" ry="9.5432258"></ellipse>
            <ellipse id="Oval-1-Copy-30-Copy" sketch:type="MSShapeGroup" cx="104.705277" cy="124.061935" rx="9.51866153" ry="9.5432258"></ellipse>
            <ellipse id="Oval-1-Copy-13-Copy" sketch:type="MSShapeGroup" cx="142.779923" cy="47.716129" rx="9.51866153" ry="9.5432258"></ellipse>
            <ellipse id="Oval-1-Copy-26-Copy" sketch:type="MSShapeGroup" cx="123.7426" cy="85.8890323" rx="9.51866153" ry="9.5432258"></ellipse>
            <ellipse id="Oval-1-Copy-43-Copy" sketch:type="MSShapeGroup" cx="85.6679538" cy="162.234839" rx="9.51866153" ry="9.5432258"></ellipse>
            <ellipse id="Oval-1-Copy" sketch:type="MSShapeGroup" cx="47.5933076" cy="9.5432258" rx="9.51866153" ry="9.5432258"></ellipse>
            <ellipse id="Oval-1-Copy-Copy" sketch:type="MSShapeGroup" cx="85.6679538" cy="9.5432258" rx="9.51866153" ry="9.5432258"></ellipse>
            <ellipse id="Oval-1-Copy-2-Copy" sketch:type="MSShapeGroup" cx="123.7426" cy="9.5432258" rx="9.51866153" ry="9.5432258"></ellipse>
            <ellipse id="Oval-1-Copy-3-Copy" sketch:type="MSShapeGroup" cx="161.817246" cy="9.5432258" rx="9.51866153" ry="9.5432258"></ellipse>
        </g>
    </g>
</svg>