<?xml version="1.0" encoding="UTF-8"?>
<svg viewBox="0 0 159 159" version="1.1" xmlns="http://www.w3.org/2000/svg" xmlns:xlink="http://www.w3.org/1999/xlink" xmlns:sketch="http://www.bohemiancoding.com/sketch/ns">
    <g id="Page-1" stroke="none" stroke-width="1" fill="none" fill-rule="evenodd" sketch:type="MSPage">
        <g id="Star2" sketch:type="MSLayerGroup" transform="translate(-7.000000, -7.000000)">
            <g id="Bold" sketch:type="MSShapeGroup">
                <path d="M43.9290004,108.673823 L35.5350658,160.209084 C34.8659361,164.302976 39.231842,167.375053 42.8424927,165.364601 L86.5015524,141.19936 L130.160612,165.371236 C133.738138,167.361783 138.143794,164.349422 137.468039,160.215719 L129.074105,108.680458 L164.584356,72.2269072 C167.400001,69.3406141 165.78349,64.4438685 161.781962,63.8334341 L112.902365,56.3556126 L90.9933343,9.61756929 C89.3569477,6.1274769 83.6395321,6.1274769 82.0031455,9.61756929 L60.1007401,56.3489774 L11.2211433,63.8267989 C7.2063648,64.4438685 5.60310342,69.3339789 8.4187484,72.220272 L43.9290004,108.673823 Z" id="Shape" fill="#000000"></path>
                <path d="M0,172 L0,0 L173,0 L173,172 L0,172 L0,172 L0,172 Z" id="Shape"></path>
            </g>
        </g>
    </g>
</svg>