<?xml version="1.0" encoding="UTF-8"?>
<svg viewBox="0 0 159 159" version="1.1" xmlns="http://www.w3.org/2000/svg" xmlns:xlink="http://www.w3.org/1999/xlink" xmlns:sketch="http://www.bohemiancoding.com/sketch/ns">
    <g id="Page-1" stroke="none" stroke-width="1" fill="none" fill-rule="evenodd" sketch:type="MSPage">
        <g id="Star1" sketch:type="MSLayerGroup" transform="translate(-7.000000, -7.000000)">
            <g id="regular" sketch:type="MSShapeGroup">
                <path d="M43.9259803,108.524813 L35.5321053,159.981188 C35.2273553,161.856063 36.0157303,163.744188 37.5726053,164.843938 C39.1228553,165.937063 41.1699803,166.056313 42.8394803,165.128813 L86.4982303,141.000563 L130.15698,165.135438 C130.91223,165.546188 131.740355,165.751563 132.561855,165.751563 C133.568855,165.751563 134.56923,165.446813 135.423855,164.843938 C136.98073,163.744188 137.769105,161.856063 137.464355,159.981188 L129.07048,108.524813 L164.58048,72.1270625 C165.87898,70.7954375 166.32948,68.8410625 165.739855,67.0788125 C165.15023,65.3099375 163.619855,64.0313125 161.778105,63.7464375 L112.898855,56.2800625 L90.9899803,9.6135625 C89.3536053,6.1288125 83.6362303,6.1288125 81.9998553,9.6135625 L60.0976053,56.2800625 L11.2183553,63.7464375 C9.37660525,64.0313125 7.84623025,65.3099375 7.25660525,67.0788125 C6.66698025,68.8476875 7.11085525,70.7954375 8.40935525,72.1270625 L43.9259803,108.524813 Z M64.2183553,65.7008125 C65.8547303,65.4490625 67.2592303,64.4023125 67.9614803,62.9050625 L86.4982303,23.4134375 L105.03498,62.8984375 C105.73723,64.3956875 107.14173,65.4490625 108.778105,65.6941875 L150.72098,72.1005625 L120.212855,103.370563 C119.10648,104.496812 118.609605,106.086813 118.861355,107.643687 L126.016355,151.481313 L88.9031053,130.970313 C88.1544803,130.559562 87.3263553,130.347562 86.4982303,130.347562 C85.6701053,130.347562 84.8419803,130.552937 84.0933553,130.970313 L46.9801053,151.481313 L54.1351053,107.643687 C54.3868553,106.086813 53.8899803,104.503438 52.7836053,103.370563 L22.2754803,72.1005625 L64.2183553,65.7008125 Z" id="Shape" fill="#000000"></path>
                <path d="M0,172 L0,0 L172,0 L172,172 L0,172 L0,172 L0,172 Z" id="Shape"></path>
            </g>
        </g>
    </g>
</svg>