<?xml version="1.0" encoding="UTF-8"?>
<svg viewBox="0 0 172 172" version="1.1" xmlns="http://www.w3.org/2000/svg" xmlns:xlink="http://www.w3.org/1999/xlink" xmlns:sketch="http://www.bohemiancoding.com/sketch/ns">
    <g id="Page-1" stroke="none" stroke-width="1" fill="none" fill-rule="evenodd" sketch:type="MSPage">
        <g id="SubjectNavigator" sketch:type="MSLayerGroup">
            <g id="Group" sketch:type="MSShapeGroup">
                <path d="M0,172 L0,0 L172,0 L172,172 L0,172 Z" id="Shape"></path>
                <g transform="translate(0.000000, 34.000000)" id="Shape" fill="#000000">
                    <path d="M86,0.4 C67.75653,0.4 60.2,12.10173 60.2,26.2 C60.2,30.9472 62.47317,35.71823 62.47317,35.71823 C61.56157,36.2457 60.04555,37.92207 60.42395,40.88047 C61.12915,46.39594 63.52363,47.78689 65.04869,47.90156 C65.62776,53.05009 71.16786,59.64253 73.09999,60.6 L73.09999,68.29297 C68.79999,81.19297 34.39999,79.23333 34.39999,109.33333 L137.59999,109.33333 C137.59999,79.23333 103.19999,81.19297 98.89999,68.29297 L98.89999,60.6 C100.83786,59.64253 106.37223,53.05009 106.95129,47.90156 C108.47636,47.78689 110.87083,46.39594 111.57603,40.88047 C111.95442,37.91634 110.43841,36.24569 109.52681,35.71823 C109.52681,35.71823 111.79998,31.4116 111.79998,26.2 C111.79998,15.7596 107.70065,6.85 98.89998,6.85 C98.89998,6.85 95.84411,0.4 85.99998,0.4 L86,0.4 Z M129,11.85547 C126.06453,11.85547 123.56677,12.38643 121.27344,13.14323 C122.52904,17.03616 123.26667,21.37827 123.26667,26.2 C123.26667,29.25013 122.78821,32.04647 122.18047,34.38567 C123.0118,36.84527 123.29739,39.55006 122.94193,42.325 C122.13353,48.6374 119.68271,52.92772 116.60391,55.62812 C115.70951,57.79533 114.48481,59.84857 113.16615,61.80938 C114.79442,65.15191 117.17787,68.12769 118.25001,68.72969 L118.25001,68.79688 C129.92881,74.27221 149.06668,83.476 149.06668,109.33334 L172.00001,109.33334 C172.00001,80.90747 143.33334,84.98907 139.75001,72.80573 L139.75001,68.71849 C141.36108,67.81262 145.97596,61.58739 146.45756,56.72552 C147.72463,56.61659 149.72484,55.30795 150.30964,50.09635 C150.62497,47.29848 149.36436,45.72405 148.60756,45.22525 C148.60756,45.22525 150.50001,41.14679 150.50001,36.23333 C150.50001,26.372 147.08294,17.95833 139.75001,17.95833 C139.75001,17.95833 137.20441,11.85547 129.00001,11.85547 L129,11.85547 Z M43,11.86667 C34.7956,11.86667 32.25,17.95834 32.25,17.95834 C24.91707,17.95834 21.5,26.3832 21.5,36.24454 C21.5,41.16374 23.39245,45.22527 23.39245,45.22527 C22.62992,45.71834 21.37503,47.2985 21.69037,50.09637 C22.27517,55.30797 24.27539,56.6278 25.54245,56.73673 C26.02405,61.5986 30.63894,67.82383 32.25,68.7297 L32.25,72.80574 C28.66667,84.98334 0,80.90748 0,109.33335 L22.93333,109.33335 C22.93333,83.47602 42.0712,74.27796 53.75,68.79689 L53.75,68.7185 C54.82213,68.1165 57.20559,65.15765 58.83386,61.80939 C57.51519,59.84859 56.2905,57.78414 55.3961,55.61694 C52.3173,52.92227 49.86075,48.63168 49.05808,42.32502 C48.69688,39.51569 48.9934,36.76745 49.84193,34.28491 C49.22273,31.92851 48.73334,29.12975 48.73334,26.20002 C48.73334,21.45855 49.40459,17.09979 50.62579,13.12085 C48.36112,12.38125 45.89534,11.86668 43.00001,11.86668 L43,11.86667 Z"></path>
                </g>
            </g>
        </g>
    </g>
</svg>