<?xml version="1.0" encoding="UTF-8" standalone="no"?>
<!DOCTYPE svg PUBLIC "-//W3C//DTD SVG 1.1//EN" "http://www.w3.org/Graphics/SVG/1.1/DTD/svg11.dtd">
<svg width="100%" height="100%" viewBox="0 0 40 40" version="1.1" xmlns="http://www.w3.org/2000/svg" xmlns:xlink="http://www.w3.org/1999/xlink" xml:space="preserve" xmlns:serif="http://www.serif.com/" style="fill-rule:evenodd;clip-rule:evenodd;stroke-linecap:round;stroke-miterlimit:1.5;">
    <g id="Слой3" transform="matrix(1.07763,0,0,1.07763,-1.97311,-3.42919)">
        <path d="M9.999,19.374C9.999,19.374 8.799,13.732 14.366,14.21C14.366,14.21 15.036,11.991 16.77,10.757C18.859,9.27 23.712,8.604 25.92,13.599C25.92,13.599 31.069,10.593 33.605,16.606C33.605,16.606 36.915,17.53 35.535,20.7C35.535,20.7 38.057,22.588 36.512,26.308C36.512,26.308 35.382,29.592 29.859,29.447C25.096,29.322 12.972,29.315 7.863,29.45C6.303,29.492 2.393,26.758 4.059,22.15C4.462,21.036 6.186,18.418 9.999,19.374Z" style="fill:rgb(199,223,245);"/>
        <path d="M17.624,28.852C13.82,28.858 10.134,28.89 7.85,28.951C7.456,28.961 6.891,28.74 6.321,28.35C4.881,27.366 3.466,25.26 4.53,22.32C4.891,21.32 6.647,19.246 9.834,19.813C10.029,19.848 10.42,19.918 10.42,19.918C10.42,19.918 10.378,19.472 10.366,19.229C10.34,18.66 10.296,18.358 10.449,17.333C10.545,16.689 10.776,15.992 11.314,15.475C11.903,14.909 12.848,14.581 14.323,14.708L14.727,14.743L14.844,14.355C14.844,14.355 15.459,12.304 17.06,11.164C18.98,9.797 23.433,9.21 25.463,13.801L25.625,14.367L26.172,14.03C26.172,14.03 29.335,12.167 31.724,14.569C31.918,14.765 32.235,14.765 32.431,14.571C32.627,14.376 32.627,14.059 32.433,13.864C30.147,11.566 27.284,12.445 26.157,12.93C23.68,8.043 18.671,8.79 16.48,10.35C15.069,11.354 14.31,12.961 14.023,13.688C12.379,13.621 11.314,14.089 10.621,14.754C9.914,15.433 9.586,16.338 9.46,17.186C9.372,17.772 9.381,18.327 9.414,18.744C5.705,18.167 4.007,20.824 3.589,21.98C2.319,25.492 4.036,28 5.756,29.176C6.54,29.711 7.335,29.965 7.877,29.95C10.155,29.89 13.831,29.858 17.626,29.852C17.902,29.851 18.125,29.627 18.125,29.351C18.124,29.075 17.9,28.851 17.624,28.852Z" style="fill:rgb(91,148,203);"/>
        <g>
            <g transform="matrix(0.668514,-0.668609,0.773888,0.773778,-2.68708,19.1548)">
                <path d="M29.908,22.675C29.908,21.966 29.582,21.285 29.001,20.784C28.42,20.282 27.632,20 26.811,20C25.372,20 23.665,20 22.226,20C21.405,20 20.617,20.282 20.036,20.784C19.456,21.285 19.129,21.966 19.129,22.675C19.129,22.977 19.129,23.285 19.129,23.587C19.129,24.297 19.456,24.977 20.036,25.479C20.617,25.981 21.405,26.263 22.226,26.263C23.665,26.263 25.372,26.263 26.811,26.263C27.632,26.263 28.42,25.981 29.001,25.479C29.582,24.977 29.908,24.297 29.908,23.587C29.908,23.285 29.908,22.977 29.908,22.675ZM28.926,22.675L28.926,23.587C28.926,24.072 28.703,24.537 28.307,24.879C27.91,25.222 27.372,25.415 26.811,25.415C25.372,25.415 23.665,25.415 22.226,25.415C21.665,25.415 21.127,25.222 20.73,24.879C20.334,24.537 20.111,24.072 20.111,23.587C20.111,23.285 20.111,22.977 20.111,22.675C20.111,22.191 20.334,21.726 20.73,21.383C21.127,21.04 21.665,20.848 22.226,20.848C23.665,20.848 25.372,20.848 26.811,20.848C27.372,20.848 27.91,21.04 28.307,21.383C28.703,21.726 28.926,22.191 28.926,22.675Z" style="fill:rgb(91,148,203);"/>
            </g>
            <g transform="matrix(0.668514,-0.668609,0.773888,0.773778,-10.2703,26.7799)">
                <path d="M29.908,22.675C29.908,21.966 29.582,21.285 29.001,20.784C28.42,20.282 27.632,20 26.811,20C25.372,20 23.665,20 22.226,20C21.405,20 20.617,20.282 20.036,20.784C19.456,21.285 19.129,21.966 19.129,22.675C19.129,22.977 19.129,23.285 19.129,23.587C19.129,24.297 19.456,24.977 20.036,25.479C20.617,25.981 21.405,26.263 22.226,26.263C23.665,26.263 25.372,26.263 26.811,26.263C27.632,26.263 28.42,25.981 29.001,25.479C29.582,24.977 29.908,24.297 29.908,23.587C29.908,23.285 29.908,22.977 29.908,22.675ZM28.926,22.675L28.926,23.587C28.926,24.072 28.703,24.537 28.307,24.879C27.91,25.222 27.372,25.415 26.811,25.415C25.372,25.415 23.665,25.415 22.226,25.415C21.665,25.415 21.127,25.222 20.73,24.879C20.334,24.537 20.111,24.072 20.111,23.587C20.111,23.285 20.111,22.977 20.111,22.675C20.111,22.191 20.334,21.726 20.73,21.383C21.127,21.04 21.665,20.848 22.226,20.848C23.665,20.848 25.372,20.848 26.811,20.848C27.372,20.848 27.91,21.04 28.307,21.383C28.703,21.726 28.926,22.191 28.926,22.675Z" style="fill:rgb(91,148,203);"/>
            </g>
            <g transform="matrix(0.991136,0.00897865,0.00897865,0.990905,0.0499153,-0.050563)">
                <path d="M30.779,21.519L24.852,27.515" style="fill:none;stroke:rgb(91,148,203);stroke-width:0.93px;"/>
            </g>
        </g>
    </g>
</svg>
