<?xml version="1.0" encoding="UTF-8" standalone="no"?>
<!DOCTYPE svg PUBLIC "-//W3C//DTD SVG 1.1//EN" "http://www.w3.org/Graphics/SVG/1.1/DTD/svg11.dtd">
<svg viewBox="0 0 40 40" version="1.1" xmlns="http://www.w3.org/2000/svg" xmlns:xlink="http://www.w3.org/1999/xlink" xml:space="preserve" xmlns:serif="http://www.serif.com/" style="fill-rule:evenodd;clip-rule:evenodd;stroke-linejoin:round;stroke-miterlimit:2;">
    <g transform="matrix(0.972045,0,0,0.972045,4.78926,3.716)">
        <path d="M16.566,7.196C15.566,6.272 14.94,4.949 14.94,3.482C14.94,0.689 17.207,-1.578 20,-1.578C22.793,-1.578 25.06,0.689 25.06,3.482C25.06,4.949 24.434,6.272 23.434,7.196L33.943,7.196L33.943,14.157C33.032,13.681 31.995,13.411 30.896,13.411C27.26,13.411 24.307,16.363 24.307,20C24.307,23.637 27.26,26.589 30.896,26.589C31.995,26.589 33.032,26.319 33.943,25.843L33.943,35.083L6.057,35.083L6.057,23.509C5.136,24.465 3.844,25.06 2.413,25.06C-0.38,25.06 -2.647,22.793 -2.647,20C-2.647,17.207 -0.38,14.94 2.413,14.94C3.844,14.94 5.136,15.535 6.057,16.491L6.057,7.196L16.566,7.196Z" style="fill:rgb(223,240,254);"/>
        <path d="M14.581,6.196L5.057,6.196L5.057,14.546C4.257,14.158 3.36,13.94 2.413,13.94C-0.931,13.94 -3.647,16.655 -3.647,20C-3.647,23.345 -0.931,26.06 2.413,26.06C3.361,26.06 4.258,25.842 5.057,25.454C5.057,25.454 5.057,36.083 5.057,36.083L34.943,36.083L34.943,23.867C34.943,23.867 34.082,24.625 33.48,24.957C32.838,25.31 31.828,25.589 30.896,25.589C27.812,25.589 25.307,23.085 25.307,20C25.307,16.915 27.812,14.411 30.896,14.411C31.828,14.411 32.854,14.66 33.48,15.043C34.061,15.4 34.943,16.147 34.943,16.147L34.943,6.196L25.419,6.196C25.829,5.379 26.06,4.457 26.06,3.482C26.06,0.137 23.345,-2.578 20,-2.578C16.655,-2.578 13.94,0.137 13.94,3.482C13.94,4.457 14.171,5.379 14.581,6.196L14.581,6.196ZM16.566,7.196C15.566,6.272 14.94,4.949 14.94,3.482C14.94,0.689 17.207,-1.578 20,-1.578C22.793,-1.578 25.06,0.689 25.06,3.482C25.06,4.949 24.434,6.272 23.434,7.196L33.943,7.196L33.943,14.157C33.032,13.681 31.995,13.411 30.896,13.411C27.26,13.411 24.307,16.363 24.307,20C24.307,23.637 27.26,26.589 30.896,26.589C31.995,26.589 33.032,26.319 33.943,25.843L33.943,35.083L6.057,35.083L6.057,23.509C5.136,24.465 3.844,25.06 2.413,25.06C-0.38,25.06 -2.647,22.793 -2.647,20C-2.647,17.207 -0.38,14.94 2.413,14.94C3.844,14.94 5.136,15.535 6.057,16.491L6.057,7.196L16.566,7.196Z" style="fill:rgb(71,136,199);"/>
    </g>
</svg>
