<?xml version="1.0" encoding="UTF-8" standalone="no"?>
<!DOCTYPE svg PUBLIC "-//W3C//DTD SVG 1.1//EN" "http://www.w3.org/Graphics/SVG/1.1/DTD/svg11.dtd">
<svg width="100%" height="100%" viewBox="0 0 40 40" version="1.1" xmlns="http://www.w3.org/2000/svg" xmlns:xlink="http://www.w3.org/1999/xlink" xml:space="preserve" xmlns:serif="http://www.serif.com/" style="fill-rule:evenodd;clip-rule:evenodd;stroke-linejoin:round;stroke-miterlimit:2;">
    <g transform="matrix(1.0572,0,0,1.0572,-4.83815,-5.19456)">
        <g transform="matrix(1,0,0,1.12563,0,-0.753761)">
            <rect x="4.576" y="6" width="37.836" height="31.682" style="fill:rgb(223,240,254);"/>
        </g>
        <g transform="matrix(1,0,0,1.12563,0,-0.753761)">
            <path d="M42.412,6L4.576,6L4.576,37.683L42.412,37.683L42.412,6ZM41.466,6.84L41.466,36.842C41.466,36.842 5.522,36.842 5.522,36.842C5.522,36.842 5.522,6.84 5.522,6.84L41.466,6.84Z" style="fill:rgb(71,136,199);"/>
        </g>
        <g>
            <g transform="matrix(1,0,0,1,-0.0828245,-0.162881)">
                <g transform="matrix(1.95666,0,0,1.95666,-41.0015,-6.5273)">
                    <rect x="39.032" y="7.477" width="2.556" height="2.556" style="fill:white;"/>
                    <path d="M41.589,7.477L39.032,7.477L39.032,10.034L41.589,10.034L41.589,7.477ZM41.106,7.96L41.106,9.55C41.106,9.55 39.516,9.55 39.516,9.55C39.516,9.55 39.516,7.96 39.516,7.96C39.516,7.96 41.106,7.96 41.106,7.96Z" style="fill:rgb(71,136,199);"/>
                </g>
                <g transform="matrix(1.95666,0,0,1.95666,-41.0015,20.2536)">
                    <rect x="39.032" y="7.477" width="2.556" height="2.556" style="fill:white;"/>
                    <path d="M41.589,7.477L39.032,7.477L39.032,10.034L41.589,10.034L41.589,7.477ZM41.106,7.96L41.106,9.55C41.106,9.55 39.516,9.55 39.516,9.55C39.516,9.55 39.516,7.96 39.516,7.96C39.516,7.96 41.106,7.96 41.106,7.96Z" style="fill:rgb(71,136,199);"/>
                </g>
                <g transform="matrix(1.95666,0,0,1.95666,-41.0015,0.155562)">
                    <rect x="39.032" y="7.477" width="2.556" height="2.556" style="fill:white;"/>
                    <path d="M41.589,7.477L39.032,7.477L39.032,10.034L41.589,10.034L41.589,7.477ZM41.106,7.96L41.106,9.55C41.106,9.55 39.516,9.55 39.516,9.55C39.516,9.55 39.516,7.96 39.516,7.96C39.516,7.96 41.106,7.96 41.106,7.96Z" style="fill:rgb(71,136,199);"/>
                </g>
                <g transform="matrix(1.95666,0,0,1.95666,-41.0015,6.86888)">
                    <rect x="39.032" y="7.477" width="2.556" height="2.556" style="fill:white;"/>
                    <path d="M41.589,7.477L39.032,7.477L39.032,10.034L41.589,10.034L41.589,7.477ZM41.106,7.96L41.106,9.55C41.106,9.55 39.516,9.55 39.516,9.55C39.516,9.55 39.516,7.96 39.516,7.96C39.516,7.96 41.106,7.96 41.106,7.96Z" style="fill:rgb(71,136,199);"/>
                </g>
                <g transform="matrix(1.95666,0,0,1.95666,-41.0015,13.6117)">
                    <rect x="39.032" y="7.477" width="2.556" height="2.556" style="fill:white;"/>
                    <path d="M41.589,7.477L39.032,7.477L39.032,10.034L41.589,10.034L41.589,7.477ZM41.106,7.96L41.106,9.55C41.106,9.55 39.516,9.55 39.516,9.55C39.516,9.55 39.516,7.96 39.516,7.96C39.516,7.96 41.106,7.96 41.106,7.96Z" style="fill:rgb(71,136,199);"/>
                </g>
            </g>
            <g transform="matrix(-6.12323e-17,-1,-1,6.12323e-17,45.6878,46.7406)">
                <path d="M23.537,15.727L29.264,25.988L17.811,25.988L23.537,15.727Z" style="fill:rgb(71,136,199);"/>
            </g>
            <g transform="matrix(1,0,0,1,-28.6745,-0.162881)">
                <g transform="matrix(1.95666,0,0,1.95666,-41.0015,-6.5273)">
                    <rect x="39.032" y="7.477" width="2.556" height="2.556" style="fill:white;"/>
                    <path d="M41.589,7.477L39.032,7.477L39.032,10.034L41.589,10.034L41.589,7.477ZM41.106,7.96L41.106,9.55C41.106,9.55 39.516,9.55 39.516,9.55C39.516,9.55 39.516,7.96 39.516,7.96C39.516,7.96 41.106,7.96 41.106,7.96Z" style="fill:rgb(71,136,199);"/>
                </g>
                <g transform="matrix(1.95666,0,0,1.95666,-41.0015,20.2536)">
                    <rect x="39.032" y="7.477" width="2.556" height="2.556" style="fill:white;"/>
                    <path d="M41.589,7.477L39.032,7.477L39.032,10.034L41.589,10.034L41.589,7.477ZM41.106,7.96L41.106,9.55C41.106,9.55 39.516,9.55 39.516,9.55C39.516,9.55 39.516,7.96 39.516,7.96C39.516,7.96 41.106,7.96 41.106,7.96Z" style="fill:rgb(71,136,199);"/>
                </g>
                <g transform="matrix(1.95666,0,0,1.95666,-41.0015,0.155562)">
                    <rect x="39.032" y="7.477" width="2.556" height="2.556" style="fill:white;"/>
                    <path d="M41.589,7.477L39.032,7.477L39.032,10.034L41.589,10.034L41.589,7.477ZM41.106,7.96L41.106,9.55C41.106,9.55 39.516,9.55 39.516,9.55C39.516,9.55 39.516,7.96 39.516,7.96C39.516,7.96 41.106,7.96 41.106,7.96Z" style="fill:rgb(71,136,199);"/>
                </g>
                <g transform="matrix(1.95666,0,0,1.95666,-41.0015,6.86888)">
                    <rect x="39.032" y="7.477" width="2.556" height="2.556" style="fill:white;"/>
                    <path d="M41.589,7.477L39.032,7.477L39.032,10.034L41.589,10.034L41.589,7.477ZM41.106,7.96L41.106,9.55C41.106,9.55 39.516,9.55 39.516,9.55C39.516,9.55 39.516,7.96 39.516,7.96C39.516,7.96 41.106,7.96 41.106,7.96Z" style="fill:rgb(71,136,199);"/>
                </g>
                <g transform="matrix(1.95666,0,0,1.95666,-41.0015,13.6117)">
                    <rect x="39.032" y="7.477" width="2.556" height="2.556" style="fill:white;"/>
                    <path d="M41.589,7.477L39.032,7.477L39.032,10.034L41.589,10.034L41.589,7.477ZM41.106,7.96L41.106,9.55C41.106,9.55 39.516,9.55 39.516,9.55C39.516,9.55 39.516,7.96 39.516,7.96C39.516,7.96 41.106,7.96 41.106,7.96Z" style="fill:rgb(71,136,199);"/>
                </g>
            </g>
        </g>
    </g>
</svg>
