<?xml version="1.0" encoding="UTF-8" standalone="no"?>
<!DOCTYPE svg PUBLIC "-//W3C//DTD SVG 1.1//EN" "http://www.w3.org/Graphics/SVG/1.1/DTD/svg11.dtd">
<svg width="100%" height="100%" viewBox="0 0 40 40" version="1.1" xmlns="http://www.w3.org/2000/svg" xmlns:xlink="http://www.w3.org/1999/xlink" xml:space="preserve" xmlns:serif="http://www.serif.com/" style="fill-rule:evenodd;clip-rule:evenodd;stroke-linecap:round;stroke-miterlimit:1.5;">
    <g transform="matrix(1.14295,0,0,1.14295,-2.8891,-2.88878)">
        <g transform="matrix(0.981573,0,0,1.07877,0.311949,-0.480081)">
            <path d="M35.22,9.954C35.22,9.611 35.07,9.281 34.803,9.038C34.536,8.795 34.174,8.659 33.796,8.659C28.756,8.659 11.787,8.659 6.747,8.659C6.37,8.659 6.008,8.795 5.741,9.038C5.474,9.281 5.324,9.611 5.324,9.954C5.324,14.299 5.324,28.09 5.324,28.09L35.22,28.09L35.22,9.954Z" style="fill:rgb(199,223,245);stroke:rgb(91,148,203);stroke-width:0.85px;"/>
        </g>
        <path d="M26.837,28.09C26.743,28.252 26.628,28.403 26.493,28.538C26.087,28.944 25.537,29.172 24.963,29.172C22.37,29.172 18.051,29.172 15.457,29.172C14.883,29.172 14.333,28.944 13.927,28.538C13.792,28.403 13.677,28.252 13.583,28.09L3.63,28.09L3.63,28.091C3.63,30.004 5.181,31.555 7.094,31.555C13.462,31.555 26.958,31.555 33.326,31.555C35.239,31.555 36.79,30.004 36.79,28.091C36.79,28.09 36.79,28.09 36.79,28.09L26.837,28.09Z" style="fill:rgb(91,148,203);stroke:rgb(91,148,203);stroke-width:0.87px;"/>
        <g transform="matrix(2.69571,0,0,2.69571,-57.6372,-28.7056)">
            <path d="M30.7,16.967L30.738,18.138" style="fill:none;stroke:rgb(71,136,199);stroke-width:0.13px;stroke-linejoin:round;"/>
            <g transform="matrix(1,0,0,1,-1.18903,-0.51935)">
                <path d="M32.163,19.212L31.69,19.212L31.808,18.657L32.045,18.657L32.163,19.212Z" style="fill:rgb(71,136,199);"/>
            </g>
            <g transform="matrix(1.04781,0.00170191,0,0.864118,-1.38275,1.12711)">
                <path d="M28.88,16.918L31.19,18.273L28.88,19.629L26.571,18.273L28.88,16.918Z" style="fill:rgb(71,136,199);"/>
            </g>
            <g transform="matrix(1,0,0,1,-0.0207435,-0.154772)">
                <path d="M30.136,17.836L28.878,18.415L27.658,17.836L27.662,19.154C27.662,19.154 28.257,19.616 28.878,19.612C29.494,19.608 30.14,19.154 30.14,19.154L30.136,17.836Z" style="fill:rgb(71,136,199);"/>
            </g>
        </g>
    </g>
</svg>
