<?xml version="1.0" encoding="UTF-8" standalone="no"?>
<!DOCTYPE svg PUBLIC "-//W3C//DTD SVG 1.1//EN" "http://www.w3.org/Graphics/SVG/1.1/DTD/svg11.dtd">
<svg width="100%" height="100%" viewBox="0 0 450 450" version="1.1" xmlns="http://www.w3.org/2000/svg" xmlns:xlink="http://www.w3.org/1999/xlink" xml:space="preserve" style="fill-rule:evenodd;clip-rule:evenodd;stroke-linejoin:round;stroke-miterlimit:2;">
    <g transform="matrix(3.01924,0,0,3.01924,-3582.91,-1593.05)">
        <path d="M1261.21,672.349C1233.53,653.144 1206.08,629.661 1206.08,621L1206.08,553.901C1217.44,552.307 1226.42,543.328 1228.01,531.962L1294.42,531.962C1296.01,543.327 1304.99,552.307 1316.35,553.901L1316.35,621C1316.35,629.661 1288.9,653.144 1261.21,672.349Z" style="fill:none;fill-rule:nonzero;stroke:rgb(230,230,230);stroke-width:3.25px;"/>
    </g>
    <g transform="matrix(2.65717,0,0,2.65717,-3126.26,-1375.03)">
        <path d="M1261.21,672.349C1233.53,653.144 1206.08,629.661 1206.08,621L1206.08,553.901C1217.44,552.307 1226.42,543.328 1228.01,531.962L1294.42,531.962C1296.01,543.327 1304.99,552.307 1316.35,553.901L1316.35,621C1316.35,629.661 1288.9,653.144 1261.21,672.349Z" style="fill:rgb(238,238,238);fill-rule:nonzero;stroke:rgb(129,129,129);stroke-width:1.72px;"/>
    </g>
</svg>
