<?xml version="1.0" encoding="UTF-8" standalone="no"?>
<!DOCTYPE svg PUBLIC "-//W3C//DTD SVG 1.1//EN" "http://www.w3.org/Graphics/SVG/1.1/DTD/svg11.dtd">
<svg width="100%" height="100%" viewBox="0 0 48 48" version="1.1" xmlns="http://www.w3.org/2000/svg" xmlns:xlink="http://www.w3.org/1999/xlink" xml:space="preserve" xmlns:serif="http://www.serif.com/" style="fill-rule:evenodd;clip-rule:evenodd;stroke-linejoin:round;stroke-miterlimit:2;">
    <g transform="matrix(1.00831,0,0,1.02444,-0.43997,-0.532297)">
        <path d="M30.243,9.211C30.243,8.672 29.799,8.235 29.251,8.235C27.703,8.235 24.729,8.235 23.181,8.235C22.633,8.235 22.189,8.672 22.189,9.211C22.189,9.84 22.189,10.655 22.189,11.284C22.189,11.823 22.633,12.26 23.181,12.26C24.729,12.26 27.703,12.26 29.251,12.26C29.799,12.26 30.243,11.823 30.243,11.284C30.243,10.655 30.243,9.84 30.243,9.211Z" style="fill:url(#_Linear1);"/>
    </g>
    <g transform="matrix(1.00831,0,0,1.02444,-0.43997,13.502)">
        <path d="M30.243,9.211C30.243,8.672 29.799,8.235 29.251,8.235C27.703,8.235 24.729,8.235 23.181,8.235C22.633,8.235 22.189,8.672 22.189,9.211C22.189,9.84 22.189,10.655 22.189,11.284C22.189,11.823 22.633,12.26 23.181,12.26C24.729,12.26 27.703,12.26 29.251,12.26C29.799,12.26 30.243,11.823 30.243,11.284C30.243,10.655 30.243,9.84 30.243,9.211Z" style="fill:url(#_Linear2);"/>
    </g>
    <g transform="matrix(1.00831,0,0,1.02444,-0.43997,27.5362)">
        <path d="M30.243,9.211C30.243,8.672 29.799,8.235 29.251,8.235C27.703,8.235 24.729,8.235 23.181,8.235C22.633,8.235 22.189,8.672 22.189,9.211C22.189,9.84 22.189,10.655 22.189,11.284C22.189,11.823 22.633,12.26 23.181,12.26C24.729,12.26 27.703,12.26 29.251,12.26C29.799,12.26 30.243,11.823 30.243,11.284C30.243,10.655 30.243,9.84 30.243,9.211Z" style="fill:url(#_Linear3);"/>
    </g>
    <g transform="matrix(1.00831,0,0,1.02444,11.5297,-0.532297)">
        <path d="M30.243,9.211C30.243,8.672 29.799,8.235 29.251,8.235C27.703,8.235 24.729,8.235 23.181,8.235C22.633,8.235 22.189,8.672 22.189,9.211C22.189,9.84 22.189,10.655 22.189,11.284C22.189,11.823 22.633,12.26 23.181,12.26C24.729,12.26 27.703,12.26 29.251,12.26C29.799,12.26 30.243,11.823 30.243,11.284C30.243,10.655 30.243,9.84 30.243,9.211Z" style="fill:url(#_Linear4);"/>
    </g>
    <g transform="matrix(1.00831,0,0,1.02444,11.5297,13.502)">
        <path d="M30.243,9.211C30.243,8.672 29.799,8.235 29.251,8.235C27.703,8.235 24.729,8.235 23.181,8.235C22.633,8.235 22.189,8.672 22.189,9.211C22.189,9.84 22.189,10.655 22.189,11.284C22.189,11.823 22.633,12.26 23.181,12.26C24.729,12.26 27.703,12.26 29.251,12.26C29.799,12.26 30.243,11.823 30.243,11.284C30.243,10.655 30.243,9.84 30.243,9.211Z" style="fill:url(#_Linear5);"/>
    </g>
    <g transform="matrix(1.00831,0,0,1.02444,11.5297,27.5362)">
        <path d="M30.243,9.211C30.243,8.672 29.799,8.235 29.251,8.235C27.703,8.235 24.729,8.235 23.181,8.235C22.633,8.235 22.189,8.672 22.189,9.211C22.189,9.84 22.189,10.655 22.189,11.284C22.189,11.823 22.633,12.26 23.181,12.26C24.729,12.26 27.703,12.26 29.251,12.26C29.799,12.26 30.243,11.823 30.243,11.284C30.243,10.655 30.243,9.84 30.243,9.211Z" style="fill:url(#_Linear6);"/>
    </g>
    <g>
        <path d="M17.99,4.99C17.99,4.437 17.543,3.99 16.99,3.99C14.74,3.99 9.3,3.99 7.05,3.99C6.497,3.99 6.05,4.437 6.05,4.99C6.05,7.258 6.05,12.772 6.05,15.04C6.05,15.592 6.497,16.04 7.05,16.04C9.3,16.04 14.74,16.04 16.99,16.04C17.543,16.04 17.99,15.592 17.99,15.04C17.99,12.772 17.99,7.258 17.99,4.99Z" style="fill:url(#_Linear7);"/>
        <g transform="matrix(-0.823012,0,0,0.754535,22.9693,3.97004)">
            <path d="M6.05,12.276C6.05,12.276 7.832,9.658 8.785,8.283C9.129,7.787 9.867,7.879 10.207,8.298C11.598,10.014 14.826,13.962 16.299,16.04C16.29,16.05 10.071,16.045 7.326,16.042C6.997,16.059 6.675,15.929 6.436,15.681C6.197,15.432 6.062,15.088 6.062,14.728C6.05,13.642 6.05,12.276 6.05,12.276Z" style="fill:rgb(250,193,0);"/>
        </g>
        <path d="M6.05,12.276C6.05,12.276 7.832,9.658 8.785,8.283C9.129,7.787 9.867,7.879 10.207,8.298C11.598,10.014 14.826,13.962 16.299,16.04C16.29,16.05 9.7,16.044 7.093,16.041C6.823,16.053 6.56,15.953 6.364,15.766C6.169,15.579 6.059,15.32 6.059,15.049C6.05,13.934 6.05,12.276 6.05,12.276Z" style="fill:url(#_Linear8);"/>
        <g transform="matrix(1.57711,0,0,1.57711,-8.86221,-2.56623)">
            <circle cx="15.498" cy="5.838" r="0.801" style="fill:rgb(255,248,195);"/>
        </g>
    </g>
    <g>
        <g transform="matrix(1,0,0,1,0,27.9378)">
            <path d="M17.99,4.99C17.99,4.437 17.543,3.99 16.99,3.99C14.74,3.99 9.3,3.99 7.05,3.99C6.497,3.99 6.05,4.437 6.05,4.99C6.05,7.258 6.05,12.772 6.05,15.04C6.05,15.592 6.497,16.04 7.05,16.04C9.3,16.04 14.74,16.04 16.99,16.04C17.543,16.04 17.99,15.592 17.99,15.04C17.99,12.772 17.99,7.258 17.99,4.99Z" style="fill:url(#_Linear9);"/>
        </g>
        <g transform="matrix(1.39622,0,0,1.39622,-33.7346,10.0967)">
            <path d="M33.238,16.943C33.062,16.862 32.77,16.598 32.77,16.598C32.77,16.598 32.479,16.862 32.303,16.943C32.116,17.03 31.855,17.1 31.648,17.119C31.453,17.137 31.062,17.058 31.062,17.058C31.062,17.058 30.948,17.429 30.839,17.586C30.722,17.754 30.527,17.95 30.36,18.066C30.205,18.173 29.837,18.279 29.837,18.279C29.837,18.279 29.912,18.676 29.893,18.875C29.873,19.083 29.804,19.343 29.717,19.53C29.636,19.705 29.371,19.997 29.371,19.997C29.371,19.997 29.636,20.288 29.717,20.464C29.804,20.651 29.875,20.915 29.893,21.119C29.909,21.309 29.822,21.687 29.822,21.687C29.822,21.687 30.199,21.814 30.36,21.928C30.529,22.048 30.731,22.245 30.839,22.407C30.936,22.553 31.009,22.904 31.009,22.904C31.009,22.904 31.436,22.851 31.648,22.875C31.864,22.899 32.116,22.963 32.303,23.05C32.479,23.132 32.77,23.396 32.77,23.396C32.77,23.396 33.062,23.132 33.238,23.05C33.425,22.963 33.683,22.895 33.892,22.875C34.093,22.855 34.494,22.926 34.494,22.926C34.494,22.926 34.596,22.561 34.702,22.407C34.816,22.241 35.014,22.044 35.181,21.928C35.336,21.82 35.705,21.712 35.705,21.712C35.705,21.712 35.629,21.316 35.648,21.119C35.668,20.911 35.737,20.651 35.824,20.464C35.905,20.288 36.169,19.997 36.169,19.997C36.169,19.997 35.905,19.705 35.824,19.53C35.737,19.343 35.666,19.079 35.648,18.875C35.632,18.684 35.719,18.306 35.719,18.306C35.719,18.306 35.341,18.179 35.181,18.066C35.011,17.945 34.808,17.765 34.702,17.586C34.597,17.41 34.542,16.993 34.542,16.993C34.542,16.993 34.11,17.127 33.892,17.119C33.675,17.111 33.425,17.03 33.238,16.943Z" style="fill:rgb(248,188,14);"/>
        </g>
        <g transform="matrix(1.00929,0,0,1.00929,-1.16042,-1.36488)">
            <circle cx="13.059" cy="39.017" r="3.432" style="fill:rgb(255,227,0);"/>
        </g>
        <g transform="matrix(0.921522,0,0,0.921522,-0.0142425,2.05958)">
            <circle cx="13.059" cy="39.017" r="3.432" style="fill:url(#_Linear10);"/>
        </g>
    </g>
    <g>
        <g transform="matrix(1,0,0,1,0,13.9851)">
            <path d="M17.99,4.99C17.99,4.437 17.543,3.99 16.99,3.99C14.74,3.99 9.3,3.99 7.05,3.99C6.497,3.99 6.05,4.437 6.05,4.99C6.05,7.258 6.05,12.772 6.05,15.04C6.05,15.592 6.497,16.04 7.05,16.04C9.3,16.04 14.74,16.04 16.99,16.04C17.543,16.04 17.99,15.592 17.99,15.04C17.99,12.772 17.99,7.258 17.99,4.99Z" style="fill:url(#_Linear11);"/>
        </g>
        <g transform="matrix(1,0,0,1,-0.00986601,0.0328762)">
            <path d="M10.735,21.706C10.677,21.533 10.645,21.346 10.645,21.15C10.645,20.286 11.261,19.584 12.02,19.584C12.779,19.584 13.395,20.286 13.395,21.15C13.395,21.359 13.359,21.559 13.293,21.741C13.414,21.604 13.561,21.483 13.732,21.384C14.48,20.952 15.396,21.135 15.775,21.792C16.155,22.449 15.855,23.333 15.106,23.766C14.936,23.864 14.756,23.931 14.576,23.967C14.756,24.003 14.936,24.07 15.106,24.169C15.855,24.601 16.155,25.485 15.775,26.142C15.396,26.799 14.48,26.982 13.732,26.55C13.561,26.452 13.414,26.33 13.293,26.193C13.359,26.376 13.395,26.575 13.395,26.784C13.395,27.649 12.779,28.35 12.02,28.35C11.261,28.35 10.645,27.649 10.645,26.784C10.645,26.588 10.677,26.401 10.735,26.228C10.62,26.351 10.484,26.46 10.328,26.55C9.58,26.982 8.664,26.799 8.285,26.142C7.905,25.485 8.205,24.601 8.953,24.169C9.124,24.07 9.303,24.003 9.483,23.967C9.303,23.931 9.124,23.864 8.953,23.766C8.205,23.334 7.905,22.449 8.285,21.792C8.664,21.135 9.58,20.952 10.328,21.385C10.484,21.474 10.62,21.584 10.735,21.706Z" style="fill:white;"/>
        </g>
        <g transform="matrix(0.695224,0,0,0.695224,9.09881,6.8848)">
            <circle cx="4.202" cy="24.618" r="1.848" style="fill:rgb(248,188,14);"/>
        </g>
    </g>    
    <defs>
        <linearGradient id="_Linear1" x1="0" y1="0" x2="1" y2="0" gradientUnits="userSpaceOnUse" gradientTransform="matrix(0.161787,0,0,0.15924,31.8777,4.41407)"><stop offset="0" style="stop-color:rgb(21,150,224);stop-opacity:1"/><stop offset="1" style="stop-color:rgb(0,92,145);stop-opacity:1"/></linearGradient>
        <linearGradient id="_Linear2" x1="0" y1="0" x2="1" y2="0" gradientUnits="userSpaceOnUse" gradientTransform="matrix(0.123482,10.8143,-10.9872,0.121538,32.2591,8.23515)"><stop offset="0" style="stop-color:rgb(21,150,224);stop-opacity:1"/><stop offset="1" style="stop-color:rgb(0,92,145);stop-opacity:1"/></linearGradient>
        <linearGradient id="_Linear3" x1="0" y1="0" x2="1" y2="0" gradientUnits="userSpaceOnUse" gradientTransform="matrix(-0.0959947,10.1451,-10.3073,-0.0944833,32.423,8.23515)"><stop offset="0" style="stop-color:rgb(21,150,224);stop-opacity:1"/><stop offset="1" style="stop-color:rgb(0,92,145);stop-opacity:1"/></linearGradient>
        <linearGradient id="_Linear4" x1="0" y1="0" x2="1" y2="0" gradientUnits="userSpaceOnUse" gradientTransform="matrix(-0.25891,9.35008,-9.49964,-0.254834,20.3942,8.23515)"><stop offset="0" style="stop-color:rgb(21,150,224);stop-opacity:1"/><stop offset="1" style="stop-color:rgb(0,92,145);stop-opacity:1"/></linearGradient>
        <linearGradient id="_Linear5" x1="0" y1="0" x2="1" y2="0" gradientUnits="userSpaceOnUse" gradientTransform="matrix(0.123482,10.8143,-10.9872,0.121538,20.3881,8.23515)"><stop offset="0" style="stop-color:rgb(21,150,224);stop-opacity:1"/><stop offset="1" style="stop-color:rgb(0,92,145);stop-opacity:1"/></linearGradient>
        <linearGradient id="_Linear6" x1="0" y1="0" x2="1" y2="0" gradientUnits="userSpaceOnUse" gradientTransform="matrix(-0.0959947,10.1451,-10.3073,-0.0944833,20.552,8.23515)"><stop offset="0" style="stop-color:rgb(21,150,224);stop-opacity:1"/><stop offset="1" style="stop-color:rgb(0,92,145);stop-opacity:1"/></linearGradient>
        <linearGradient id="_Linear7" x1="0" y1="0" x2="1" y2="0" gradientUnits="userSpaceOnUse" gradientTransform="matrix(0.305985,22.072,-22.072,0.305985,3.08936,3.98966)"><stop offset="0" style="stop-color:rgb(179,74,22);stop-opacity:1"/><stop offset="1" style="stop-color:rgb(109,37,0);stop-opacity:1"/></linearGradient>
        <linearGradient id="_Linear8" x1="0" y1="0" x2="1" y2="0" gradientUnits="userSpaceOnUse" gradientTransform="matrix(3.91836,8.17302,-8.17302,3.91836,7.25621,7.90412)"><stop offset="0" style="stop-color:rgb(250,193,0);stop-opacity:1"/><stop offset="0.48" style="stop-color:rgb(249,177,4);stop-opacity:1"/><stop offset="1" style="stop-color:rgb(248,132,14);stop-opacity:1"/></linearGradient>
        <linearGradient id="_Linear9" x1="0" y1="0" x2="1" y2="0" gradientUnits="userSpaceOnUse" gradientTransform="matrix(0.173447,16.0725,-16.0725,0.173447,4.24475,3.98966)"><stop offset="0" style="stop-color:rgb(69,129,193);stop-opacity:1"/><stop offset="1" style="stop-color:rgb(20,77,138);stop-opacity:1"/></linearGradient>
        <linearGradient id="_Linear10" x1="0" y1="0" x2="1" y2="0" gradientUnits="userSpaceOnUse" gradientTransform="matrix(4.25482,6.67569,-6.67569,4.25482,10.706,35.3987)"><stop offset="0" style="stop-color:rgb(250,193,0);stop-opacity:1"/><stop offset="0.48" style="stop-color:rgb(248,146,11);stop-opacity:1"/><stop offset="1" style="stop-color:rgb(248,132,14);stop-opacity:1"/></linearGradient>
        <linearGradient id="_Linear11" x1="0" y1="0" x2="1" y2="0" gradientUnits="userSpaceOnUse" gradientTransform="matrix(0.0381052,17.5043,-17.5043,0.0381052,3.89558,3.98966)"><stop offset="0" style="stop-color:rgb(31,168,96);stop-opacity:1"/><stop offset="1" style="stop-color:rgb(3,105,52);stop-opacity:1"/></linearGradient>
    </defs>
</svg>
