<?xml version="1.0" encoding="UTF-8" standalone="no"?>
<!DOCTYPE svg PUBLIC "-//W3C//DTD SVG 1.1//EN" "http://www.w3.org/Graphics/SVG/1.1/DTD/svg11.dtd">
<svg viewBox="0 0 48 48" version="1.1" xmlns="http://www.w3.org/2000/svg" xmlns:xlink="http://www.w3.org/1999/xlink" xml:space="preserve" xmlns:serif="http://www.serif.com/" style="fill-rule:evenodd;clip-rule:evenodd;stroke-linecap:round;stroke-linejoin:round;stroke-miterlimit:1.5;">
    <g id="Слой1">
        <g transform="matrix(1.01029,0,0,1.00865,-0.460547,-0.521137)">
            <path d="M38.987,7.321C38.987,6.796 38.778,6.291 38.407,5.919C38.036,5.548 37.532,5.339 37.007,5.339C31.605,5.339 16.656,5.339 11.254,5.339C10.729,5.339 10.226,5.548 9.855,5.919C9.483,6.291 9.275,6.796 9.275,7.321C9.275,13.844 9.275,34.59 9.275,41.113C9.275,41.639 9.483,42.143 9.855,42.515C10.226,42.887 10.729,43.096 11.254,43.096C16.656,43.096 31.605,43.096 37.007,43.096C37.532,43.096 38.036,42.887 38.407,42.515C38.778,42.143 38.987,41.639 38.987,41.113C38.987,34.59 38.987,13.844 38.987,7.321Z" style="fill:url(#_Linear1);"/>
        </g>
        <g transform="matrix(1,0,0,1,-0.312698,-0.119787)">
            <path d="M28.459,4.01C28.459,3.732 28.349,3.465 28.152,3.269C27.955,3.072 27.689,2.962 27.411,2.962C25.818,2.962 22.807,2.962 21.215,2.962C20.937,2.962 20.67,3.072 20.473,3.269C20.277,3.465 20.166,3.732 20.166,4.01C20.166,5.387 20.166,7.785 20.166,9.133C20.166,9.68 20.61,10.124 21.158,10.124C22.753,10.124 25.872,10.124 27.467,10.124C28.015,10.124 28.459,9.68 28.459,9.133C28.459,7.785 28.459,5.387 28.459,4.01ZM25.485,7.715C25.485,7.404 25.362,7.106 25.142,6.886C24.922,6.666 24.624,6.543 24.313,6.543C24.313,6.543 24.312,6.543 24.312,6.543C24.001,6.543 23.703,6.666 23.483,6.886C23.263,7.106 23.14,7.404 23.14,7.715C23.14,7.745 23.14,7.774 23.14,7.804C23.14,8.115 23.263,8.413 23.483,8.633C23.703,8.852 24.001,8.976 24.312,8.976C24.312,8.976 24.313,8.976 24.313,8.976C24.624,8.976 24.922,8.852 25.142,8.633C25.362,8.413 25.485,8.115 25.485,7.804C25.485,7.774 25.485,7.745 25.485,7.715Z" style="fill:url(#_Linear2);"/>
        </g>
    </g>
    <g transform="matrix(1,0,0,1,0,0.174467)">
        <g transform="matrix(1,0,0,1,-0.312698,0.0854206)">
            <path d="M31.36,33.792C31.36,29.901 28.206,26.746 24.314,26.746C24.313,26.746 24.312,26.746 24.311,26.746C20.42,26.746 17.265,29.901 17.265,33.792C17.265,35.37 17.265,36.846 17.265,37.765C17.265,38.294 17.694,38.723 18.223,38.723C20.795,38.723 27.831,38.723 30.402,38.723C30.931,38.723 31.36,38.294 31.36,37.765C31.36,36.846 31.36,35.37 31.36,33.792Z" style="fill:rgb(86,198,245);stroke:rgb(15,86,144);stroke-width:0.5px;"/>
        </g>
        <g transform="matrix(1,0,0,1,-1.45751,7.9792)">
            <circle cx="25.458" cy="12.855" r="4.311" style="fill:rgb(86,198,245);stroke:rgb(15,86,144);stroke-width:0.5px;"/>
        </g>
    </g>
    <defs>
        <linearGradient id="_Linear1" x1="0" y1="0" x2="1" y2="0" gradientUnits="userSpaceOnUse" gradientTransform="matrix(1.26964e-14,44.8922,-44.8196,1.27169e-14,24.2115,3.21272)"><stop offset="0" style="stop-color:rgb(3,112,199);stop-opacity:1"/><stop offset="0.48" style="stop-color:rgb(7,103,180);stop-opacity:1"/><stop offset="1" style="stop-color:rgb(18,79,128);stop-opacity:1"/></linearGradient>
        <linearGradient id="_Linear2" x1="0" y1="0" x2="1" y2="0" gradientUnits="userSpaceOnUse" gradientTransform="matrix(5.01134e-16,8.18414,-13.6695,8.37016e-16,24.3127,1.94031)"><stop offset="0" style="stop-color:rgb(86,198,245);stop-opacity:1"/><stop offset="0.47" style="stop-color:rgb(63,185,237);stop-opacity:1"/><stop offset="1" style="stop-color:rgb(0,150,214);stop-opacity:1"/></linearGradient>
    </defs>
</svg>
